{"glyphs":{"0":{"ha":1006,"x_min":0,"x_max":0,"o":"m 501 -17 b 926 486 757 -17 926 208 l 926 489 b 504 989 926 767 758 989 b 79 486 249 989 79 764 l 79 483 b 501 -17 79 206 246 -17 z m 504 138 b 256 486 353 138 256 294 l 256 489 b 501 835 256 682 351 835 b 750 486 651 835 750 678 l 750 483 b 504 138 750 293 656 138 z "},"1":{"ha":550,"x_min":0,"x_max":0,"o":"m 247 78 b 332 -7 247 31 286 -7 b 417 78 379 -7 417 31 l 417 900 b 332 985 417 947 381 985 l 329 985 b 246 969 304 985 279 979 l 99 922 b 42 849 64 913 42 885 b 117 776 42 810 76 776 b 147 781 125 776 138 778 l 247 811 z "},"2":{"ha":851,"x_min":0,"x_max":0,"o":"m 60 81 b 151 0 60 31 99 0 l 703 0 b 778 75 744 0 778 33 b 703 150 778 117 744 150 l 308 150 l 508 317 b 761 693 681 457 761 540 l 761 696 b 440 986 761 869 631 986 b 118 829 288 986 197 928 b 99 776 106 814 99 794 b 176 699 99 733 133 699 b 236 725 204 699 224 711 b 428 833 296 797 350 833 b 585 682 517 833 585 778 b 403 419 585 594 536 532 l 104 165 b 60 81 75 142 60 114 z "},"3":{"ha":858,"x_min":0,"x_max":0,"o":"m 432 -17 b 772 292 635 -17 772 113 l 772 294 b 486 567 772 474 633 549 l 715 804 b 764 897 744 833 764 857 b 679 972 764 943 728 972 l 182 972 b 107 897 140 972 107 939 b 182 824 107 857 140 824 l 535 824 l 307 581 b 271 511 281 554 271 533 b 344 438 271 471 304 438 l 379 438 b 603 288 515 438 603 383 l 603 285 b 435 138 603 196 531 138 b 214 231 344 138 275 169 b 157 253 200 243 182 253 b 75 171 113 253 75 215 b 103 110 75 146 88 122 b 432 -17 182 33 289 -17 z "},"4":{"ha":947,"x_min":0,"x_max":0,"o":"m 572 74 b 654 -7 572 28 608 -7 b 736 74 700 -7 736 28 l 736 218 l 811 218 b 882 288 851 218 882 249 b 811 358 882 326 851 358 l 736 358 l 736 904 b 653 986 736 950 699 986 b 549 931 603 986 579 967 l 92 389 b 54 299 67 360 54 332 b 138 218 54 251 92 218 l 572 218 z m 253 358 l 572 743 l 572 358 z "},"5":{"ha":865,"x_min":0,"x_max":0,"o":"m 428 -17 b 783 313 636 -17 783 115 l 783 315 b 444 621 783 521 635 621 b 290 593 379 621 336 610 l 306 821 l 671 821 b 747 896 713 821 747 854 b 671 972 747 938 713 972 l 231 972 b 153 896 189 972 156 940 l 132 546 b 165 471 131 514 140 489 b 246 438 199 447 219 438 b 413 471 272 438 318 471 b 614 310 531 471 614 410 l 614 307 b 425 139 614 204 535 139 b 214 221 349 139 281 167 b 164 238 200 232 185 238 b 82 156 119 238 82 200 b 117 89 82 128 96 106 b 428 -17 196 28 296 -17 z "},"6":{"ha":911,"x_min":0,"x_max":0,"o":"m 468 -17 b 829 314 672 -17 829 121 l 829 317 b 490 622 829 511 678 622 b 257 525 375 622 308 575 b 490 833 265 703 346 833 b 657 779 556 833 604 814 b 700 767 669 772 685 767 b 782 846 744 767 782 801 b 739 919 782 881 765 903 b 496 989 675 963 596 989 b 79 460 221 989 79 757 l 79 457 b 197 86 79 261 124 160 b 468 -17 263 21 349 -17 z m 464 132 b 263 306 343 132 263 207 l 263 308 b 460 479 263 401 339 479 b 658 310 581 479 658 407 l 658 307 b 464 132 658 207 585 132 z "},"7":{"ha":846,"x_min":0,"x_max":0,"o":"m 190 69 b 278 -7 190 21 232 -7 b 360 50 313 -7 339 11 l 763 814 b 786 896 776 840 786 871 b 708 972 786 944 756 972 l 163 972 b 88 897 121 972 88 939 b 163 822 88 856 121 822 l 583 822 l 206 122 b 190 69 197 107 190 83 z "},"8":{"ha":875,"x_min":0,"x_max":0,"o":"m 438 -14 b 808 268 650 -14 808 94 l 808 271 b 633 504 808 386 740 456 b 775 721 715 547 775 613 l 775 724 b 438 986 775 874 632 986 b 100 724 243 986 100 872 l 100 721 b 242 504 100 613 160 547 b 67 268 132 458 67 385 l 67 265 b 438 -14 67 97 225 -14 z m 438 561 b 264 706 338 561 264 621 l 264 708 b 438 843 264 782 333 843 b 611 707 542 843 611 782 l 611 704 b 438 561 611 621 538 561 z m 438 129 b 235 275 310 129 235 196 l 235 278 b 438 425 235 367 322 425 b 642 278 553 425 642 367 l 642 275 b 438 129 642 194 565 129 z "},"9":{"ha":911,"x_min":0,"x_max":0,"o":"m 415 -17 b 832 513 678 -17 832 200 l 832 515 b 715 886 832 707 786 814 b 444 989 646 954 567 989 b 82 653 229 989 82 843 l 82 650 b 426 342 82 463 219 342 b 654 444 531 342 606 386 b 419 139 649 265 563 139 b 242 199 353 139 299 158 b 194 213 228 207 213 213 b 114 135 150 213 114 179 b 153 64 114 103 129 79 b 415 -17 225 15 306 -17 z m 451 485 b 253 658 331 485 253 557 l 253 661 b 446 842 253 761 325 842 b 649 663 569 842 649 764 l 649 660 b 451 485 649 565 575 485 z "},"A":{"ha":1074,"x_min":0,"x_max":0,"o":"m 58 72 b 138 -7 58 28 93 -7 b 217 47 174 -7 203 13 l 299 235 l 771 235 l 850 53 b 933 -7 865 17 893 -7 b 1014 75 979 -7 1014 29 b 1004 111 1014 86 1011 99 l 643 917 b 542 986 624 960 590 986 l 533 986 b 431 917 485 986 450 960 l 69 111 b 58 72 63 97 58 85 z m 364 386 l 535 779 l 706 386 z "},"B":{"ha":1003,"x_min":0,"x_max":0,"o":"m 125 86 b 211 0 125 38 163 0 l 575 0 b 935 267 792 0 935 93 l 935 269 b 742 506 935 401 856 467 b 881 722 814 543 881 606 l 881 725 b 815 886 881 790 858 843 b 561 972 760 942 672 972 l 211 972 b 125 886 163 972 125 935 z m 293 563 l 293 821 l 539 821 b 710 697 649 821 710 774 l 710 694 b 526 563 710 606 636 563 z m 293 151 l 293 418 l 564 418 b 764 288 699 418 764 369 l 764 285 b 576 151 764 197 693 151 z "},"C":{"ha":1025,"x_min":0,"x_max":0,"o":"m 576 -17 b 929 114 733 -17 838 33 b 957 175 944 128 957 149 b 876 254 957 218 919 254 b 825 235 856 254 838 246 b 582 142 754 175 685 142 b 261 486 396 142 261 296 l 261 489 b 582 832 261 679 397 832 b 814 744 675 832 747 799 b 865 728 825 736 842 728 b 950 811 913 728 950 764 b 917 879 950 842 935 865 b 583 989 832 944 733 989 b 82 486 289 989 82 763 l 82 483 b 576 -17 82 204 293 -17 z "},"D":{"ha":1086,"x_min":0,"x_max":0,"o":"m 125 86 b 211 0 125 38 163 0 l 488 0 b 1004 486 793 0 1004 213 l 1004 489 b 488 972 1004 763 793 972 l 211 972 b 125 886 163 972 125 935 z m 296 156 l 296 817 l 488 817 b 825 486 692 817 825 676 l 825 483 b 488 156 825 293 692 156 z "},"E":{"ha":931,"x_min":0,"x_max":0,"o":"m 211 0 l 783 0 b 860 76 825 0 860 33 b 783 153 860 118 825 153 l 296 153 l 296 414 l 714 414 b 790 489 756 414 790 447 b 714 567 790 532 756 567 l 296 567 l 296 819 l 776 819 b 853 896 818 819 853 853 b 776 972 853 938 818 972 l 211 972 b 125 886 163 972 125 935 l 125 86 b 211 0 125 38 163 0 z "},"F":{"ha":911,"x_min":0,"x_max":0,"o":"m 125 78 b 211 -7 125 31 163 -7 b 296 78 258 -7 296 31 l 296 396 l 715 396 b 793 474 758 396 793 431 b 715 551 793 517 758 551 l 296 551 l 296 817 l 778 817 b 856 894 821 817 856 851 b 778 972 856 938 821 972 l 211 972 b 125 886 163 972 125 935 z "},"G":{"ha":1089,"x_min":0,"x_max":0,"o":"m 586 -17 b 932 89 732 -17 849 33 b 992 197 972 114 992 149 l 992 457 b 906 543 992 506 954 543 l 635 543 b 558 468 593 543 558 510 b 635 394 558 426 593 394 l 826 394 l 826 213 b 592 139 767 168 683 139 b 261 486 393 139 261 286 l 261 489 b 576 832 261 675 397 832 b 813 756 682 832 750 801 b 865 736 826 746 843 736 b 950 821 913 736 950 775 b 915 890 950 854 932 878 b 583 989 826 954 729 989 b 82 486 290 989 82 758 l 82 483 b 586 -17 82 200 282 -17 z "},"H":{"ha":1056,"x_min":0,"x_max":0,"o":"m 125 78 b 211 -7 125 31 163 -7 b 296 78 258 -7 296 31 l 296 410 l 760 410 l 760 78 b 844 -7 760 31 797 -7 b 931 78 893 -7 931 31 l 931 894 b 844 979 931 942 893 979 b 760 894 797 979 760 942 l 760 568 l 296 568 l 296 894 b 211 979 296 942 258 979 b 125 894 163 979 125 942 z "},"I":{"ha":440,"x_min":0,"x_max":0,"o":"m 135 78 b 221 -7 135 31 172 -7 b 306 78 268 -7 306 31 l 306 894 b 221 979 306 942 268 979 b 135 894 172 979 135 942 z "},"J":{"ha":778,"x_min":0,"x_max":0,"o":"m 340 -14 b 576 72 438 -14 519 15 b 668 331 633 129 668 215 l 668 894 b 582 979 668 942 629 979 b 496 894 535 979 496 942 l 496 336 b 339 144 496 206 433 144 b 181 219 274 144 228 171 b 128 239 165 232 150 239 b 46 157 82 239 46 203 b 75 93 46 131 60 107 b 340 -14 136 32 222 -14 z "},"K":{"ha":990,"x_min":0,"x_max":0,"o":"m 125 78 b 211 -7 125 31 163 -7 b 296 78 258 -7 296 31 l 296 279 l 454 432 l 767 33 b 839 -7 785 10 806 -7 b 925 76 888 -7 925 29 b 901 138 925 103 915 119 l 574 544 l 876 836 b 907 900 896 854 907 874 b 828 979 907 942 875 979 b 757 947 797 979 776 968 l 296 483 l 296 894 b 211 979 296 942 258 979 b 125 894 163 979 125 942 z "},"L":{"ha":860,"x_min":0,"x_max":0,"o":"m 125 86 b 211 0 125 38 163 0 l 736 0 b 814 78 779 0 814 35 b 736 156 814 121 779 156 l 296 156 l 296 894 b 211 979 296 942 258 979 b 125 894 163 979 125 942 z "},"M":{"ha":1206,"x_min":0,"x_max":0,"o":"m 125 76 b 208 -7 125 29 161 -7 b 293 76 256 -7 293 29 l 293 658 l 529 304 b 600 260 547 276 569 260 b 672 304 632 260 654 276 l 910 661 l 910 78 b 994 -7 910 32 949 -7 b 1081 78 1043 -7 1081 31 l 1081 892 b 994 978 1081 939 1043 978 l 976 978 b 899 933 942 978 917 963 l 603 471 l 308 932 b 229 978 292 958 267 978 l 211 978 b 125 892 163 978 125 939 z "},"N":{"ha":1097,"x_min":0,"x_max":0,"o":"m 125 76 b 210 -7 125 31 163 -7 b 293 76 256 -7 293 31 l 293 693 l 793 46 b 882 -6 817 15 842 -6 l 889 -6 b 972 79 936 -6 972 32 l 972 896 b 888 979 972 942 935 979 b 804 896 842 979 804 942 l 804 299 l 318 928 b 229 978 294 957 271 978 l 211 978 b 125 892 163 978 125 939 z "},"O":{"ha":1181,"x_min":0,"x_max":0,"o":"m 589 -17 b 1099 486 888 -17 1099 213 l 1099 489 b 592 989 1099 763 890 989 b 82 486 293 989 82 760 l 82 483 b 589 -17 82 210 290 -17 z m 592 142 b 261 486 399 142 261 297 l 261 489 b 589 832 261 678 396 832 b 919 486 782 832 919 675 l 919 483 b 592 142 919 294 785 142 z "},"P":{"ha":928,"x_min":0,"x_max":0,"o":"m 125 78 b 211 -7 125 31 163 -7 b 296 78 258 -7 296 31 l 296 313 l 489 313 b 878 644 703 313 878 426 l 878 647 b 508 972 878 843 736 972 l 211 972 b 125 886 163 972 125 935 z m 296 467 l 296 817 l 494 817 b 704 643 622 817 704 757 l 704 640 b 494 467 704 539 624 467 z "},"Q":{"ha":1181,"x_min":0,"x_max":0,"o":"m 589 -17 b 885 75 701 -17 803 17 l 954 13 b 1014 -12 969 -3 989 -12 b 1094 69 1058 -12 1094 25 b 1063 136 1094 99 1082 119 l 1000 188 b 1099 486 1063 272 1099 376 l 1099 489 b 592 989 1099 763 890 989 b 82 486 293 989 82 760 l 82 483 b 589 -17 82 210 290 -17 z m 639 289 l 760 186 b 592 142 713 158 656 142 b 261 486 399 142 261 297 l 261 489 b 589 832 261 678 396 832 b 919 486 782 832 919 675 l 919 483 b 872 299 919 414 903 351 l 747 413 b 688 438 728 429 713 438 b 607 356 643 438 607 400 b 639 289 607 326 619 306 z "},"R":{"ha":1004,"x_min":0,"x_max":0,"o":"m 125 78 b 211 -7 125 31 163 -7 b 296 78 258 -7 296 31 l 296 339 l 511 339 l 747 38 b 831 -7 767 11 792 -7 b 913 72 872 -7 913 25 b 885 138 913 99 901 117 l 699 372 b 919 663 829 413 919 507 l 919 665 b 839 875 919 750 890 822 b 558 972 776 936 681 972 l 211 972 b 125 886 163 972 125 935 z m 296 490 l 296 817 l 544 817 b 746 656 671 817 746 760 l 746 653 b 546 490 746 554 668 490 z "},"S":{"ha":889,"x_min":0,"x_max":0,"o":"m 465 -14 b 813 276 669 -14 813 94 l 813 279 b 501 564 813 440 707 514 b 269 717 314 608 269 642 l 269 719 b 428 835 269 783 328 835 b 651 761 504 835 576 810 b 696 749 665 753 679 749 b 776 828 740 749 776 783 b 739 896 776 861 758 885 b 431 986 651 954 553 986 b 99 704 238 986 99 871 l 99 701 b 422 411 99 522 215 461 b 642 263 603 369 642 332 l 642 260 b 469 138 642 188 575 138 b 197 238 364 138 278 174 b 147 253 186 246 171 253 b 67 174 103 253 67 218 b 100 108 67 146 81 122 b 465 -14 208 28 333 -14 z "},"T":{"ha":900,"x_min":0,"x_max":0,"o":"m 364 78 b 450 -7 364 31 403 -7 b 536 78 497 -7 536 31 l 536 814 l 774 814 b 851 893 817 814 851 850 b 774 972 851 936 817 972 l 128 972 b 49 893 83 972 49 936 b 128 814 49 850 83 814 l 364 814 z "},"U":{"ha":1051,"x_min":0,"x_max":0,"o":"m 524 -15 b 942 421 778 -15 942 131 l 942 894 b 857 979 942 942 904 979 b 771 894 808 979 771 942 l 771 413 b 526 143 771 233 678 143 b 281 419 374 143 281 239 l 281 894 b 196 979 281 942 243 979 b 110 894 147 979 110 942 l 110 413 b 524 -15 110 131 271 -15 z "},"V":{"ha":1018,"x_min":0,"x_max":0,"o":"m 504 -14 l 514 -14 b 613 56 563 -14 594 13 l 954 861 b 963 897 958 871 963 885 b 878 979 963 943 925 979 b 796 924 838 979 807 953 l 511 217 l 231 918 b 143 979 217 954 188 979 b 57 896 94 979 57 942 b 67 856 57 881 61 868 l 407 56 b 504 -14 425 13 457 -14 z "},"W":{"ha":1526,"x_min":0,"x_max":0,"o":"m 353 57 b 442 -14 369 13 400 -14 l 458 -14 b 547 57 500 -14 532 13 l 764 692 l 981 57 b 1068 -14 996 13 1026 -14 l 1085 -14 b 1174 57 1126 -14 1158 14 l 1461 863 b 1469 897 1465 872 1469 886 b 1385 979 1469 943 1431 979 b 1301 918 1343 979 1314 953 l 1078 249 l 858 914 b 772 982 846 954 815 982 l 760 982 b 674 914 717 982 688 954 l 454 249 l 231 917 b 146 979 219 953 188 979 b 58 896 99 979 58 943 b 65 863 58 885 61 872 z "},"X":{"ha":992,"x_min":0,"x_max":0,"o":"m 75 72 b 153 -7 75 24 114 -7 b 236 40 190 -7 213 10 l 493 375 l 754 35 b 832 -7 775 7 796 -7 b 917 76 881 -7 917 29 b 890 140 917 101 904 122 l 604 497 l 876 836 b 903 901 893 857 903 876 b 825 979 903 949 863 979 b 742 932 788 979 764 963 l 499 614 l 253 938 b 175 979 232 965 211 979 b 90 896 126 979 90 943 b 117 832 90 872 103 850 l 389 494 l 100 136 b 75 72 85 115 75 96 z "},"Y":{"ha":967,"x_min":0,"x_max":0,"o":"m 399 78 b 483 -7 399 31 436 -7 b 569 78 532 -7 569 31 l 569 382 l 901 836 b 925 897 914 853 925 874 b 842 981 925 943 892 981 b 760 929 806 981 781 960 l 485 538 l 214 928 b 131 979 193 958 168 979 b 44 897 82 979 44 943 b 64 838 44 874 53 854 l 399 378 z "},"Z":{"ha":975,"x_min":0,"x_max":0,"o":"m 161 0 l 818 0 b 894 75 860 0 894 33 b 818 151 894 117 860 151 l 313 151 l 861 814 b 892 893 881 839 892 864 l 892 897 b 815 972 892 938 857 972 l 176 972 b 101 896 136 972 101 938 b 176 821 101 854 136 821 l 664 821 l 117 158 b 85 79 96 135 85 108 l 85 75 b 161 0 85 35 121 0 z "},"a":{"ha":815,"x_min":0,"x_max":0,"o":"m 317 -15 b 556 92 429 -15 506 32 l 556 64 b 638 -7 556 26 589 -7 b 719 74 683 -7 719 28 l 719 435 b 640 661 719 531 694 608 b 397 743 589 714 507 743 b 161 700 301 743 231 726 b 115 633 136 690 115 664 b 186 564 115 594 147 564 b 213 568 194 564 203 565 b 375 597 258 586 311 597 b 557 438 493 597 557 542 l 557 419 b 360 450 500 438 442 450 b 57 214 181 450 57 372 l 57 211 b 317 -15 57 64 179 -15 z m 364 107 b 221 218 283 107 221 147 l 221 221 b 393 343 221 297 285 343 b 560 314 460 343 517 331 l 560 264 b 364 107 560 171 475 107 z "},"b":{"ha":932,"x_min":0,"x_max":0,"o":"m 106 76 b 189 -7 106 31 143 -7 b 274 76 236 -7 274 31 l 274 114 b 524 -15 325 46 401 -15 b 864 365 697 -15 864 122 l 864 368 b 524 749 864 613 696 749 b 274 611 404 749 328 688 l 274 938 b 189 1021 274 985 236 1021 b 106 938 142 1021 106 985 z m 483 131 b 269 365 369 131 269 225 l 269 368 b 483 603 269 508 369 603 b 693 368 597 603 693 510 l 693 365 b 483 131 693 221 599 131 z "},"c":{"ha":793,"x_min":0,"x_max":0,"o":"m 444 -17 b 711 88 567 -17 646 25 b 735 140 726 100 735 118 b 663 214 735 181 703 214 b 617 196 643 214 626 204 b 453 131 571 157 519 131 b 233 365 324 131 233 235 l 233 368 b 446 601 233 496 324 601 b 603 539 513 601 560 575 b 653 522 614 531 632 522 b 731 599 696 522 731 556 b 704 657 731 626 715 647 b 447 749 642 711 563 749 b 65 365 226 749 65 574 l 65 363 b 444 -17 65 154 226 -17 z "},"d":{"ha":932,"x_min":0,"x_max":0,"o":"m 826 938 b 742 1021 826 985 789 1021 b 658 938 696 1021 658 985 l 658 619 b 408 749 606 689 529 749 b 68 368 233 749 68 611 l 68 365 b 408 -15 68 122 236 -15 b 658 122 528 -15 604 46 l 658 76 b 743 -7 658 29 696 -7 b 826 76 789 -7 826 29 z m 449 603 b 661 368 561 603 661 510 l 661 365 b 449 131 661 225 561 131 b 238 365 335 131 238 224 l 238 368 b 449 603 238 514 333 603 z "},"e":{"ha":839,"x_min":0,"x_max":0,"o":"m 232 418 b 422 611 247 532 319 611 b 608 418 533 611 597 526 z m 706 81 b 728 132 718 93 728 111 b 661 200 728 171 699 200 b 618 185 642 200 631 194 b 444 121 571 146 515 121 b 233 307 336 121 251 188 l 693 307 b 772 388 736 307 772 340 b 424 749 772 557 657 749 b 65 367 214 749 65 576 l 65 364 b 442 -17 65 138 229 -17 b 706 81 556 -17 639 21 z "},"f":{"ha":522,"x_min":0,"x_max":0,"o":"m 143 76 b 226 -7 143 31 181 -7 b 311 76 274 -7 311 31 l 311 589 l 439 589 b 510 658 478 589 510 619 b 439 728 510 697 479 728 l 308 728 l 308 768 b 406 879 308 844 342 879 b 440 876 417 879 431 878 b 511 946 479 875 511 907 b 453 1015 511 983 483 1011 b 368 1022 429 1019 401 1022 b 203 964 296 1022 242 1003 b 143 783 164 925 143 864 l 143 729 l 114 729 b 43 658 75 729 43 697 b 114 589 43 619 75 589 l 143 589 z "},"g":{"ha":932,"x_min":0,"x_max":0,"o":"m 432 -225 b 733 -126 564 -225 667 -193 b 826 150 794 -65 826 26 l 826 657 b 742 742 826 704 789 742 b 658 658 696 742 658 704 l 658 624 b 401 749 601 692 525 749 b 68 404 231 749 68 621 l 68 401 b 401 58 68 186 229 58 b 660 193 522 58 599 114 l 660 136 b 428 -89 660 -11 578 -89 b 203 -31 343 -89 269 -68 b 172 -24 194 -26 185 -24 b 101 -93 133 -24 101 -56 b 149 -160 101 -125 119 -149 b 432 -225 238 -203 329 -225 z m 446 201 b 238 403 331 201 238 283 l 238 406 b 446 607 238 526 329 607 b 661 406 563 607 661 525 l 661 403 b 446 201 661 283 563 201 z "},"h":{"ha":861,"x_min":0,"x_max":0,"o":"m 106 76 b 189 -7 106 29 143 -7 b 274 76 236 -7 274 29 l 274 414 b 439 596 274 528 342 596 b 596 417 539 596 596 531 l 596 76 b 681 -7 596 29 633 -7 b 764 76 728 -7 764 29 l 764 468 b 503 749 764 638 668 749 b 274 621 389 749 321 689 l 274 938 b 189 1021 274 983 236 1021 b 106 938 142 1021 106 983 z "},"i":{"ha":397,"x_min":0,"x_max":0,"o":"m 103 922 b 199 839 103 872 144 839 b 294 922 253 839 294 872 l 294 931 b 199 1013 294 981 253 1013 b 103 931 144 1013 103 981 z m 115 76 b 199 -7 115 29 153 -7 b 283 76 246 -7 283 29 l 283 657 b 199 742 283 704 246 742 b 115 657 151 742 115 704 z "},"j":{"ha":397,"x_min":0,"x_max":0,"o":"m 81 -226 b 283 -10 204 -226 283 -158 l 283 657 b 199 742 283 704 246 742 b 115 657 151 742 115 704 l 115 -10 b 53 -89 115 -65 90 -89 b 43 -87 51 -89 46 -87 b -24 -157 7 -87 -24 -115 b 68 -226 -24 -203 15 -225 z m 103 922 b 199 839 103 872 144 839 b 294 922 253 839 294 872 l 294 931 b 199 1013 294 981 253 1013 b 103 931 144 1013 103 981 z "},"k":{"ha":806,"x_min":0,"x_max":0,"o":"m 106 76 b 189 -7 106 29 143 -7 b 274 76 236 -7 274 29 l 274 204 l 385 310 l 594 31 b 668 -7 615 4 635 -7 b 747 69 711 -7 747 24 b 725 125 747 89 740 104 l 503 415 l 697 594 b 735 665 721 617 735 638 b 661 742 735 706 706 742 b 589 706 632 742 611 728 l 274 396 l 274 938 b 189 1021 274 983 236 1021 b 106 938 142 1021 106 983 z "},"l":{"ha":397,"x_min":0,"x_max":0,"o":"m 115 76 b 199 -7 115 29 153 -7 b 283 76 246 -7 283 29 l 283 938 b 199 1021 283 983 246 1021 b 115 938 151 1021 115 983 z "},"m":{"ha":1319,"x_min":0,"x_max":0,"o":"m 106 76 b 189 -7 106 29 143 -7 b 274 76 236 -7 274 29 l 274 414 b 431 596 274 526 338 596 b 579 418 524 596 579 532 l 579 76 b 664 -7 579 29 617 -7 b 747 76 710 -7 747 29 l 747 414 b 904 596 747 532 813 596 b 1053 417 999 596 1053 533 l 1053 76 b 1138 -7 1053 29 1090 -7 b 1221 76 1185 -7 1221 29 l 1221 468 b 964 749 1221 647 1124 749 b 717 619 853 749 775 697 b 497 749 678 697 603 749 b 274 622 385 749 321 688 l 274 657 b 189 742 274 704 236 742 b 106 657 142 742 106 704 z "},"n":{"ha":861,"x_min":0,"x_max":0,"o":"m 106 76 b 189 -7 106 29 143 -7 b 274 76 236 -7 274 29 l 274 414 b 439 596 274 528 342 596 b 596 417 539 596 596 531 l 596 76 b 681 -7 596 29 633 -7 b 764 76 728 -7 764 29 l 764 468 b 503 749 764 638 668 749 b 274 621 389 749 321 689 l 274 657 b 189 742 274 704 236 742 b 106 657 142 742 106 704 z "},"o":{"ha":913,"x_min":0,"x_max":0,"o":"m 454 -17 b 847 365 681 -17 847 157 l 847 368 b 457 749 847 578 682 749 b 65 365 232 749 65 575 l 65 363 b 454 -17 65 154 231 -17 z m 457 131 b 233 365 326 131 233 238 l 233 368 b 454 601 233 496 319 601 b 679 365 586 601 679 494 l 679 363 b 457 131 679 236 593 131 z "},"p":{"ha":932,"x_min":0,"x_max":0,"o":"m 106 -146 b 189 -229 106 -193 143 -229 b 274 -146 236 -229 274 -193 l 274 114 b 524 -15 325 46 401 -15 b 864 365 697 -15 864 122 l 864 368 b 524 749 864 613 696 749 b 274 611 404 749 328 688 l 274 657 b 189 742 274 704 236 742 b 106 657 142 742 106 704 z m 483 131 b 269 365 369 131 269 225 l 269 368 b 483 603 269 508 369 603 b 693 368 597 603 693 510 l 693 365 b 483 131 693 221 599 131 z "},"q":{"ha":932,"x_min":0,"x_max":0,"o":"m 826 657 b 742 742 826 704 789 742 b 658 658 696 742 658 704 l 658 619 b 408 749 606 689 529 749 b 68 368 233 749 68 611 l 68 365 b 408 -15 68 122 236 -15 b 658 122 528 -15 604 46 l 658 -146 b 743 -229 658 -193 696 -229 b 826 -146 789 -229 826 -193 z m 449 603 b 661 368 561 603 661 510 l 661 365 b 449 131 661 225 561 131 b 238 365 335 131 238 224 l 238 368 b 449 603 238 514 333 603 z "},"r":{"ha":574,"x_min":0,"x_max":0,"o":"m 106 76 b 189 -7 106 29 143 -7 b 274 76 236 -7 274 31 l 274 293 b 475 579 274 467 356 558 b 542 660 513 586 542 615 b 458 743 542 708 511 743 b 274 582 385 743 313 674 l 274 657 b 189 742 274 704 236 742 b 106 657 142 742 106 704 z "},"s":{"ha":696,"x_min":0,"x_max":0,"o":"m 357 -14 b 629 217 510 -14 629 63 l 629 219 b 401 433 629 351 508 400 b 236 538 315 461 236 483 l 236 540 b 339 613 236 582 274 613 b 511 563 390 613 451 593 b 544 554 522 557 531 554 b 614 622 583 554 614 583 b 574 686 614 651 597 674 b 343 746 503 724 421 746 b 82 522 197 746 82 661 l 82 519 b 311 304 82 379 203 335 b 475 201 397 278 475 258 l 475 199 b 361 119 475 150 433 119 b 150 190 294 119 221 143 b 114 200 140 196 128 200 b 46 132 75 200 46 169 b 78 74 46 104 60 83 b 357 -14 163 15 264 -14 z "},"t":{"ha":571,"x_min":0,"x_max":0,"o":"m 351 -12 b 467 7 396 -12 431 -6 b 511 72 490 17 511 42 b 440 142 511 111 478 142 b 399 138 435 142 418 138 b 308 229 342 138 308 164 l 308 589 l 440 589 b 514 661 481 589 514 621 b 440 733 514 701 481 733 l 308 733 l 308 858 b 225 942 308 904 271 942 b 140 858 178 942 140 904 l 140 733 l 113 733 b 40 661 72 733 40 701 b 113 589 40 621 72 589 l 140 589 l 140 203 b 351 -12 140 42 228 -12 z "},"u":{"ha":861,"x_min":0,"x_max":0,"o":"m 757 657 b 672 742 757 704 718 742 b 588 657 625 742 588 704 l 588 319 b 422 139 588 206 519 139 b 265 317 322 139 265 203 l 265 657 b 181 742 265 704 228 742 b 97 657 135 742 97 704 l 97 267 b 358 -15 97 96 193 -15 b 588 114 472 -15 540 44 l 588 76 b 672 -7 588 29 626 -7 b 757 76 719 -7 757 31 z "},"v":{"ha":814,"x_min":0,"x_max":0,"o":"m 507 60 l 751 621 b 761 661 756 629 761 646 b 679 742 761 707 725 742 b 600 683 635 742 613 713 l 408 194 l 219 681 b 136 742 206 715 182 742 b 53 661 90 742 53 703 b 63 619 53 646 58 632 l 307 60 b 403 -14 326 15 357 -14 l 411 -14 b 507 60 457 -14 488 17 z "},"w":{"ha":1185,"x_min":0,"x_max":0,"o":"m 351 -12 l 357 -12 b 447 60 397 -12 432 11 l 592 496 l 735 60 b 826 -12 750 11 785 -12 l 832 -12 b 925 63 872 -12 907 11 l 1125 626 b 1132 664 1128 635 1132 651 b 1053 742 1132 706 1099 742 b 971 676 1008 742 982 713 l 828 231 l 683 675 b 597 742 671 714 640 742 l 588 742 b 501 675 544 742 514 714 l 358 231 l 217 675 b 135 742 204 714 176 742 b 53 664 85 742 53 704 b 61 621 53 650 57 632 l 258 63 b 351 -12 275 11 310 -12 z "},"x":{"ha":796,"x_min":0,"x_max":0,"o":"m 67 64 b 144 -10 67 22 101 -10 b 218 33 175 -10 199 10 l 396 263 l 574 33 b 651 -10 594 6 618 -10 b 729 68 693 -10 729 21 b 701 132 729 90 719 110 l 496 375 l 694 613 b 718 669 708 629 718 646 b 639 743 718 711 683 743 b 567 700 610 743 586 725 l 399 485 l 233 701 b 156 743 213 728 189 743 b 78 665 114 743 78 713 b 106 601 78 643 88 624 l 299 372 l 90 122 b 67 64 75 106 67 88 z "},"y":{"ha":815,"x_min":0,"x_max":0,"o":"m 239 -226 b 486 -21 357 -226 424 -171 l 754 622 b 761 663 757 631 761 649 b 681 742 761 707 725 742 b 600 678 638 742 614 713 l 417 190 l 219 678 b 138 742 204 717 181 742 b 54 660 90 742 54 707 b 64 619 54 649 58 632 l 336 11 l 331 -4 b 226 -82 303 -61 276 -82 b 168 -72 203 -82 188 -78 b 138 -67 160 -69 151 -67 b 69 -136 101 -67 69 -94 b 122 -206 69 -176 97 -197 b 239 -226 157 -219 192 -226 z "},"z":{"ha":778,"x_min":0,"x_max":0,"o":"m 150 0 l 647 0 b 717 68 686 0 717 31 b 647 138 717 107 686 138 l 286 138 l 678 582 b 714 663 703 610 714 631 l 714 667 b 633 733 714 706 679 733 l 150 733 b 81 664 111 733 81 703 b 150 596 81 626 111 596 l 496 596 l 106 151 b 68 71 79 124 68 103 l 68 68 b 150 0 68 29 103 0 z "},"Á":{"ha":1074,"x_min":0,"x_max":0,"o":"m 58 72 b 138 -7 58 28 93 -7 b 217 47 174 -7 203 13 l 299 235 l 771 235 l 850 53 b 933 -7 865 17 893 -7 b 1014 75 979 -7 1014 29 b 1004 111 1014 86 1011 99 l 643 917 b 542 986 624 960 590 986 l 533 986 b 431 917 485 986 450 960 l 69 111 b 58 72 63 97 58 85 z m 364 386 l 535 779 l 706 386 z m 531 1060 b 629 1097 569 1060 596 1067 l 722 1186 b 746 1228 736 1199 746 1213 b 646 1282 746 1254 690 1282 b 579 1242 617 1282 594 1267 l 500 1119 b 489 1089 494 1111 489 1099 b 531 1060 489 1071 507 1060 z "},"á":{"ha":815,"x_min":0,"x_max":0,"o":"m 317 -15 b 556 92 429 -15 506 32 l 556 64 b 638 -7 556 26 589 -7 b 719 74 683 -7 719 28 l 719 435 b 640 661 719 531 694 608 b 397 743 589 714 507 743 b 161 700 301 743 231 726 b 115 633 136 690 115 664 b 186 564 115 594 147 564 b 213 568 194 564 203 565 b 375 597 258 586 311 597 b 557 438 493 597 557 542 l 557 419 b 360 450 500 438 442 450 b 57 214 181 450 57 372 l 57 211 b 317 -15 57 64 179 -15 z m 364 107 b 221 218 283 107 221 147 l 221 221 b 393 343 221 297 285 343 b 560 314 460 343 517 331 l 560 264 b 364 107 560 171 475 107 z m 404 819 b 503 857 443 819 469 826 l 596 946 b 619 988 610 958 619 972 b 519 1042 619 1014 564 1042 b 453 1001 490 1042 468 1026 l 374 879 b 363 849 368 871 363 858 b 404 819 363 831 381 819 z "},"Ă":{"ha":1074,"x_min":0,"x_max":0,"o":"m 58 72 b 138 -7 58 28 93 -7 b 217 47 174 -7 203 13 l 299 235 l 771 235 l 850 53 b 933 -7 865 17 893 -7 b 1014 75 979 -7 1014 29 b 1004 111 1014 86 1011 99 l 643 917 b 542 986 624 960 590 986 l 533 986 b 431 917 485 986 450 960 l 69 111 b 58 72 63 97 58 85 z m 364 386 l 535 779 l 706 386 z m 535 1064 b 747 1175 633 1064 707 1104 b 758 1218 754 1189 758 1204 b 700 1278 758 1251 733 1278 b 647 1246 671 1278 657 1263 b 535 1182 628 1208 594 1182 b 422 1246 475 1182 443 1208 b 369 1278 413 1263 399 1278 b 311 1218 336 1278 311 1251 b 322 1175 311 1204 315 1189 b 535 1064 363 1104 438 1064 z "},"ă":{"ha":815,"x_min":0,"x_max":0,"o":"m 317 -15 b 556 92 429 -15 506 32 l 556 64 b 638 -7 556 26 589 -7 b 719 74 683 -7 719 28 l 719 435 b 640 661 719 531 694 608 b 397 743 589 714 507 743 b 161 700 301 743 231 726 b 115 633 136 690 115 664 b 186 564 115 594 147 564 b 213 568 194 564 203 565 b 375 597 258 586 311 597 b 557 438 493 597 557 542 l 557 419 b 360 450 500 438 442 450 b 57 214 181 450 57 372 l 57 211 b 317 -15 57 64 179 -15 z m 364 107 b 221 218 283 107 221 147 l 221 221 b 393 343 221 297 285 343 b 560 314 460 343 517 331 l 560 264 b 364 107 560 171 475 107 z m 408 824 b 621 935 507 824 581 864 b 632 978 628 949 632 964 b 574 1038 632 1011 607 1038 b 521 1006 544 1038 531 1022 b 408 942 501 968 468 942 b 296 1006 349 942 317 968 b 243 1038 286 1022 272 1038 b 185 978 210 1038 185 1011 b 196 935 185 964 189 949 b 408 824 236 864 311 824 z "},"Â":{"ha":1074,"x_min":0,"x_max":0,"o":"m 58 72 b 138 -7 58 28 93 -7 b 217 47 174 -7 203 13 l 299 235 l 771 235 l 850 53 b 933 -7 865 17 893 -7 b 1014 75 979 -7 1014 29 b 1004 111 1014 86 1011 99 l 643 917 b 542 986 624 960 590 986 l 533 986 b 431 917 485 986 450 960 l 69 111 b 58 72 63 97 58 85 z m 364 386 l 535 779 l 706 386 z m 533 1160 l 606 1097 b 708 1060 643 1067 669 1060 b 749 1088 731 1060 749 1069 b 732 1121 749 1097 740 1110 l 640 1236 b 560 1276 621 1261 599 1276 l 510 1276 b 429 1236 471 1276 450 1261 l 338 1121 b 321 1088 329 1110 321 1097 b 358 1060 321 1069 338 1060 b 461 1097 397 1060 425 1067 z "},"â":{"ha":815,"x_min":0,"x_max":0,"o":"m 317 -15 b 556 92 429 -15 506 32 l 556 64 b 638 -7 556 26 589 -7 b 719 74 683 -7 719 28 l 719 435 b 640 661 719 531 694 608 b 397 743 589 714 507 743 b 161 700 301 743 231 726 b 115 633 136 690 115 664 b 186 564 115 594 147 564 b 213 568 194 564 203 565 b 375 597 258 586 311 597 b 557 438 493 597 557 542 l 557 419 b 360 450 500 438 442 450 b 57 214 181 450 57 372 l 57 211 b 317 -15 57 64 179 -15 z m 364 107 b 221 218 283 107 221 147 l 221 221 b 393 343 221 297 285 343 b 560 314 460 343 517 331 l 560 264 b 364 107 560 171 475 107 z m 407 919 l 479 857 b 582 819 517 826 543 819 b 622 847 604 819 622 829 b 606 881 622 857 614 869 l 514 996 b 433 1036 494 1021 472 1036 l 383 1036 b 303 996 344 1036 324 1021 l 211 881 b 194 847 203 869 194 857 b 232 819 194 829 211 819 b 335 857 271 819 299 826 z "},"Ä":{"ha":1074,"x_min":0,"x_max":0,"o":"m 58 72 b 138 -7 58 28 93 -7 b 217 47 174 -7 203 13 l 299 235 l 771 235 l 850 53 b 933 -7 865 17 893 -7 b 1014 75 979 -7 1014 29 b 1004 111 1014 86 1011 99 l 643 917 b 542 986 624 960 590 986 l 533 986 b 431 917 485 986 450 960 l 69 111 b 58 72 63 97 58 85 z m 364 386 l 535 779 l 706 386 z m 674 1240 b 582 1154 622 1240 582 1204 l 582 1144 b 674 1060 582 1094 622 1060 b 764 1144 724 1060 764 1094 l 764 1154 b 674 1240 764 1204 724 1240 z m 397 1240 b 306 1154 346 1240 306 1204 l 306 1144 b 397 1060 306 1094 346 1060 b 488 1144 447 1060 488 1094 l 488 1154 b 397 1240 488 1204 447 1240 z "},"ä":{"ha":815,"x_min":0,"x_max":0,"o":"m 317 -15 b 556 92 429 -15 506 32 l 556 64 b 638 -7 556 26 589 -7 b 719 74 683 -7 719 28 l 719 435 b 640 661 719 531 694 608 b 397 743 589 714 507 743 b 161 700 301 743 231 726 b 115 633 136 690 115 664 b 186 564 115 594 147 564 b 213 568 194 564 203 565 b 375 597 258 586 311 597 b 557 438 493 597 557 542 l 557 419 b 360 450 500 438 442 450 b 57 214 181 450 57 372 l 57 211 b 317 -15 57 64 179 -15 z m 364 107 b 221 218 283 107 221 147 l 221 221 b 393 343 221 297 285 343 b 560 314 460 343 517 331 l 560 264 b 364 107 560 171 475 107 z m 547 1000 b 456 914 496 1000 456 964 l 456 904 b 547 819 456 854 496 819 b 638 904 597 819 638 854 l 638 914 b 547 1000 638 964 597 1000 z m 271 1000 b 179 914 219 1000 179 964 l 179 904 b 271 819 179 854 219 819 b 361 904 321 819 361 854 l 361 914 b 271 1000 361 964 321 1000 z "},"À":{"ha":1074,"x_min":0,"x_max":0,"o":"m 58 72 b 138 -7 58 28 93 -7 b 217 47 174 -7 203 13 l 299 235 l 771 235 l 850 53 b 933 -7 865 17 893 -7 b 1014 75 979 -7 1014 29 b 1004 111 1014 86 1011 99 l 643 917 b 542 986 624 960 590 986 l 533 986 b 431 917 485 986 450 960 l 69 111 b 58 72 63 97 58 85 z m 364 386 l 535 779 l 706 386 z m 540 1060 b 583 1089 565 1060 583 1071 b 571 1119 583 1099 576 1111 l 492 1242 b 425 1282 476 1267 454 1282 b 325 1228 381 1282 325 1254 b 349 1186 325 1213 335 1199 l 443 1097 b 540 1060 475 1067 501 1060 z "},"à":{"ha":815,"x_min":0,"x_max":0,"o":"m 317 -15 b 556 92 429 -15 506 32 l 556 64 b 638 -7 556 26 589 -7 b 719 74 683 -7 719 28 l 719 435 b 640 661 719 531 694 608 b 397 743 589 714 507 743 b 161 700 301 743 231 726 b 115 633 136 690 115 664 b 186 564 115 594 147 564 b 213 568 194 564 203 565 b 375 597 258 586 311 597 b 557 438 493 597 557 542 l 557 419 b 360 450 500 438 442 450 b 57 214 181 450 57 372 l 57 211 b 317 -15 57 64 179 -15 z m 364 107 b 221 218 283 107 221 147 l 221 221 b 393 343 221 297 285 343 b 560 314 460 343 517 331 l 560 264 b 364 107 560 171 475 107 z m 413 819 b 456 849 438 819 456 831 b 443 879 456 858 449 871 l 364 1001 b 297 1042 349 1026 326 1042 b 197 988 253 1042 197 1014 b 221 946 197 972 207 958 l 315 857 b 413 819 347 826 374 819 z "},"Ā":{"ha":1074,"x_min":0,"x_max":0,"o":"m 58 72 b 138 -7 58 28 93 -7 b 217 47 174 -7 203 13 l 299 235 l 771 235 l 850 53 b 933 -7 865 17 893 -7 b 1014 75 979 -7 1014 29 b 1004 111 1014 86 1011 99 l 643 917 b 542 986 624 960 590 986 l 533 986 b 431 917 485 986 450 960 l 69 111 b 58 72 63 97 58 85 z m 364 386 l 535 779 l 706 386 z m 719 1082 b 781 1143 753 1082 781 1110 b 719 1204 781 1176 753 1204 l 350 1204 b 289 1143 317 1204 289 1176 b 350 1082 289 1110 317 1082 z "},"ā":{"ha":815,"x_min":0,"x_max":0,"o":"m 317 -15 b 556 92 429 -15 506 32 l 556 64 b 638 -7 556 26 589 -7 b 719 74 683 -7 719 28 l 719 435 b 640 661 719 531 694 608 b 397 743 589 714 507 743 b 161 700 301 743 231 726 b 115 633 136 690 115 664 b 186 564 115 594 147 564 b 213 568 194 564 203 565 b 375 597 258 586 311 597 b 557 438 493 597 557 542 l 557 419 b 360 450 500 438 442 450 b 57 214 181 450 57 372 l 57 211 b 317 -15 57 64 179 -15 z m 364 107 b 221 218 283 107 221 147 l 221 221 b 393 343 221 297 285 343 b 560 314 460 343 517 331 l 560 264 b 364 107 560 171 475 107 z m 593 842 b 654 903 626 842 654 869 b 593 964 654 936 626 964 l 224 964 b 163 903 190 964 163 936 b 224 842 163 869 190 842 z "},"Ą":{"ha":1097,"x_min":0,"x_max":0,"o":"m 69 72 b 149 -7 69 28 104 -7 b 229 47 185 -7 214 13 l 310 235 l 782 235 l 881 11 b 817 -114 840 -31 817 -68 b 994 -231 817 -197 906 -231 b 1050 -187 1031 -231 1050 -214 b 1004 -144 1050 -165 1035 -151 b 943 -87 965 -135 943 -121 b 996 6 943 -60 957 -32 b 1028 72 1018 29 1028 46 b 1018 108 1028 83 1024 96 l 656 917 b 554 986 636 960 603 986 l 544 986 b 442 917 496 986 461 960 l 81 111 b 69 72 75 97 69 85 z m 375 386 l 546 779 l 717 386 z "},"ą":{"ha":815,"x_min":0,"x_max":0,"o":"m 503 -118 b 681 -231 503 -197 592 -231 b 736 -187 717 -231 736 -214 b 690 -144 736 -165 721 -151 b 631 -89 651 -135 631 -121 b 686 6 631 -60 646 -33 b 719 72 710 28 719 44 l 719 435 b 640 661 719 531 694 608 b 397 743 589 714 507 743 b 161 700 301 743 231 726 b 115 633 136 690 115 664 b 186 564 115 594 147 564 b 213 568 194 564 203 565 b 375 597 258 586 311 597 b 557 438 493 597 557 542 l 557 419 b 360 450 500 438 442 450 b 57 214 181 450 57 372 l 57 211 b 317 -15 57 64 179 -15 b 556 92 429 -15 506 32 l 556 90 b 576 15 556 75 563 28 b 503 -118 526 -32 503 -72 z m 364 107 b 221 218 283 107 221 147 l 221 221 b 393 343 221 297 285 343 b 560 314 460 343 517 331 l 560 264 b 364 107 560 171 475 107 z "},"Å":{"ha":1097,"x_min":0,"x_max":0,"o":"m 640 950 b 707 1071 681 976 707 1022 l 707 1074 b 549 1225 707 1156 632 1225 b 390 1074 465 1225 390 1156 l 390 1071 b 457 950 390 1021 418 976 l 79 108 b 69 72 75 97 69 85 b 150 -7 69 29 104 -7 b 229 47 186 -7 214 14 l 310 235 l 782 235 l 861 53 b 944 -7 878 17 904 -7 b 1026 75 990 -7 1026 31 b 1017 110 1026 86 1024 97 z m 549 986 b 463 1071 501 986 463 1025 l 463 1074 b 549 1158 463 1119 501 1158 b 635 1074 596 1158 635 1119 l 635 1071 b 549 986 635 1025 596 986 z m 375 386 l 546 779 l 717 386 z "},"å":{"ha":815,"x_min":0,"x_max":0,"o":"m 317 -15 b 556 92 429 -15 506 32 l 556 64 b 638 -7 556 26 589 -7 b 719 74 683 -7 719 28 l 719 435 b 640 661 719 531 694 608 b 397 743 589 714 507 743 b 161 700 301 743 231 726 b 115 633 136 690 115 664 b 186 564 115 594 147 564 b 213 568 194 564 203 565 b 375 597 258 586 311 597 b 557 438 493 597 557 542 l 557 419 b 360 450 500 438 442 450 b 57 214 181 450 57 372 l 57 211 b 317 -15 57 64 179 -15 z m 408 824 b 567 975 492 824 567 893 l 567 978 b 408 1129 567 1061 492 1129 b 250 978 325 1129 250 1061 l 250 975 b 408 824 250 893 325 824 z m 364 107 b 221 218 283 107 221 147 l 221 221 b 393 343 221 297 285 343 b 560 314 460 343 517 331 l 560 264 b 364 107 560 171 475 107 z m 408 890 b 322 975 361 890 322 929 l 322 978 b 408 1063 322 1024 361 1063 b 494 978 456 1063 494 1024 l 494 975 b 408 890 494 929 456 890 z "},"Ǻ":{"ha":1097,"x_min":0,"x_max":0,"o":"m 544 1260 b 643 1297 583 1260 610 1267 l 736 1386 b 760 1428 750 1399 760 1413 b 660 1482 760 1454 704 1482 b 593 1442 631 1482 608 1467 l 514 1319 b 503 1289 508 1311 503 1299 b 544 1260 503 1271 521 1260 z m 640 950 b 707 1071 681 976 707 1022 l 707 1074 b 549 1225 707 1156 632 1225 b 390 1074 465 1225 390 1156 l 390 1071 b 457 950 390 1021 418 976 l 79 108 b 69 72 75 97 69 85 b 150 -7 69 29 104 -7 b 229 47 186 -7 214 14 l 310 235 l 782 235 l 861 53 b 944 -7 878 17 904 -7 b 1026 75 990 -7 1026 31 b 1017 110 1026 86 1024 97 z m 549 986 b 463 1071 501 986 463 1025 l 463 1074 b 549 1158 463 1119 501 1158 b 635 1074 596 1158 635 1119 l 635 1071 b 549 986 635 1025 596 986 z m 375 386 l 546 779 l 717 386 z "},"ǻ":{"ha":815,"x_min":0,"x_max":0,"o":"m 317 -15 b 556 92 429 -15 506 32 l 556 64 b 638 -7 556 26 589 -7 b 719 74 683 -7 719 28 l 719 435 b 640 661 719 531 694 608 b 397 743 589 714 507 743 b 161 700 301 743 231 726 b 115 633 136 690 115 664 b 186 564 115 594 147 564 b 213 568 194 564 203 565 b 375 597 258 586 311 597 b 557 438 493 597 557 542 l 557 419 b 360 450 500 438 442 450 b 57 214 181 450 57 372 l 57 211 b 317 -15 57 64 179 -15 z m 408 824 b 567 975 492 824 567 893 l 567 978 b 408 1129 567 1061 492 1129 b 250 978 325 1129 250 1061 l 250 975 b 408 824 250 893 325 824 z m 364 107 b 221 218 283 107 221 147 l 221 221 b 393 343 221 297 285 343 b 560 314 460 343 517 331 l 560 264 b 364 107 560 171 475 107 z m 404 1171 b 503 1208 443 1171 469 1178 l 596 1297 b 619 1339 610 1310 619 1324 b 519 1393 619 1365 564 1393 b 453 1353 490 1393 468 1378 l 374 1231 b 363 1200 368 1222 363 1210 b 404 1171 363 1182 381 1171 z m 408 890 b 322 975 361 890 322 929 l 322 978 b 408 1063 322 1024 361 1063 b 494 978 456 1063 494 1024 l 494 975 b 408 890 494 929 456 890 z "},"Ã":{"ha":1074,"x_min":0,"x_max":0,"o":"m 58 72 b 138 -7 58 28 93 -7 b 217 47 174 -7 203 13 l 299 235 l 771 235 l 850 53 b 933 -7 865 17 893 -7 b 1014 75 979 -7 1014 29 b 1004 111 1014 86 1011 99 l 643 917 b 542 986 624 960 590 986 l 533 986 b 431 917 485 986 450 960 l 69 111 b 58 72 63 97 58 85 z m 364 386 l 535 779 l 706 386 z m 385 1078 b 449 1122 401 1108 417 1122 b 649 1067 499 1122 572 1067 b 790 1193 722 1067 761 1113 b 796 1225 793 1203 796 1217 b 744 1271 796 1249 772 1271 b 699 1243 724 1271 708 1258 b 635 1199 682 1213 667 1199 b 435 1254 585 1199 511 1254 b 293 1128 361 1254 322 1208 b 288 1096 290 1118 288 1104 b 339 1050 288 1072 311 1050 b 385 1078 361 1050 375 1063 z "},"ã":{"ha":815,"x_min":0,"x_max":0,"o":"m 317 -15 b 556 92 429 -15 506 32 l 556 64 b 638 -7 556 26 589 -7 b 719 74 683 -7 719 28 l 719 435 b 640 661 719 531 694 608 b 397 743 589 714 507 743 b 161 700 301 743 231 726 b 115 633 136 690 115 664 b 186 564 115 594 147 564 b 213 568 194 564 203 565 b 375 597 258 586 311 597 b 557 438 493 597 557 542 l 557 419 b 360 450 500 438 442 450 b 57 214 181 450 57 372 l 57 211 b 317 -15 57 64 179 -15 z m 258 838 b 322 882 275 868 290 882 b 522 826 372 882 446 826 b 664 953 596 826 635 872 b 669 985 667 963 669 976 b 618 1031 669 1008 646 1031 b 572 1003 597 1031 582 1018 b 508 958 556 972 540 958 b 308 1014 458 958 385 1014 b 167 888 235 1014 196 968 b 161 856 164 878 161 864 b 213 810 161 832 185 810 b 258 838 235 810 249 822 z m 364 107 b 221 218 283 107 221 147 l 221 221 b 393 343 221 297 285 343 b 560 314 460 343 517 331 l 560 264 b 364 107 560 171 475 107 z "},"Æ":{"ha":1451,"x_min":0,"x_max":0,"o":"m 47 63 b 122 -8 47 22 81 -8 b 197 39 156 -8 179 8 l 310 235 l 676 235 l 676 86 b 763 0 676 38 714 0 l 1304 0 b 1381 76 1346 0 1381 33 b 1304 153 1381 118 1346 153 l 847 153 l 847 414 l 1235 414 b 1311 489 1276 414 1311 447 b 1235 567 1311 532 1276 567 l 847 567 l 847 819 l 1297 819 b 1374 896 1339 819 1374 853 b 1297 972 1374 938 1339 972 l 629 972 b 529 913 581 972 550 950 l 61 111 b 47 63 53 99 47 79 z m 397 386 l 649 824 l 676 824 l 676 386 z "},"æ":{"ha":1322,"x_min":0,"x_max":0,"o":"m 714 418 b 906 611 729 532 803 611 b 1092 418 1017 611 1081 526 z m 361 108 b 221 218 283 108 221 150 l 221 221 b 390 343 221 297 283 343 b 551 315 453 343 508 331 b 579 203 556 274 565 238 b 361 108 515 143 442 108 z m 1188 81 b 1211 132 1201 93 1211 111 b 1143 200 1211 171 1182 200 b 1101 185 1125 200 1113 194 b 926 121 1054 146 999 121 b 717 307 819 121 735 188 l 1175 307 b 1254 388 1219 307 1254 340 b 910 749 1254 557 1139 749 b 653 624 801 749 711 700 b 394 743 608 701 522 743 b 161 700 301 743 231 728 b 115 633 136 690 115 664 b 186 564 115 594 147 564 b 213 568 194 564 203 565 b 372 597 260 586 310 597 b 551 438 489 597 551 542 l 551 419 b 357 450 494 438 438 450 b 57 214 181 450 57 372 l 57 211 b 333 -15 57 67 181 -15 b 640 108 457 -15 558 40 b 924 -17 707 31 810 -17 b 1188 81 1039 -17 1121 21 z "},"Ǽ":{"ha":1451,"x_min":0,"x_max":0,"o":"m 858 1046 b 957 1083 897 1046 924 1053 l 1050 1172 b 1074 1214 1064 1185 1074 1199 b 974 1268 1074 1240 1018 1268 b 907 1228 944 1268 922 1253 l 828 1106 b 817 1075 822 1097 817 1085 b 858 1046 817 1057 835 1046 z m 47 63 b 122 -8 47 22 81 -8 b 197 39 156 -8 179 8 l 310 235 l 676 235 l 676 86 b 763 0 676 38 714 0 l 1304 0 b 1381 76 1346 0 1381 33 b 1304 153 1381 118 1346 153 l 847 153 l 847 414 l 1235 414 b 1311 489 1276 414 1311 447 b 1235 567 1311 532 1276 567 l 847 567 l 847 819 l 1297 819 b 1374 896 1339 819 1374 853 b 1297 972 1374 938 1339 972 l 629 972 b 529 913 581 972 550 950 l 61 111 b 47 63 53 99 47 79 z m 397 386 l 649 824 l 676 824 l 676 386 z "},"ǽ":{"ha":1322,"x_min":0,"x_max":0,"o":"m 651 819 b 750 857 690 819 717 826 l 843 946 b 867 988 857 958 867 972 b 767 1042 867 1014 811 1042 b 700 1001 738 1042 715 1026 l 621 879 b 610 849 615 871 610 858 b 651 819 610 831 628 819 z m 714 418 b 906 611 729 532 803 611 b 1092 418 1017 611 1081 526 z m 361 108 b 221 218 283 108 221 150 l 221 221 b 390 343 221 297 283 343 b 551 315 453 343 508 331 b 579 203 556 274 565 238 b 361 108 515 143 442 108 z m 1188 81 b 1211 132 1201 93 1211 111 b 1143 200 1211 171 1182 200 b 1101 185 1125 200 1113 194 b 926 121 1054 146 999 121 b 717 307 819 121 735 188 l 1175 307 b 1254 388 1219 307 1254 340 b 910 749 1254 557 1139 749 b 653 624 801 749 711 700 b 394 743 608 701 522 743 b 161 700 301 743 231 728 b 115 633 136 690 115 664 b 186 564 115 594 147 564 b 213 568 194 564 203 565 b 372 597 260 586 310 597 b 551 438 489 597 551 542 l 551 419 b 357 450 494 438 438 450 b 57 214 181 450 57 372 l 57 211 b 333 -15 57 67 181 -15 b 640 108 457 -15 558 40 b 924 -17 707 31 810 -17 b 1188 81 1039 -17 1121 21 z "},"Ć":{"ha":1025,"x_min":0,"x_max":0,"o":"m 563 1060 b 661 1097 601 1060 628 1067 l 754 1186 b 778 1228 768 1199 778 1213 b 678 1282 778 1254 722 1282 b 611 1242 649 1282 626 1267 l 532 1119 b 521 1089 526 1111 521 1099 b 563 1060 521 1071 539 1060 z m 576 -17 b 929 114 733 -17 838 33 b 957 175 944 128 957 149 b 876 254 957 218 919 254 b 825 235 856 254 838 246 b 582 142 754 175 685 142 b 261 486 396 142 261 296 l 261 489 b 582 832 261 679 397 832 b 814 744 675 832 747 799 b 865 728 825 736 842 728 b 950 811 913 728 950 764 b 917 879 950 842 935 865 b 583 989 832 944 733 989 b 82 486 289 989 82 763 l 82 483 b 576 -17 82 204 293 -17 z "},"ć":{"ha":793,"x_min":0,"x_max":0,"o":"m 433 819 b 532 857 472 819 499 826 l 625 946 b 649 988 639 958 649 972 b 549 1042 649 1014 593 1042 b 482 1001 519 1042 497 1026 l 403 879 b 392 849 397 871 392 858 b 433 819 392 831 410 819 z m 444 -17 b 711 88 567 -17 646 25 b 735 140 726 100 735 118 b 663 214 735 181 703 214 b 617 196 643 214 626 204 b 453 131 571 157 519 131 b 233 365 324 131 233 235 l 233 368 b 446 601 233 496 324 601 b 603 539 513 601 560 575 b 653 522 614 531 632 522 b 731 599 696 522 731 556 b 704 657 731 626 715 647 b 447 749 642 711 563 749 b 65 365 226 749 65 574 l 65 363 b 444 -17 65 154 226 -17 z "},"Č":{"ha":1025,"x_min":0,"x_max":0,"o":"m 568 1178 l 496 1240 b 393 1278 460 1271 432 1278 b 353 1250 371 1278 353 1268 b 369 1217 353 1239 361 1228 l 461 1101 b 542 1061 482 1076 503 1061 l 592 1061 b 672 1101 631 1061 653 1076 l 764 1217 b 781 1250 772 1228 781 1239 b 743 1278 781 1268 765 1278 b 640 1240 704 1278 678 1271 z m 576 -17 b 929 114 733 -17 838 33 b 957 175 944 128 957 149 b 876 254 957 218 919 254 b 825 235 856 254 838 246 b 582 142 754 175 685 142 b 261 486 396 142 261 296 l 261 489 b 582 832 261 679 397 832 b 814 744 675 832 747 799 b 865 728 825 736 842 728 b 950 811 913 728 950 764 b 917 879 950 842 935 865 b 583 989 832 944 733 989 b 82 486 289 989 82 763 l 82 483 b 576 -17 82 204 293 -17 z "},"č":{"ha":793,"x_min":0,"x_max":0,"o":"m 439 938 l 367 1000 b 264 1038 331 1031 303 1038 b 224 1010 242 1038 224 1028 b 240 976 224 999 232 988 l 332 861 b 413 821 353 836 374 821 l 463 821 b 543 861 501 821 524 836 l 635 976 b 651 1010 643 988 651 999 b 614 1038 651 1028 636 1038 b 511 1000 575 1038 549 1031 z m 444 -17 b 711 88 567 -17 646 25 b 735 140 726 100 735 118 b 663 214 735 181 703 214 b 617 196 643 214 626 204 b 453 131 571 157 519 131 b 233 365 324 131 233 235 l 233 368 b 446 601 233 496 324 601 b 603 539 513 601 560 575 b 653 522 614 531 632 522 b 731 599 696 522 731 556 b 704 657 731 626 715 647 b 447 749 642 711 563 749 b 65 365 226 749 65 574 l 65 363 b 444 -17 65 154 226 -17 z "},"Ç":{"ha":1025,"x_min":0,"x_max":0,"o":"m 929 114 b 957 175 944 128 957 149 b 876 254 957 218 919 254 b 825 235 856 254 838 246 b 582 142 754 175 685 142 b 261 486 396 142 261 296 l 261 489 b 582 832 261 679 397 832 b 814 744 675 832 747 799 b 865 728 825 736 842 728 b 950 811 913 728 950 764 b 917 879 950 842 935 865 b 583 989 832 944 733 989 b 82 486 289 989 82 763 l 82 483 b 478 -7 82 238 246 36 l 394 -129 b 383 -161 388 -139 383 -150 b 481 -222 383 -190 447 -222 b 535 -182 510 -222 524 -208 l 606 -15 b 929 114 747 -10 843 38 z "},"ç":{"ha":793,"x_min":0,"x_max":0,"o":"m 711 88 b 735 140 726 100 735 118 b 663 214 735 181 703 214 b 617 196 643 214 626 204 b 453 131 571 157 519 131 b 233 365 324 131 233 235 l 233 368 b 446 601 233 496 324 601 b 603 539 513 601 560 575 b 653 522 614 531 632 522 b 731 599 696 522 731 556 b 704 657 731 626 715 647 b 447 749 642 711 563 749 b 65 365 226 749 65 574 l 65 363 b 347 -4 65 186 181 36 l 263 -129 b 251 -161 256 -139 251 -150 b 349 -222 251 -190 315 -222 b 403 -182 378 -222 392 -208 l 475 -15 b 711 88 581 -10 651 31 z "},"Ċ":{"ha":1025,"x_min":0,"x_max":0,"o":"m 576 -17 b 929 114 733 -17 838 33 b 957 175 944 128 957 149 b 876 254 957 218 919 254 b 825 235 856 254 838 246 b 582 142 754 175 685 142 b 261 486 396 142 261 296 l 261 489 b 582 832 261 679 397 832 b 814 744 675 832 747 799 b 865 728 825 736 842 728 b 950 811 913 728 950 764 b 917 879 950 842 935 865 b 583 989 832 944 733 989 b 82 486 289 989 82 763 l 82 483 b 576 -17 82 204 293 -17 z m 661 1154 b 567 1240 661 1206 618 1240 b 474 1154 515 1240 474 1206 l 474 1144 b 567 1060 474 1093 515 1060 b 661 1144 618 1060 661 1093 z "},"ċ":{"ha":793,"x_min":0,"x_max":0,"o":"m 444 -17 b 711 88 567 -17 646 25 b 735 140 726 100 735 118 b 663 214 735 181 703 214 b 617 196 643 214 626 204 b 453 131 571 157 519 131 b 233 365 324 131 233 235 l 233 368 b 446 601 233 496 324 601 b 603 539 513 601 560 575 b 653 522 614 531 632 522 b 731 599 696 522 731 556 b 704 657 731 626 715 647 b 447 749 642 711 563 749 b 65 365 226 749 65 574 l 65 363 b 444 -17 65 154 226 -17 z m 532 914 b 438 1000 532 965 489 1000 b 344 914 386 1000 344 965 l 344 904 b 438 819 344 853 386 819 b 532 904 489 819 532 853 z "},"Ď":{"ha":1086,"x_min":0,"x_max":0,"o":"m 525 1164 l 453 1226 b 350 1264 417 1257 389 1264 b 310 1236 328 1264 310 1254 b 326 1203 310 1225 318 1214 l 418 1088 b 499 1047 439 1063 460 1047 l 549 1047 b 629 1088 588 1047 610 1063 l 721 1203 b 738 1236 729 1214 738 1225 b 700 1264 738 1254 722 1264 b 597 1226 661 1264 635 1257 z m 125 86 b 211 0 125 38 163 0 l 488 0 b 1004 486 793 0 1004 213 l 1004 489 b 488 972 1004 763 793 972 l 211 972 b 125 886 163 972 125 935 z m 296 156 l 296 817 l 488 817 b 825 486 692 817 825 676 l 825 483 b 488 156 825 293 692 156 z "},"ď":{"ha":932,"x_min":0,"x_max":0,"o":"m 904 788 b 940 746 903 761 918 746 b 981 781 963 746 974 758 l 1032 949 b 1038 981 1036 961 1038 972 b 994 1021 1038 1007 1019 1021 l 969 1021 b 908 960 933 1021 910 994 z m 826 938 b 742 1021 826 985 789 1021 b 658 938 696 1021 658 985 l 658 619 b 408 749 606 689 529 749 b 68 368 233 749 68 611 l 68 365 b 408 -15 68 122 236 -15 b 658 122 528 -15 604 46 l 658 76 b 743 -7 658 29 696 -7 b 826 76 789 -7 826 29 z m 449 603 b 661 368 561 603 661 510 l 661 365 b 449 131 661 225 561 131 b 238 365 335 131 238 224 l 238 368 b 449 603 238 514 333 603 z "},"Đ":{"ha":1128,"x_min":0,"x_max":0,"o":"m 131 565 b 56 489 89 565 56 532 b 131 413 56 447 89 413 l 167 413 l 167 86 b 253 0 167 38 204 0 l 529 0 b 1046 486 835 0 1046 213 l 1046 489 b 529 972 1046 763 835 972 l 253 972 b 167 886 204 972 167 935 l 167 565 z m 336 817 l 529 817 b 867 486 733 817 867 676 l 867 483 b 529 156 867 293 733 156 l 336 156 l 336 413 l 513 413 b 588 489 554 413 588 447 b 513 565 588 532 554 565 l 336 565 z "},"đ":{"ha":932,"x_min":0,"x_max":0,"o":"m 826 938 b 742 1021 826 985 789 1021 b 658 938 696 1021 658 985 l 658 936 l 474 936 b 424 886 446 936 424 913 b 474 836 424 858 446 836 l 658 836 l 658 619 b 408 749 606 689 529 749 b 68 368 233 749 68 611 l 68 365 b 408 -15 68 122 236 -15 b 658 122 528 -15 604 46 l 658 76 b 743 -7 658 29 696 -7 b 826 76 789 -7 826 29 l 826 836 l 879 836 b 929 886 907 836 929 858 b 879 936 929 913 907 936 l 826 936 z m 449 603 b 661 368 561 603 661 510 l 661 365 b 449 131 661 225 561 131 b 238 365 335 131 238 224 l 238 368 b 449 603 238 514 333 603 z "},"É":{"ha":931,"x_min":0,"x_max":0,"o":"m 483 1046 b 582 1083 522 1046 549 1053 l 675 1172 b 699 1214 689 1185 699 1199 b 599 1268 699 1240 643 1268 b 532 1228 569 1268 547 1253 l 453 1106 b 442 1075 447 1097 442 1085 b 483 1046 442 1057 460 1046 z m 211 0 l 783 0 b 860 76 825 0 860 33 b 783 153 860 118 825 153 l 296 153 l 296 414 l 714 414 b 790 489 756 414 790 447 b 714 567 790 532 756 567 l 296 567 l 296 819 l 776 819 b 853 896 818 819 853 853 b 776 972 853 938 818 972 l 211 972 b 125 886 163 972 125 935 l 125 86 b 211 0 125 38 163 0 z "},"é":{"ha":839,"x_min":0,"x_max":0,"o":"m 417 819 b 515 857 456 819 482 826 l 608 946 b 632 988 622 958 632 972 b 532 1042 632 1014 576 1042 b 465 1001 503 1042 481 1026 l 386 879 b 375 849 381 871 375 858 b 417 819 375 831 393 819 z m 232 418 b 422 611 247 532 319 611 b 608 418 533 611 597 526 z m 706 81 b 728 132 718 93 728 111 b 661 200 728 171 699 200 b 618 185 642 200 631 194 b 444 121 571 146 515 121 b 233 307 336 121 251 188 l 693 307 b 772 388 736 307 772 340 b 424 749 772 557 657 749 b 65 367 214 749 65 576 l 65 364 b 442 -17 65 138 229 -17 b 706 81 556 -17 639 21 z "},"Ĕ":{"ha":931,"x_min":0,"x_max":0,"o":"m 211 0 l 783 0 b 860 76 825 0 860 33 b 783 153 860 118 825 153 l 296 153 l 296 414 l 714 414 b 790 489 756 414 790 447 b 714 567 790 532 756 567 l 296 567 l 296 819 l 776 819 b 853 896 818 819 853 853 b 776 972 853 938 818 972 l 211 972 b 125 886 163 972 125 935 l 125 86 b 211 0 125 38 163 0 z m 488 1050 b 700 1161 586 1050 660 1090 b 711 1204 707 1175 711 1190 b 653 1264 711 1238 686 1264 b 600 1232 624 1264 610 1249 b 488 1168 581 1194 547 1168 b 375 1232 428 1168 396 1194 b 322 1264 365 1249 351 1264 b 264 1204 289 1264 264 1238 b 275 1161 264 1190 268 1175 b 488 1050 315 1090 390 1050 z "},"ĕ":{"ha":839,"x_min":0,"x_max":0,"o":"m 232 418 b 422 611 247 532 319 611 b 608 418 533 611 597 526 z m 706 81 b 728 132 718 93 728 111 b 661 200 728 171 699 200 b 618 185 642 200 631 194 b 444 121 571 146 515 121 b 233 307 336 121 251 188 l 693 307 b 772 388 736 307 772 340 b 424 749 772 557 657 749 b 65 367 214 749 65 576 l 65 364 b 442 -17 65 138 229 -17 b 706 81 556 -17 639 21 z m 421 824 b 633 935 519 824 593 864 b 644 978 640 949 644 964 b 586 1038 644 1011 619 1038 b 533 1006 557 1038 543 1022 b 421 942 514 968 481 942 b 308 1006 361 942 329 968 b 256 1038 299 1022 285 1038 b 197 978 222 1038 197 1011 b 208 935 197 964 201 949 b 421 824 249 864 324 824 z "},"Ě":{"ha":931,"x_min":0,"x_max":0,"o":"m 489 1164 l 417 1226 b 314 1264 381 1257 353 1264 b 274 1236 292 1264 274 1254 b 290 1203 274 1225 282 1214 l 382 1088 b 463 1047 403 1063 424 1047 l 513 1047 b 593 1088 551 1047 574 1063 l 685 1203 b 701 1236 693 1214 701 1225 b 664 1264 701 1254 686 1264 b 561 1226 625 1264 599 1257 z m 211 0 l 783 0 b 860 76 825 0 860 33 b 783 153 860 118 825 153 l 296 153 l 296 414 l 714 414 b 790 489 756 414 790 447 b 714 567 790 532 756 567 l 296 567 l 296 819 l 776 819 b 853 896 818 819 853 853 b 776 972 853 938 818 972 l 211 972 b 125 886 163 972 125 935 l 125 86 b 211 0 125 38 163 0 z "},"ě":{"ha":839,"x_min":0,"x_max":0,"o":"m 422 938 l 350 1000 b 247 1038 314 1031 286 1038 b 207 1010 225 1038 207 1028 b 224 976 207 999 215 988 l 315 861 b 396 821 336 836 357 821 l 446 821 b 526 861 485 821 507 836 l 618 976 b 635 1010 626 988 635 999 b 597 1038 635 1028 619 1038 b 494 1000 558 1038 532 1031 z m 232 418 b 422 611 247 532 319 611 b 608 418 533 611 597 526 z m 706 81 b 728 132 718 93 728 111 b 661 200 728 171 699 200 b 618 185 642 200 631 194 b 444 121 571 146 515 121 b 233 307 336 121 251 188 l 693 307 b 772 388 736 307 772 340 b 424 749 772 557 657 749 b 65 367 214 749 65 576 l 65 364 b 442 -17 65 138 229 -17 b 706 81 556 -17 639 21 z "},"Ê":{"ha":931,"x_min":0,"x_max":0,"o":"m 486 1146 l 558 1083 b 661 1046 596 1053 622 1046 b 701 1074 683 1046 701 1056 b 685 1107 701 1083 693 1096 l 593 1222 b 513 1263 574 1247 551 1263 l 463 1263 b 382 1222 424 1263 403 1247 l 290 1107 b 274 1074 282 1096 274 1083 b 311 1046 274 1056 290 1046 b 414 1083 350 1046 378 1053 z m 211 0 l 783 0 b 860 76 825 0 860 33 b 783 153 860 118 825 153 l 296 153 l 296 414 l 714 414 b 790 489 756 414 790 447 b 714 567 790 532 756 567 l 296 567 l 296 819 l 776 819 b 853 896 818 819 853 853 b 776 972 853 938 818 972 l 211 972 b 125 886 163 972 125 935 l 125 86 b 211 0 125 38 163 0 z "},"ê":{"ha":839,"x_min":0,"x_max":0,"o":"m 419 919 l 492 857 b 594 819 529 826 556 819 b 635 847 617 819 635 829 b 618 881 635 857 626 869 l 526 996 b 446 1036 507 1021 485 1036 l 396 1036 b 315 996 357 1036 336 1021 l 224 881 b 207 847 215 869 207 857 b 244 819 207 829 224 819 b 347 857 283 819 311 826 z m 232 418 b 422 611 247 532 319 611 b 608 418 533 611 597 526 z m 706 81 b 728 132 718 93 728 111 b 661 200 728 171 699 200 b 618 185 642 200 631 194 b 444 121 571 146 515 121 b 233 307 336 121 251 188 l 693 307 b 772 388 736 307 772 340 b 424 749 772 557 657 749 b 65 367 214 749 65 576 l 65 364 b 442 -17 65 138 229 -17 b 706 81 556 -17 639 21 z "},"Ë":{"ha":931,"x_min":0,"x_max":0,"o":"m 626 1226 b 535 1140 575 1226 535 1190 l 535 1131 b 626 1046 535 1081 575 1046 b 717 1131 676 1046 717 1081 l 717 1140 b 626 1226 717 1190 676 1226 z m 350 1226 b 258 1140 299 1226 258 1190 l 258 1131 b 350 1046 258 1081 299 1046 b 440 1131 400 1046 440 1081 l 440 1140 b 350 1226 440 1190 400 1226 z m 211 0 l 783 0 b 860 76 825 0 860 33 b 783 153 860 118 825 153 l 296 153 l 296 414 l 714 414 b 790 489 756 414 790 447 b 714 567 790 532 756 567 l 296 567 l 296 819 l 776 819 b 853 896 818 819 853 853 b 776 972 853 938 818 972 l 211 972 b 125 886 163 972 125 935 l 125 86 b 211 0 125 38 163 0 z "},"ë":{"ha":839,"x_min":0,"x_max":0,"o":"m 560 1000 b 468 914 508 1000 468 964 l 468 904 b 560 819 468 854 508 819 b 650 904 610 819 650 854 l 650 914 b 560 1000 650 964 610 1000 z m 283 1000 b 192 914 232 1000 192 964 l 192 904 b 283 819 192 854 232 819 b 374 904 333 819 374 854 l 374 914 b 283 1000 374 964 333 1000 z m 232 418 b 422 611 247 532 319 611 b 608 418 533 611 597 526 z m 706 81 b 728 132 718 93 728 111 b 661 200 728 171 699 200 b 618 185 642 200 631 194 b 444 121 571 146 515 121 b 233 307 336 121 251 188 l 693 307 b 772 388 736 307 772 340 b 424 749 772 557 657 749 b 65 367 214 749 65 576 l 65 364 b 442 -17 65 138 229 -17 b 706 81 556 -17 639 21 z "},"Ė":{"ha":931,"x_min":0,"x_max":0,"o":"m 211 0 l 783 0 b 860 76 825 0 860 33 b 783 153 860 118 825 153 l 296 153 l 296 414 l 714 414 b 790 489 756 414 790 447 b 714 567 790 532 756 567 l 296 567 l 296 819 l 776 819 b 853 896 818 819 853 853 b 776 972 853 938 818 972 l 211 972 b 125 886 163 972 125 935 l 125 86 b 211 0 125 38 163 0 z m 582 1140 b 488 1226 582 1192 539 1226 b 394 1140 436 1226 394 1192 l 394 1131 b 488 1046 394 1079 436 1046 b 582 1131 539 1046 582 1079 z "},"ė":{"ha":839,"x_min":0,"x_max":0,"o":"m 232 418 b 422 611 247 532 319 611 b 608 418 533 611 597 526 z m 706 81 b 728 132 718 93 728 111 b 661 200 728 171 699 200 b 618 185 642 200 631 194 b 444 121 571 146 515 121 b 233 307 336 121 251 188 l 693 307 b 772 388 736 307 772 340 b 424 749 772 557 657 749 b 65 367 214 749 65 576 l 65 364 b 442 -17 65 138 229 -17 b 706 81 556 -17 639 21 z m 515 914 b 421 1000 515 965 472 1000 b 328 914 369 1000 328 965 l 328 904 b 421 819 328 853 369 819 b 515 904 472 819 515 853 z "},"È":{"ha":931,"x_min":0,"x_max":0,"o":"m 211 0 l 783 0 b 860 76 825 0 860 33 b 783 153 860 118 825 153 l 296 153 l 296 414 l 714 414 b 790 489 756 414 790 447 b 714 567 790 532 756 567 l 296 567 l 296 819 l 776 819 b 853 896 818 819 853 853 b 776 972 853 938 818 972 l 211 972 b 125 886 163 972 125 935 l 125 86 b 211 0 125 38 163 0 z m 492 1046 b 535 1075 517 1046 535 1057 b 522 1106 535 1085 528 1097 l 443 1228 b 376 1268 428 1253 406 1268 b 276 1214 332 1268 276 1240 b 300 1172 276 1199 286 1185 l 394 1083 b 492 1046 426 1053 453 1046 z "},"è":{"ha":839,"x_min":0,"x_max":0,"o":"m 232 418 b 422 611 247 532 319 611 b 608 418 533 611 597 526 z m 706 81 b 728 132 718 93 728 111 b 661 200 728 171 699 200 b 618 185 642 200 631 194 b 444 121 571 146 515 121 b 233 307 336 121 251 188 l 693 307 b 772 388 736 307 772 340 b 424 749 772 557 657 749 b 65 367 214 749 65 576 l 65 364 b 442 -17 65 138 229 -17 b 706 81 556 -17 639 21 z m 425 819 b 468 849 450 819 468 831 b 456 879 468 858 461 871 l 376 1001 b 310 1042 361 1026 339 1042 b 210 988 265 1042 210 1014 b 233 946 210 972 219 958 l 328 857 b 425 819 360 826 386 819 z "},"Ē":{"ha":931,"x_min":0,"x_max":0,"o":"m 211 0 l 783 0 b 860 76 825 0 860 33 b 783 153 860 118 825 153 l 296 153 l 296 414 l 714 414 b 790 489 756 414 790 447 b 714 567 790 532 756 567 l 296 567 l 296 819 l 776 819 b 853 896 818 819 853 853 b 776 972 853 938 818 972 l 211 972 b 125 886 163 972 125 935 l 125 86 b 211 0 125 38 163 0 z m 672 1068 b 733 1129 706 1068 733 1096 b 672 1190 733 1163 706 1190 l 303 1190 b 242 1129 269 1190 242 1163 b 303 1068 242 1096 269 1068 z "},"ē":{"ha":839,"x_min":0,"x_max":0,"o":"m 232 418 b 422 611 247 532 319 611 b 608 418 533 611 597 526 z m 706 81 b 728 132 718 93 728 111 b 661 200 728 171 699 200 b 618 185 642 200 631 194 b 444 121 571 146 515 121 b 233 307 336 121 251 188 l 693 307 b 772 388 736 307 772 340 b 424 749 772 557 657 749 b 65 367 214 749 65 576 l 65 364 b 442 -17 65 138 229 -17 b 706 81 556 -17 639 21 z m 606 842 b 667 903 639 842 667 869 b 606 964 667 936 639 964 l 236 964 b 175 903 203 964 175 936 b 236 842 175 869 203 842 z "},"Ę":{"ha":931,"x_min":0,"x_max":0,"o":"m 211 0 l 688 0 b 631 -114 653 -37 631 -72 b 810 -231 631 -199 721 -231 b 865 -187 846 -231 865 -214 b 818 -144 865 -165 850 -151 b 758 -87 781 -135 758 -121 b 817 4 758 -56 776 -31 b 860 82 844 31 860 46 b 782 153 860 119 826 153 l 296 153 l 296 414 l 714 414 b 790 489 756 414 790 447 b 714 567 790 532 756 567 l 296 567 l 296 819 l 776 819 b 853 896 818 819 853 853 b 776 972 853 938 818 972 l 211 972 b 125 886 163 972 125 935 l 125 86 b 211 0 125 38 163 0 z "},"ę":{"ha":839,"x_min":0,"x_max":0,"o":"m 772 388 b 424 749 772 557 657 749 b 65 367 214 749 65 576 l 65 364 b 442 -17 65 138 229 -17 b 506 -11 464 -17 485 -14 b 458 -111 475 -46 458 -78 b 638 -231 458 -193 538 -231 b 692 -187 674 -231 692 -214 b 646 -144 692 -165 676 -151 b 585 -81 607 -135 585 -121 b 646 25 585 -49 597 -21 b 706 81 669 49 678 54 b 728 132 718 94 728 111 b 661 200 728 171 699 200 b 618 185 642 200 631 194 b 444 121 571 146 515 121 b 233 307 336 121 251 188 l 693 307 b 772 388 736 307 772 340 z m 232 418 b 422 611 247 532 319 611 b 608 418 533 611 597 526 z "},"Ð":{"ha":1128,"x_min":0,"x_max":0,"o":"m 131 565 b 56 489 89 565 56 532 b 131 413 56 447 89 413 l 167 413 l 167 86 b 253 0 167 38 204 0 l 529 0 b 1046 486 835 0 1046 213 l 1046 489 b 529 972 1046 763 835 972 l 253 972 b 167 886 204 972 167 935 l 167 565 z m 336 817 l 529 817 b 867 486 733 817 867 676 l 867 483 b 529 156 867 293 733 156 l 336 156 l 336 413 l 513 413 b 588 489 554 413 588 447 b 513 565 588 532 554 565 l 336 565 z "},"ð":{"ha":892,"x_min":0,"x_max":0,"o":"m 581 618 b 388 675 521 654 467 675 b 65 346 206 675 65 542 b 439 -17 65 146 224 -17 b 824 360 679 -17 824 157 b 703 699 824 483 786 578 l 578 876 l 678 919 b 714 969 699 928 714 944 b 661 1024 714 999 690 1024 b 638 1018 654 1024 646 1021 l 517 965 l 501 988 b 435 1025 486 1010 465 1025 b 358 949 392 1025 358 990 b 372 904 358 932 363 918 l 246 849 b 208 799 224 840 208 824 b 261 746 208 769 232 746 b 285 750 269 746 278 747 l 436 817 z m 658 343 b 446 126 658 224 575 126 b 231 342 319 126 231 226 b 440 551 231 461 313 551 b 658 343 569 551 658 458 z "},"Ğ":{"ha":1089,"x_min":0,"x_max":0,"o":"m 586 -17 b 932 89 732 -17 849 33 b 992 197 972 114 992 149 l 992 457 b 906 543 992 506 954 543 l 635 543 b 558 468 593 543 558 510 b 635 394 558 426 593 394 l 826 394 l 826 213 b 592 139 767 168 683 139 b 261 486 393 139 261 286 l 261 489 b 576 832 261 675 397 832 b 813 756 682 832 750 801 b 865 736 826 746 843 736 b 950 821 913 736 950 775 b 915 890 950 854 932 878 b 583 989 826 954 729 989 b 82 486 290 989 82 758 l 82 483 b 586 -17 82 200 282 -17 z m 572 1064 b 785 1175 671 1064 744 1104 b 796 1218 792 1189 796 1204 b 738 1278 796 1251 771 1278 b 685 1246 708 1278 694 1263 b 572 1182 665 1208 632 1182 b 460 1246 513 1182 481 1208 b 407 1278 450 1263 436 1278 b 349 1218 374 1278 349 1251 b 360 1175 349 1204 353 1189 b 572 1064 400 1104 475 1064 z "},"ğ":{"ha":932,"x_min":0,"x_max":0,"o":"m 432 -225 b 733 -126 564 -225 667 -193 b 826 150 794 -65 826 26 l 826 657 b 742 742 826 704 789 742 b 658 658 696 742 658 704 l 658 624 b 401 749 601 692 525 749 b 68 404 231 749 68 621 l 68 401 b 401 58 68 186 229 58 b 660 193 522 58 599 114 l 660 136 b 428 -89 660 -11 578 -89 b 203 -31 343 -89 269 -68 b 172 -24 194 -26 185 -24 b 101 -93 133 -24 101 -56 b 149 -160 101 -125 119 -149 b 432 -225 238 -203 329 -225 z m 446 201 b 238 403 331 201 238 283 l 238 406 b 446 607 238 526 329 607 b 661 406 563 607 661 525 l 661 403 b 446 201 661 283 563 201 z m 453 824 b 665 935 551 824 625 864 b 676 978 672 949 676 964 b 618 1038 676 1011 651 1038 b 565 1006 589 1038 575 1022 b 453 942 546 968 513 942 b 340 1006 393 942 361 968 b 288 1038 331 1022 317 1038 b 229 978 254 1038 229 1011 b 240 935 229 964 233 949 b 453 824 281 864 356 824 z "},"Ģ":{"ha":1089,"x_min":0,"x_max":0,"o":"m 560 -235 b 472 -324 561 -281 535 -310 b 443 -353 453 -328 443 -337 b 479 -382 443 -368 454 -382 b 599 -336 518 -382 568 -364 b 658 -186 639 -301 658 -256 l 658 -182 b 569 -85 658 -124 624 -85 b 485 -158 519 -85 485 -115 l 485 -161 b 560 -235 485 -204 518 -228 z m 586 -17 b 932 89 732 -17 849 33 b 992 197 972 114 992 149 l 992 457 b 906 543 992 506 954 543 l 635 543 b 558 468 593 543 558 510 b 635 394 558 426 593 394 l 826 394 l 826 213 b 592 139 767 168 683 139 b 261 486 393 139 261 286 l 261 489 b 576 832 261 675 397 832 b 813 756 682 832 750 801 b 865 736 826 746 843 736 b 950 821 913 736 950 775 b 915 890 950 854 932 878 b 583 989 826 954 729 989 b 82 486 290 989 82 758 l 82 483 b 586 -17 82 200 282 -17 z "},"ģ":{"ha":932,"x_min":0,"x_max":0,"o":"m 463 968 b 550 1057 461 1014 488 1043 b 579 1086 569 1061 579 1071 b 543 1115 579 1101 568 1115 b 424 1069 504 1115 454 1097 b 364 919 383 1035 364 989 l 364 915 b 453 818 364 857 399 818 b 538 892 503 818 538 849 l 538 894 b 463 968 538 938 504 961 z m 432 -225 b 733 -126 564 -225 667 -193 b 826 150 794 -65 826 26 l 826 657 b 742 742 826 704 789 742 b 658 658 696 742 658 704 l 658 624 b 401 749 601 692 525 749 b 68 404 231 749 68 621 l 68 401 b 401 58 68 186 229 58 b 660 193 522 58 599 114 l 660 136 b 428 -89 660 -11 578 -89 b 203 -31 343 -89 269 -68 b 172 -24 194 -26 185 -24 b 101 -93 133 -24 101 -56 b 149 -160 101 -125 119 -149 b 432 -225 238 -203 329 -225 z m 446 201 b 238 403 331 201 238 283 l 238 406 b 446 607 238 526 329 607 b 661 406 563 607 661 525 l 661 403 b 446 201 661 283 563 201 z "},"Ġ":{"ha":1089,"x_min":0,"x_max":0,"o":"m 586 -17 b 932 89 732 -17 849 33 b 992 197 972 114 992 149 l 992 457 b 906 543 992 506 954 543 l 635 543 b 558 468 593 543 558 510 b 635 394 558 426 593 394 l 826 394 l 826 213 b 592 139 767 168 683 139 b 261 486 393 139 261 286 l 261 489 b 576 832 261 675 397 832 b 813 756 682 832 750 801 b 865 736 826 746 843 736 b 950 821 913 736 950 775 b 915 890 950 854 932 878 b 583 989 826 954 729 989 b 82 486 290 989 82 758 l 82 483 b 586 -17 82 200 282 -17 z m 667 1154 b 572 1240 667 1206 624 1240 b 479 1154 521 1240 479 1206 l 479 1144 b 572 1060 479 1093 521 1060 b 667 1144 624 1060 667 1093 z "},"ġ":{"ha":932,"x_min":0,"x_max":0,"o":"m 432 -225 b 733 -126 564 -225 667 -193 b 826 150 794 -65 826 26 l 826 657 b 742 742 826 704 789 742 b 658 658 696 742 658 704 l 658 624 b 401 749 601 692 525 749 b 68 404 231 749 68 621 l 68 401 b 401 58 68 186 229 58 b 660 193 522 58 599 114 l 660 136 b 428 -89 660 -11 578 -89 b 203 -31 343 -89 269 -68 b 172 -24 194 -26 185 -24 b 101 -93 133 -24 101 -56 b 149 -160 101 -125 119 -149 b 432 -225 238 -203 329 -225 z m 446 201 b 238 403 331 201 238 283 l 238 406 b 446 607 238 526 329 607 b 661 406 563 607 661 525 l 661 403 b 446 201 661 283 563 201 z m 547 914 b 453 1000 547 965 504 1000 b 360 914 401 1000 360 965 l 360 904 b 453 819 360 853 401 819 b 547 904 504 819 547 853 z "},"Ħ":{"ha":1081,"x_min":0,"x_max":0,"o":"m 138 78 b 224 -7 138 31 175 -7 b 308 78 271 -7 308 31 l 308 410 l 772 410 l 772 78 b 857 -7 772 31 810 -7 b 943 78 906 -7 943 31 l 943 710 l 988 710 b 1049 769 1021 710 1049 738 b 988 831 1049 803 1021 831 l 943 831 l 943 894 b 857 979 943 942 906 979 b 772 894 810 979 772 942 l 772 831 l 308 831 l 308 894 b 224 979 308 942 271 979 b 138 894 175 979 138 942 l 138 831 l 92 831 b 31 769 58 831 31 803 b 92 710 31 738 58 710 l 138 710 z m 308 568 l 308 710 l 772 710 l 772 568 z "},"ħ":{"ha":861,"x_min":0,"x_max":0,"o":"m 106 76 b 189 -7 106 29 143 -7 b 274 76 236 -7 274 29 l 274 414 b 439 596 274 528 342 596 b 596 417 539 596 596 531 l 596 76 b 681 -7 596 29 633 -7 b 764 76 728 -7 764 29 l 764 468 b 503 749 764 638 668 749 b 274 621 389 749 321 689 l 274 836 l 458 836 b 508 886 486 836 508 858 b 458 936 508 913 486 936 l 274 936 l 274 938 b 189 1021 274 983 236 1021 b 106 938 142 1021 106 983 l 106 936 l 53 936 b 3 886 25 936 3 913 b 53 836 3 858 25 836 l 106 836 z "},"Í":{"ha":440,"x_min":0,"x_max":0,"o":"m 135 78 b 221 -7 135 31 172 -7 b 306 78 268 -7 306 31 l 306 894 b 221 979 306 942 268 979 b 135 894 172 979 135 942 z m 217 1046 b 315 1083 256 1046 282 1053 l 408 1172 b 432 1214 422 1185 432 1199 b 332 1268 432 1240 376 1268 b 265 1228 303 1268 281 1253 l 186 1106 b 175 1075 181 1097 175 1085 b 217 1046 175 1057 193 1046 z "},"í":{"ha":397,"x_min":0,"x_max":0,"o":"m 194 819 b 293 857 233 819 260 826 l 386 946 b 410 988 400 958 410 972 b 310 1042 410 1014 354 1042 b 243 1001 281 1042 258 1026 l 164 879 b 153 849 158 871 153 858 b 194 819 153 831 171 819 z m 115 76 b 199 -7 115 29 153 -7 b 283 76 246 -7 283 29 l 283 657 b 199 742 283 704 246 742 b 115 657 151 742 115 704 z "},"Ĭ":{"ha":440,"x_min":0,"x_max":0,"o":"m 135 78 b 221 -7 135 31 172 -7 b 306 78 268 -7 306 31 l 306 894 b 221 979 306 942 268 979 b 135 894 172 979 135 942 z m 221 1050 b 433 1161 319 1050 393 1090 b 444 1204 440 1175 444 1190 b 386 1264 444 1238 419 1264 b 333 1232 357 1264 343 1249 b 221 1168 314 1194 281 1168 b 108 1232 161 1168 129 1194 b 56 1264 99 1249 85 1264 b -3 1204 22 1264 -3 1238 b 8 1161 -3 1190 1 1175 b 221 1050 49 1090 124 1050 z "},"ĭ":{"ha":397,"x_min":0,"x_max":0,"o":"m 115 76 b 199 -7 115 29 153 -7 b 283 76 246 -7 283 29 l 283 657 b 199 742 283 704 246 742 b 115 657 151 742 115 704 z m 199 824 b 411 935 297 824 371 864 b 422 978 418 949 422 964 b 364 1038 422 1011 397 1038 b 311 1006 335 1038 321 1022 b 199 942 292 968 258 942 b 86 1006 139 942 107 968 b 33 1038 76 1022 63 1038 b -25 978 0 1038 -25 1011 b -14 935 -25 964 -21 949 b 199 824 26 864 101 824 z "},"Î":{"ha":440,"x_min":0,"x_max":0,"o":"m 135 78 b 221 -7 135 31 172 -7 b 306 78 268 -7 306 31 l 306 894 b 221 979 306 942 268 979 b 135 894 172 979 135 942 z m 219 1146 l 292 1083 b 394 1046 329 1053 356 1046 b 435 1074 417 1046 435 1056 b 418 1107 435 1083 426 1096 l 326 1222 b 246 1263 307 1247 285 1263 l 196 1263 b 115 1222 157 1263 136 1247 l 24 1107 b 7 1074 15 1096 7 1083 b 44 1046 7 1056 24 1046 b 147 1083 83 1046 111 1053 z "},"î":{"ha":397,"x_min":0,"x_max":0,"o":"m 197 919 l 269 857 b 372 819 307 826 333 819 b 413 847 394 819 413 829 b 396 881 413 857 404 869 l 304 996 b 224 1036 285 1021 263 1036 l 174 1036 b 93 996 135 1036 114 1021 l 1 881 b -15 847 -7 869 -15 857 b 22 819 -15 829 1 819 b 125 857 61 819 89 826 z m 115 76 b 199 -7 115 29 153 -7 b 283 76 246 -7 283 29 l 283 657 b 199 742 283 704 246 742 b 115 657 151 742 115 704 z "},"Ï":{"ha":440,"x_min":0,"x_max":0,"o":"m 135 78 b 221 -7 135 31 172 -7 b 306 78 268 -7 306 31 l 306 894 b 221 979 306 942 268 979 b 135 894 172 979 135 942 z m 360 1226 b 268 1140 308 1226 268 1190 l 268 1131 b 360 1046 268 1081 308 1046 b 450 1131 410 1046 450 1081 l 450 1140 b 360 1226 450 1190 410 1226 z m 83 1226 b -8 1140 32 1226 -8 1190 l -8 1131 b 83 1046 -8 1081 32 1046 b 174 1131 133 1046 174 1081 l 174 1140 b 83 1226 174 1190 133 1226 z "},"ï":{"ha":397,"x_min":0,"x_max":0,"o":"m 338 1000 b 246 914 286 1000 246 964 l 246 904 b 338 819 246 854 286 819 b 428 904 388 819 428 854 l 428 914 b 338 1000 428 964 388 1000 z m 61 1000 b -31 914 10 1000 -31 964 l -31 904 b 61 819 -31 854 10 819 b 151 904 111 819 151 854 l 151 914 b 61 1000 151 964 111 1000 z m 115 76 b 199 -7 115 29 153 -7 b 283 76 246 -7 283 29 l 283 657 b 199 742 283 704 246 742 b 115 657 151 742 115 704 z "},"İ":{"ha":440,"x_min":0,"x_max":0,"o":"m 135 78 b 221 -7 135 31 172 -7 b 306 78 268 -7 306 31 l 306 894 b 221 979 306 942 268 979 b 135 894 172 979 135 942 z m 315 1140 b 221 1226 315 1192 272 1226 b 128 1140 169 1226 128 1192 l 128 1131 b 221 1046 128 1079 169 1046 b 315 1131 272 1046 315 1079 z "},"ı":{"ha":397,"x_min":0,"x_max":0,"o":"m 115 76 b 199 -7 115 29 153 -7 b 283 76 246 -7 283 29 l 283 657 b 199 742 283 704 246 742 b 115 657 151 742 115 704 z "},"Ì":{"ha":440,"x_min":0,"x_max":0,"o":"m 135 78 b 221 -7 135 31 172 -7 b 306 78 268 -7 306 31 l 306 894 b 221 979 306 942 268 979 b 135 894 172 979 135 942 z m 225 1046 b 268 1075 250 1046 268 1057 b 256 1106 268 1085 261 1097 l 176 1228 b 110 1268 161 1253 139 1268 b 10 1214 65 1268 10 1240 b 33 1172 10 1199 19 1185 l 128 1083 b 225 1046 160 1053 186 1046 z "},"ì":{"ha":397,"x_min":0,"x_max":0,"o":"m 115 76 b 199 -7 115 29 153 -7 b 283 76 246 -7 283 29 l 283 657 b 199 742 283 704 246 742 b 115 657 151 742 115 704 z m 203 819 b 246 849 228 819 246 831 b 233 879 246 858 239 871 l 154 1001 b 88 1042 139 1026 117 1042 b -12 988 43 1042 -12 1014 b 11 946 -12 972 -3 958 l 106 857 b 203 819 138 826 164 819 z "},"Ī":{"ha":440,"x_min":0,"x_max":0,"o":"m 135 78 b 221 -7 135 31 172 -7 b 306 78 268 -7 306 31 l 306 894 b 221 979 306 942 268 979 b 135 894 172 979 135 942 z m 406 1068 b 467 1129 439 1068 467 1096 b 406 1190 467 1163 439 1190 l 36 1190 b -25 1129 3 1190 -25 1163 b 36 1068 -25 1096 3 1068 z "},"ī":{"ha":397,"x_min":0,"x_max":0,"o":"m 115 76 b 199 -7 115 29 153 -7 b 283 76 246 -7 283 29 l 283 657 b 199 742 283 704 246 742 b 115 657 151 742 115 704 z m 383 842 b 444 903 417 842 444 869 b 383 964 444 936 417 964 l 14 964 b -47 903 -19 964 -47 936 b 14 842 -47 869 -19 842 z "},"Į":{"ha":440,"x_min":0,"x_max":0,"o":"m 93 -114 b 272 -231 93 -197 182 -231 b 328 -187 308 -231 328 -214 b 281 -144 328 -165 313 -151 b 219 -87 242 -135 219 -121 b 274 7 219 -60 233 -35 b 306 76 297 31 306 49 l 306 894 b 221 979 306 942 268 979 b 135 894 172 979 135 942 l 135 72 b 160 15 135 49 144 29 b 93 -114 115 -32 93 -69 z "},"į":{"ha":397,"x_min":0,"x_max":0,"o":"m 283 657 b 199 742 283 704 246 742 b 115 657 151 742 115 704 l 115 71 b 140 15 115 49 125 29 b 67 -118 97 -24 67 -68 b 244 -231 67 -197 156 -231 b 300 -187 281 -231 300 -214 b 254 -144 300 -165 285 -151 b 194 -89 215 -135 194 -121 b 250 6 194 -60 210 -33 b 283 72 274 28 283 44 z m 103 922 b 199 839 103 872 144 839 b 294 922 253 839 294 872 l 294 931 b 199 1013 294 981 253 1013 b 103 931 144 1013 103 981 z "},"Ķ":{"ha":990,"x_min":0,"x_max":0,"o":"m 494 -224 b 407 -312 496 -269 469 -299 b 378 -342 388 -317 378 -326 b 414 -371 378 -357 389 -371 b 533 -325 453 -371 503 -353 b 593 -175 574 -290 593 -244 l 593 -171 b 504 -74 593 -112 558 -74 b 419 -147 454 -74 419 -104 l 419 -150 b 494 -224 419 -193 453 -217 z m 125 78 b 211 -7 125 31 163 -7 b 296 78 258 -7 296 31 l 296 279 l 454 432 l 767 33 b 839 -7 785 10 806 -7 b 925 76 888 -7 925 29 b 901 138 925 103 915 119 l 574 544 l 876 836 b 907 900 896 854 907 874 b 828 979 907 942 875 979 b 757 947 797 979 776 968 l 296 483 l 296 894 b 211 979 296 942 258 979 b 125 894 163 979 125 942 z "},"ķ":{"ha":806,"x_min":0,"x_max":0,"o":"m 410 -231 b 322 -319 411 -276 385 -306 b 293 -349 303 -324 293 -333 b 329 -378 293 -364 304 -378 b 449 -332 368 -378 418 -360 b 508 -182 489 -297 508 -251 l 508 -178 b 419 -81 508 -119 474 -81 b 335 -154 369 -81 335 -111 l 335 -157 b 410 -231 335 -200 368 -224 z m 106 76 b 189 -7 106 29 143 -7 b 274 76 236 -7 274 29 l 274 204 l 385 310 l 594 31 b 668 -7 615 4 635 -7 b 747 69 711 -7 747 24 b 725 125 747 89 740 104 l 503 415 l 697 594 b 735 665 721 617 735 638 b 661 742 735 706 706 742 b 589 706 632 742 611 728 l 274 396 l 274 938 b 189 1021 274 983 236 1021 b 106 938 142 1021 106 983 z "},"Ĺ":{"ha":860,"x_min":0,"x_max":0,"o":"m 235 1046 b 333 1083 274 1046 300 1053 l 426 1172 b 450 1214 440 1185 450 1199 b 350 1268 450 1240 394 1268 b 283 1228 321 1268 299 1253 l 204 1106 b 193 1075 199 1097 193 1085 b 235 1046 193 1057 211 1046 z m 125 86 b 211 0 125 38 163 0 l 736 0 b 814 78 779 0 814 35 b 736 156 814 121 779 156 l 296 156 l 296 894 b 211 979 296 942 258 979 b 125 894 163 979 125 942 z "},"ĺ":{"ha":397,"x_min":0,"x_max":0,"o":"m 196 1069 b 294 1107 235 1069 261 1076 l 388 1196 b 411 1238 401 1208 411 1222 b 311 1292 411 1264 356 1292 b 244 1251 282 1292 260 1276 l 165 1129 b 154 1099 160 1121 154 1108 b 196 1069 154 1081 172 1069 z m 115 76 b 199 -7 115 29 153 -7 b 283 76 246 -7 283 29 l 283 938 b 199 1021 283 983 246 1021 b 115 938 151 1021 115 983 z "},"Ľ":{"ha":860,"x_min":0,"x_max":0,"o":"m 413 742 b 449 700 411 715 426 700 b 489 735 471 700 482 713 l 540 903 b 546 935 544 915 546 926 b 503 975 546 961 528 975 l 478 975 b 417 914 442 975 418 949 z m 125 86 b 211 0 125 38 163 0 l 736 0 b 814 78 779 0 814 35 b 736 156 814 121 779 156 l 296 156 l 296 894 b 211 979 296 942 258 979 b 125 894 163 979 125 942 z "},"ľ":{"ha":397,"x_min":0,"x_max":0,"o":"m 361 788 b 397 746 360 761 375 746 b 438 781 419 746 431 758 l 489 949 b 494 981 493 961 494 972 b 451 1021 494 1007 476 1021 l 426 1021 b 365 960 390 1021 367 994 z m 115 76 b 199 -7 115 29 153 -7 b 283 76 246 -7 283 29 l 283 938 b 199 1021 283 983 246 1021 b 115 938 151 1021 115 983 z "},"Ļ":{"ha":860,"x_min":0,"x_max":0,"o":"m 451 -231 b 364 -319 453 -276 426 -306 b 335 -349 344 -324 335 -333 b 371 -378 335 -364 346 -378 b 490 -332 410 -378 460 -360 b 550 -182 531 -297 550 -251 l 550 -178 b 461 -81 550 -119 515 -81 b 376 -154 411 -81 376 -111 l 376 -157 b 451 -231 376 -200 410 -224 z m 125 86 b 211 0 125 38 163 0 l 736 0 b 814 78 779 0 814 35 b 736 156 814 121 779 156 l 296 156 l 296 894 b 211 979 296 942 258 979 b 125 894 163 979 125 942 z "},"ļ":{"ha":397,"x_min":0,"x_max":0,"o":"m 188 -231 b 100 -319 189 -276 163 -306 b 71 -349 81 -324 71 -333 b 107 -378 71 -364 82 -378 b 226 -332 146 -378 196 -360 b 286 -182 267 -297 286 -251 l 286 -178 b 197 -81 286 -119 251 -81 b 113 -154 147 -81 113 -111 l 113 -157 b 188 -231 113 -200 146 -224 z m 115 76 b 199 -7 115 29 153 -7 b 283 76 246 -7 283 29 l 283 938 b 199 1021 283 983 246 1021 b 115 938 151 1021 115 983 z "},"Ŀ":{"ha":860,"x_min":0,"x_max":0,"o":"m 125 86 b 211 0 125 38 163 0 l 736 0 b 814 78 779 0 814 35 b 736 156 814 121 779 156 l 296 156 l 296 894 b 211 979 296 942 258 979 b 125 894 163 979 125 942 z m 754 529 b 660 615 754 581 711 615 b 567 529 608 615 567 581 l 567 519 b 660 435 567 468 608 435 b 754 519 711 435 754 468 z "},"ŀ":{"ha":510,"x_min":0,"x_max":0,"o":"m 531 528 b 454 604 531 571 499 604 b 378 528 410 604 378 571 l 378 513 b 454 436 378 469 410 436 b 531 513 499 436 531 469 z m 115 76 b 199 -7 115 29 153 -7 b 283 76 246 -7 283 29 l 283 938 b 199 1021 283 983 246 1021 b 115 938 151 1021 115 983 z "},"Ł":{"ha":901,"x_min":0,"x_max":0,"o":"m 569 508 b 624 581 600 517 624 543 b 549 657 624 622 590 657 b 521 653 543 657 531 656 l 336 597 l 336 894 b 251 979 336 942 299 979 b 167 894 204 979 167 942 l 167 546 l 110 529 b 56 457 78 519 56 493 b 131 379 56 414 88 379 b 158 383 136 379 149 382 l 167 386 l 167 86 b 253 0 167 38 204 0 l 778 0 b 856 78 821 0 856 35 b 778 156 856 121 821 156 l 336 156 l 336 438 z "},"ł":{"ha":481,"x_min":0,"x_max":0,"o":"m 385 481 b 439 553 417 489 439 515 b 364 629 439 594 407 629 b 336 625 358 629 346 628 l 324 621 l 324 938 b 240 1021 324 983 288 1021 b 157 938 193 1021 157 983 l 157 571 b 96 553 122 561 96 553 b 42 481 65 543 42 518 b 117 404 42 438 74 404 b 144 408 122 404 135 406 l 157 411 l 157 76 b 240 -7 157 29 194 -7 b 324 76 288 -7 324 29 l 324 461 z "},"Ń":{"ha":1097,"x_min":0,"x_max":0,"o":"m 543 1046 b 642 1083 582 1046 608 1053 l 735 1172 b 758 1214 749 1185 758 1199 b 658 1268 758 1240 703 1268 b 592 1228 629 1268 607 1253 l 513 1106 b 501 1075 507 1097 501 1085 b 543 1046 501 1057 519 1046 z m 125 76 b 210 -7 125 31 163 -7 b 293 76 256 -7 293 31 l 293 693 l 793 46 b 882 -6 817 15 842 -6 l 889 -6 b 972 79 936 -6 972 32 l 972 896 b 888 979 972 942 935 979 b 804 896 842 979 804 942 l 804 299 l 318 928 b 229 978 294 957 271 978 l 211 978 b 125 892 163 978 125 939 z "},"ń":{"ha":861,"x_min":0,"x_max":0,"o":"m 429 819 b 528 857 468 819 494 826 l 621 946 b 644 988 635 958 644 972 b 544 1042 644 1014 589 1042 b 478 1001 515 1042 493 1026 l 399 879 b 388 849 393 871 388 858 b 429 819 388 831 406 819 z m 106 76 b 189 -7 106 29 143 -7 b 274 76 236 -7 274 29 l 274 414 b 439 596 274 528 342 596 b 596 417 539 596 596 531 l 596 76 b 681 -7 596 29 633 -7 b 764 76 728 -7 764 29 l 764 468 b 503 749 764 638 668 749 b 274 621 389 749 321 689 l 274 657 b 189 742 274 704 236 742 b 106 657 142 742 106 704 z "},"Ň":{"ha":1097,"x_min":0,"x_max":0,"o":"m 550 1164 l 478 1226 b 375 1264 442 1257 414 1264 b 335 1236 353 1264 335 1254 b 351 1203 335 1225 343 1214 l 443 1088 b 524 1047 464 1063 485 1047 l 574 1047 b 654 1088 613 1047 635 1063 l 746 1203 b 763 1236 754 1214 763 1225 b 725 1264 763 1254 747 1264 b 622 1226 686 1264 660 1257 z m 125 76 b 210 -7 125 31 163 -7 b 293 76 256 -7 293 31 l 293 693 l 793 46 b 882 -6 817 15 842 -6 l 889 -6 b 972 79 936 -6 972 32 l 972 896 b 888 979 972 942 935 979 b 804 896 842 979 804 942 l 804 299 l 318 928 b 229 978 294 957 271 978 l 211 978 b 125 892 163 978 125 939 z "},"ň":{"ha":861,"x_min":0,"x_max":0,"o":"m 435 938 l 363 1000 b 260 1038 326 1031 299 1038 b 219 1010 238 1038 219 1028 b 236 976 219 999 228 988 l 328 861 b 408 821 349 836 369 821 l 458 821 b 539 861 497 821 519 836 l 631 976 b 647 1010 639 988 647 999 b 610 1038 647 1028 632 1038 b 507 1000 571 1038 544 1031 z m 106 76 b 189 -7 106 29 143 -7 b 274 76 236 -7 274 29 l 274 414 b 439 596 274 528 342 596 b 596 417 539 596 596 531 l 596 76 b 681 -7 596 29 633 -7 b 764 76 728 -7 764 29 l 764 468 b 503 749 764 638 668 749 b 274 621 389 749 321 689 l 274 657 b 189 742 274 704 236 742 b 106 657 142 742 106 704 z "},"Ņ":{"ha":1097,"x_min":0,"x_max":0,"o":"m 536 -224 b 449 -312 538 -269 511 -299 b 419 -342 429 -317 419 -326 b 456 -371 419 -357 431 -371 b 575 -325 494 -371 544 -353 b 635 -175 615 -290 635 -244 l 635 -171 b 546 -74 635 -112 600 -74 b 461 -147 496 -74 461 -104 l 461 -150 b 536 -224 461 -193 494 -217 z m 125 76 b 210 -7 125 31 163 -7 b 293 76 256 -7 293 31 l 293 693 l 793 46 b 882 -6 817 15 842 -6 l 889 -6 b 972 79 936 -6 972 32 l 972 896 b 888 979 972 942 935 979 b 804 896 842 979 804 942 l 804 299 l 318 928 b 229 978 294 957 271 978 l 211 978 b 125 892 163 978 125 939 z "},"ņ":{"ha":861,"x_min":0,"x_max":0,"o":"m 422 -231 b 335 -319 424 -276 397 -306 b 306 -349 315 -324 306 -333 b 342 -378 306 -364 317 -378 b 461 -332 381 -378 431 -360 b 521 -182 501 -297 521 -251 l 521 -178 b 432 -81 521 -119 486 -81 b 347 -154 382 -81 347 -111 l 347 -157 b 422 -231 347 -200 381 -224 z m 106 76 b 189 -7 106 29 143 -7 b 274 76 236 -7 274 29 l 274 414 b 439 596 274 528 342 596 b 596 417 539 596 596 531 l 596 76 b 681 -7 596 29 633 -7 b 764 76 728 -7 764 29 l 764 468 b 503 749 764 638 668 749 b 274 621 389 749 321 689 l 274 657 b 189 742 274 704 236 742 b 106 657 142 742 106 704 z "},"Ñ":{"ha":1097,"x_min":0,"x_max":0,"o":"m 125 76 b 210 -7 125 31 163 -7 b 293 76 256 -7 293 31 l 293 693 l 793 46 b 882 -6 817 15 842 -6 l 889 -6 b 972 79 936 -6 972 32 l 972 896 b 888 979 972 942 935 979 b 804 896 842 979 804 942 l 804 299 l 318 928 b 229 978 294 957 271 978 l 211 978 b 125 892 163 978 125 939 z m 397 1064 b 461 1108 414 1094 429 1108 b 661 1053 511 1108 585 1053 b 803 1179 735 1053 774 1099 b 808 1211 806 1189 808 1203 b 757 1257 808 1235 785 1257 b 711 1229 736 1257 721 1244 b 647 1185 694 1199 679 1185 b 447 1240 597 1185 524 1240 b 306 1114 374 1240 335 1194 b 300 1082 303 1104 300 1090 b 351 1036 300 1058 324 1036 b 397 1064 374 1036 388 1049 z "},"ñ":{"ha":861,"x_min":0,"x_max":0,"o":"m 106 76 b 189 -7 106 29 143 -7 b 274 76 236 -7 274 29 l 274 414 b 439 596 274 528 342 596 b 596 417 539 596 596 531 l 596 76 b 681 -7 596 29 633 -7 b 764 76 728 -7 764 29 l 764 468 b 503 749 764 638 668 749 b 274 621 389 749 321 689 l 274 657 b 189 742 274 704 236 742 b 106 657 142 742 106 704 z m 282 838 b 346 882 299 868 314 882 b 546 826 396 882 469 826 b 688 953 619 826 658 872 b 693 985 690 963 693 976 b 642 1031 693 1008 669 1031 b 596 1003 621 1031 606 1018 b 532 958 579 972 564 958 b 332 1014 482 958 408 1014 b 190 888 258 1014 219 968 b 185 856 188 878 185 864 b 236 810 185 832 208 810 b 282 838 258 810 272 822 z "},"Ó":{"ha":1181,"x_min":0,"x_max":0,"o":"m 585 1060 b 683 1097 624 1060 650 1067 l 776 1186 b 800 1228 790 1199 800 1213 b 700 1282 800 1254 744 1282 b 633 1242 671 1282 649 1267 l 554 1119 b 543 1089 549 1111 543 1099 b 585 1060 543 1071 561 1060 z m 589 -17 b 1099 486 888 -17 1099 213 l 1099 489 b 592 989 1099 763 890 989 b 82 486 293 989 82 760 l 82 483 b 589 -17 82 210 290 -17 z m 592 142 b 261 486 399 142 261 297 l 261 489 b 589 832 261 678 396 832 b 919 486 782 832 919 675 l 919 483 b 592 142 919 294 785 142 z "},"ó":{"ha":913,"x_min":0,"x_max":0,"o":"m 451 819 b 550 857 490 819 517 826 l 643 946 b 667 988 657 958 667 972 b 567 1042 667 1014 611 1042 b 500 1001 538 1042 515 1026 l 421 879 b 410 849 415 871 410 858 b 451 819 410 831 428 819 z m 454 -17 b 847 365 681 -17 847 157 l 847 368 b 457 749 847 578 682 749 b 65 365 232 749 65 575 l 65 363 b 454 -17 65 154 231 -17 z m 457 131 b 233 365 326 131 233 238 l 233 368 b 454 601 233 496 319 601 b 679 365 586 601 679 494 l 679 363 b 457 131 679 236 593 131 z "},"Ŏ":{"ha":1181,"x_min":0,"x_max":0,"o":"m 589 -17 b 1099 486 888 -17 1099 213 l 1099 489 b 592 989 1099 763 890 989 b 82 486 293 989 82 760 l 82 483 b 589 -17 82 210 290 -17 z m 592 142 b 261 486 399 142 261 297 l 261 489 b 589 832 261 678 396 832 b 919 486 782 832 919 675 l 919 483 b 592 142 919 294 785 142 z m 590 1064 b 803 1175 689 1064 763 1104 b 814 1218 810 1189 814 1204 b 756 1278 814 1251 789 1278 b 703 1246 726 1278 713 1263 b 590 1182 683 1208 650 1182 b 478 1246 531 1182 499 1208 b 425 1278 468 1263 454 1278 b 367 1218 392 1278 367 1251 b 378 1175 367 1204 371 1189 b 590 1064 418 1104 493 1064 z "},"ŏ":{"ha":913,"x_min":0,"x_max":0,"o":"m 454 -17 b 847 365 681 -17 847 157 l 847 368 b 457 749 847 578 682 749 b 65 365 232 749 65 575 l 65 363 b 454 -17 65 154 231 -17 z m 457 131 b 233 365 326 131 233 238 l 233 368 b 454 601 233 496 319 601 b 679 365 586 601 679 494 l 679 363 b 457 131 679 236 593 131 z m 456 824 b 668 935 554 824 628 864 b 679 978 675 949 679 964 b 621 1038 679 1011 654 1038 b 568 1006 592 1038 578 1022 b 456 942 549 968 515 942 b 343 1006 396 942 364 968 b 290 1038 333 1022 319 1038 b 232 978 257 1038 232 1011 b 243 935 232 964 236 949 b 456 824 283 864 358 824 z "},"Ô":{"ha":1181,"x_min":0,"x_max":0,"o":"m 589 1160 l 661 1097 b 764 1060 699 1067 725 1060 b 804 1088 786 1060 804 1069 b 788 1121 804 1097 796 1110 l 696 1236 b 615 1276 676 1261 654 1276 l 565 1276 b 485 1236 526 1276 506 1261 l 393 1121 b 376 1088 385 1110 376 1097 b 414 1060 376 1069 393 1060 b 517 1097 453 1060 481 1067 z m 589 -17 b 1099 486 888 -17 1099 213 l 1099 489 b 592 989 1099 763 890 989 b 82 486 293 989 82 760 l 82 483 b 589 -17 82 210 290 -17 z m 592 142 b 261 486 399 142 261 297 l 261 489 b 589 832 261 678 396 832 b 919 486 782 832 919 675 l 919 483 b 592 142 919 294 785 142 z "},"ô":{"ha":913,"x_min":0,"x_max":0,"o":"m 454 919 l 526 857 b 629 819 564 826 590 819 b 669 847 651 819 669 829 b 653 881 669 857 661 869 l 561 996 b 481 1036 542 1021 519 1036 l 431 1036 b 350 996 392 1036 371 1021 l 258 881 b 242 847 250 869 242 857 b 279 819 242 829 258 819 b 382 857 318 819 346 826 z m 454 -17 b 847 365 681 -17 847 157 l 847 368 b 457 749 847 578 682 749 b 65 365 232 749 65 575 l 65 363 b 454 -17 65 154 231 -17 z m 457 131 b 233 365 326 131 233 238 l 233 368 b 454 601 233 496 319 601 b 679 365 586 601 679 494 l 679 363 b 457 131 679 236 593 131 z "},"Ö":{"ha":1181,"x_min":0,"x_max":0,"o":"m 729 1240 b 638 1154 678 1240 638 1204 l 638 1144 b 729 1060 638 1094 678 1060 b 819 1144 779 1060 819 1094 l 819 1154 b 729 1240 819 1204 779 1240 z m 453 1240 b 361 1154 401 1240 361 1204 l 361 1144 b 453 1060 361 1094 401 1060 b 543 1144 503 1060 543 1094 l 543 1154 b 453 1240 543 1204 503 1240 z m 589 -17 b 1099 486 888 -17 1099 213 l 1099 489 b 592 989 1099 763 890 989 b 82 486 293 989 82 760 l 82 483 b 589 -17 82 210 290 -17 z m 592 142 b 261 486 399 142 261 297 l 261 489 b 589 832 261 678 396 832 b 919 486 782 832 919 675 l 919 483 b 592 142 919 294 785 142 z "},"ö":{"ha":913,"x_min":0,"x_max":0,"o":"m 594 1000 b 503 914 543 1000 503 964 l 503 904 b 594 819 503 854 543 819 b 685 904 644 819 685 854 l 685 914 b 594 1000 685 964 644 1000 z m 318 1000 b 226 914 267 1000 226 964 l 226 904 b 318 819 226 854 267 819 b 408 904 368 819 408 854 l 408 914 b 318 1000 408 964 368 1000 z m 454 -17 b 847 365 681 -17 847 157 l 847 368 b 457 749 847 578 682 749 b 65 365 232 749 65 575 l 65 363 b 454 -17 65 154 231 -17 z m 457 131 b 233 365 326 131 233 238 l 233 368 b 454 601 233 496 319 601 b 679 365 586 601 679 494 l 679 363 b 457 131 679 236 593 131 z "},"Ò":{"ha":1181,"x_min":0,"x_max":0,"o":"m 589 -17 b 1099 486 888 -17 1099 213 l 1099 489 b 592 989 1099 763 890 989 b 82 486 293 989 82 760 l 82 483 b 589 -17 82 210 290 -17 z m 592 142 b 261 486 399 142 261 297 l 261 489 b 589 832 261 678 396 832 b 919 486 782 832 919 675 l 919 483 b 592 142 919 294 785 142 z m 594 1060 b 638 1089 619 1060 638 1071 b 625 1119 638 1099 631 1111 l 546 1242 b 479 1282 531 1267 508 1282 b 379 1228 435 1282 379 1254 b 403 1186 379 1213 389 1199 l 497 1097 b 594 1060 529 1067 556 1060 z "},"ò":{"ha":913,"x_min":0,"x_max":0,"o":"m 454 -17 b 847 365 681 -17 847 157 l 847 368 b 457 749 847 578 682 749 b 65 365 232 749 65 575 l 65 363 b 454 -17 65 154 231 -17 z m 457 131 b 233 365 326 131 233 238 l 233 368 b 454 601 233 496 319 601 b 679 365 586 601 679 494 l 679 363 b 457 131 679 236 593 131 z m 460 819 b 503 849 485 819 503 831 b 490 879 503 858 496 871 l 411 1001 b 344 1042 396 1026 374 1042 b 244 988 300 1042 244 1014 b 268 946 244 972 254 958 l 363 857 b 460 819 394 826 421 819 z "},"Ő":{"ha":1181,"x_min":0,"x_max":0,"o":"m 699 1060 b 794 1097 738 1060 761 1067 l 888 1186 b 911 1229 901 1200 911 1213 b 814 1282 911 1256 857 1282 b 750 1242 783 1282 765 1268 l 669 1119 b 658 1089 664 1111 658 1099 b 699 1060 658 1071 675 1060 z m 444 1060 b 540 1097 483 1060 508 1067 l 633 1186 b 657 1229 647 1200 657 1213 b 560 1282 657 1256 603 1282 b 496 1242 531 1282 511 1268 l 415 1119 b 404 1089 410 1111 404 1099 b 444 1060 404 1071 421 1060 z m 589 -17 b 1099 486 888 -17 1099 213 l 1099 489 b 592 989 1099 763 890 989 b 82 486 293 989 82 760 l 82 483 b 589 -17 82 210 290 -17 z m 592 142 b 261 486 399 142 261 297 l 261 489 b 589 832 261 678 396 832 b 919 486 782 832 919 675 l 919 483 b 592 142 919 294 785 142 z "},"ő":{"ha":913,"x_min":0,"x_max":0,"o":"m 565 819 b 661 857 604 819 628 826 l 754 946 b 778 989 768 960 778 972 b 681 1042 778 1015 724 1042 b 617 1001 650 1042 632 1028 l 536 879 b 525 849 531 871 525 858 b 565 819 525 831 542 819 z m 311 819 b 407 857 350 819 375 826 l 500 946 b 524 989 514 960 524 972 b 426 1042 524 1015 469 1042 b 363 1001 397 1042 378 1028 l 282 879 b 271 849 276 871 271 858 b 311 819 271 831 288 819 z m 454 -17 b 847 365 681 -17 847 157 l 847 368 b 457 749 847 578 682 749 b 65 365 232 749 65 575 l 65 363 b 454 -17 65 154 231 -17 z m 457 131 b 233 365 326 131 233 238 l 233 368 b 454 601 233 496 319 601 b 679 365 586 601 679 494 l 679 363 b 457 131 679 236 593 131 z "},"Ō":{"ha":1181,"x_min":0,"x_max":0,"o":"m 775 1082 b 836 1143 808 1082 836 1110 b 775 1204 836 1176 808 1204 l 406 1204 b 344 1143 372 1204 344 1176 b 406 1082 344 1110 372 1082 z m 589 -17 b 1099 486 888 -17 1099 213 l 1099 489 b 592 989 1099 763 890 989 b 82 486 293 989 82 760 l 82 483 b 589 -17 82 210 290 -17 z m 592 142 b 261 486 399 142 261 297 l 261 489 b 589 832 261 678 396 832 b 919 486 782 832 919 675 l 919 483 b 592 142 919 294 785 142 z "},"ō":{"ha":913,"x_min":0,"x_max":0,"o":"m 640 842 b 701 903 674 842 701 869 b 640 964 701 936 674 964 l 271 964 b 210 903 238 964 210 936 b 271 842 210 869 238 842 z m 454 -17 b 847 365 681 -17 847 157 l 847 368 b 457 749 847 578 682 749 b 65 365 232 749 65 575 l 65 363 b 454 -17 65 154 231 -17 z m 457 131 b 233 365 326 131 233 238 l 233 368 b 454 601 233 496 319 601 b 679 365 586 601 679 494 l 679 363 b 457 131 679 236 593 131 z "},"Ø":{"ha":1181,"x_min":0,"x_max":0,"o":"m 589 -17 b 1099 486 888 -17 1099 213 l 1099 489 b 985 811 1099 611 1057 724 l 1050 879 b 1074 932 1063 892 1074 910 b 1014 986 1074 961 1049 986 b 961 963 993 986 975 976 l 894 894 b 592 989 813 954 708 989 b 82 486 293 989 82 760 l 82 483 b 196 161 82 361 124 249 l 131 93 b 107 42 118 81 107 63 b 167 -14 107 11 132 -14 b 219 10 189 -14 207 -4 l 286 76 b 589 -17 368 18 471 -17 z m 258 486 l 258 489 b 589 835 258 679 396 835 b 781 772 663 835 728 811 l 317 288 b 258 486 279 344 258 413 z m 592 138 b 399 199 518 138 453 160 l 864 685 b 922 486 900 628 922 560 l 922 483 b 592 138 922 293 785 138 z "},"ø":{"ha":913,"x_min":0,"x_max":0,"o":"m 454 -17 b 847 365 681 -17 847 157 l 847 368 b 765 604 847 457 817 539 l 807 646 b 831 699 819 660 831 676 b 776 749 831 726 806 749 b 724 724 756 749 739 739 l 682 681 b 457 749 619 724 542 749 b 65 365 232 749 65 575 l 65 363 b 146 128 65 274 94 192 l 106 86 b 82 35 93 74 82 57 b 136 -17 82 7 107 -17 b 189 8 157 -17 174 -7 l 229 50 b 454 -17 292 8 368 -17 z m 229 365 l 229 368 b 454 606 229 497 317 606 b 578 568 500 606 543 592 l 260 243 b 229 365 240 279 229 321 z m 457 126 b 333 163 410 126 368 139 l 651 488 b 683 365 672 451 683 410 l 683 363 b 457 126 683 235 596 126 z "},"Ǿ":{"ha":1181,"x_min":0,"x_max":0,"o":"m 589 -17 b 1099 486 888 -17 1099 213 l 1099 489 b 985 811 1099 611 1057 724 l 1050 879 b 1074 932 1063 892 1074 910 b 1014 986 1074 961 1049 986 b 961 963 993 986 975 976 l 894 894 b 592 989 813 954 708 989 b 82 486 293 989 82 760 l 82 483 b 196 161 82 361 124 249 l 131 93 b 107 42 118 81 107 63 b 167 -14 107 11 132 -14 b 219 10 189 -14 207 -4 l 286 76 b 589 -17 368 18 471 -17 z m 592 138 b 399 199 518 138 453 160 l 864 685 b 922 486 900 628 922 560 l 922 483 b 592 138 922 293 785 138 z m 258 486 l 258 489 b 589 835 258 679 396 835 b 781 772 663 835 728 811 l 317 288 b 258 486 279 344 258 413 z m 585 1060 b 683 1097 624 1060 650 1067 l 776 1186 b 800 1228 790 1199 800 1213 b 700 1282 800 1254 744 1282 b 633 1242 671 1282 649 1267 l 554 1119 b 543 1089 549 1111 543 1099 b 585 1060 543 1071 561 1060 z "},"ǿ":{"ha":913,"x_min":0,"x_max":0,"o":"m 454 -17 b 847 365 681 -17 847 157 l 847 368 b 765 604 847 457 817 539 l 807 646 b 831 699 819 660 831 676 b 776 749 831 726 806 749 b 724 724 756 749 739 739 l 682 681 b 457 749 619 724 542 749 b 65 365 232 749 65 575 l 65 363 b 146 128 65 274 94 192 l 106 86 b 82 35 93 74 82 57 b 136 -17 82 7 107 -17 b 189 8 157 -17 174 -7 l 229 50 b 454 -17 292 8 368 -17 z m 229 365 l 229 368 b 454 606 229 497 317 606 b 578 568 500 606 543 592 l 260 243 b 229 365 240 279 229 321 z m 457 126 b 333 163 410 126 368 139 l 651 488 b 683 365 672 451 683 410 l 683 363 b 457 126 683 235 596 126 z m 451 819 b 550 857 490 819 517 826 l 643 946 b 667 988 657 958 667 972 b 567 1042 667 1014 611 1042 b 500 1001 538 1042 515 1026 l 421 879 b 410 849 415 871 410 858 b 451 819 410 831 428 819 z "},"Õ":{"ha":1181,"x_min":0,"x_max":0,"o":"m 589 -17 b 1099 486 888 -17 1099 213 l 1099 489 b 592 989 1099 763 890 989 b 82 486 293 989 82 760 l 82 483 b 589 -17 82 210 290 -17 z m 592 142 b 261 486 399 142 261 297 l 261 489 b 589 832 261 678 396 832 b 919 486 782 832 919 675 l 919 483 b 592 142 919 294 785 142 z m 439 1078 b 503 1122 456 1108 471 1122 b 703 1067 553 1122 626 1067 b 844 1193 776 1067 815 1113 b 850 1225 847 1203 850 1217 b 799 1271 850 1249 826 1271 b 753 1243 778 1271 763 1258 b 689 1199 736 1213 721 1199 b 489 1254 639 1199 565 1254 b 347 1128 415 1254 376 1208 b 342 1096 344 1118 342 1104 b 393 1050 342 1072 365 1050 b 439 1078 415 1050 429 1063 z "},"õ":{"ha":913,"x_min":0,"x_max":0,"o":"m 454 -17 b 847 365 681 -17 847 157 l 847 368 b 457 749 847 578 682 749 b 65 365 232 749 65 575 l 65 363 b 454 -17 65 154 231 -17 z m 457 131 b 233 365 326 131 233 238 l 233 368 b 454 601 233 496 319 601 b 679 365 586 601 679 494 l 679 363 b 457 131 679 236 593 131 z m 304 838 b 368 882 321 868 336 882 b 568 826 418 882 492 826 b 710 953 642 826 681 872 b 715 985 713 963 715 976 b 664 1031 715 1008 692 1031 b 618 1003 643 1031 628 1018 b 554 958 601 972 586 958 b 354 1014 504 958 431 1014 b 213 888 281 1014 242 968 b 207 856 210 878 207 864 b 258 810 207 832 231 810 b 304 838 281 810 294 822 z "},"Œ":{"ha":1525,"x_min":0,"x_max":0,"o":"m 599 0 l 1378 0 b 1456 76 1421 0 1456 33 b 1378 153 1456 118 1421 153 l 921 153 l 921 414 l 1308 414 b 1386 489 1351 414 1386 447 b 1308 567 1386 532 1351 567 l 921 567 l 921 819 l 1371 819 b 1449 896 1414 819 1449 853 b 1371 972 1449 938 1414 972 l 599 972 b 82 486 293 972 82 760 l 82 483 b 599 0 82 208 293 0 z m 599 156 b 261 486 394 156 261 296 l 261 489 b 599 817 261 679 394 817 l 750 817 l 750 156 z "},"œ":{"ha":1444,"x_min":0,"x_max":0,"o":"m 836 418 b 1028 611 851 532 924 611 b 1214 418 1139 611 1201 526 z m 453 131 b 233 365 325 131 233 238 l 233 368 b 450 601 233 493 318 601 b 669 365 578 601 669 494 l 669 363 b 453 131 669 236 585 131 z m 1310 81 b 1332 132 1324 93 1332 111 b 1265 200 1332 171 1304 200 b 1222 185 1247 200 1235 194 b 1049 121 1175 146 1119 121 b 838 307 942 121 857 188 l 1297 307 b 1376 388 1342 307 1376 340 b 1029 749 1376 557 1261 749 b 746 597 908 749 807 689 b 453 749 683 689 578 749 b 65 365 235 749 65 575 l 65 363 b 446 -17 65 154 235 -17 b 744 138 572 -17 681 44 b 1047 -17 810 42 919 -17 b 1310 81 1160 -17 1243 21 z "},"Ŕ":{"ha":1004,"x_min":0,"x_max":0,"o":"m 125 78 b 211 -7 125 31 163 -7 b 296 78 258 -7 296 31 l 296 339 l 511 339 l 747 38 b 831 -7 767 11 792 -7 b 913 72 872 -7 913 25 b 885 138 913 99 901 117 l 699 372 b 919 663 829 413 919 507 l 919 665 b 839 875 919 750 890 822 b 558 972 776 936 681 972 l 211 972 b 125 886 163 972 125 935 z m 296 490 l 296 817 l 544 817 b 746 656 671 817 746 760 l 746 653 b 546 490 746 554 668 490 z m 507 1046 b 606 1083 546 1046 572 1053 l 699 1172 b 722 1214 713 1185 722 1199 b 622 1268 722 1240 667 1268 b 556 1228 593 1268 571 1253 l 476 1106 b 465 1075 471 1097 465 1085 b 507 1046 465 1057 483 1046 z "},"ŕ":{"ha":574,"x_min":0,"x_max":0,"o":"m 306 819 b 404 857 344 819 371 826 l 497 946 b 521 988 511 958 521 972 b 421 1042 521 1014 465 1042 b 354 1001 392 1042 369 1026 l 275 879 b 264 849 269 871 264 858 b 306 819 264 831 282 819 z m 106 76 b 189 -7 106 29 143 -7 b 274 76 236 -7 274 31 l 274 293 b 475 579 274 467 356 558 b 542 660 513 586 542 615 b 458 743 542 708 511 743 b 274 582 385 743 313 674 l 274 657 b 189 742 274 704 236 742 b 106 657 142 742 106 704 z "},"Ř":{"ha":1004,"x_min":0,"x_max":0,"o":"m 125 78 b 211 -7 125 31 163 -7 b 296 78 258 -7 296 31 l 296 339 l 511 339 l 747 38 b 831 -7 767 11 792 -7 b 913 72 872 -7 913 25 b 885 138 913 99 901 117 l 699 372 b 919 663 829 413 919 507 l 919 665 b 839 875 919 750 890 822 b 558 972 776 936 681 972 l 211 972 b 125 886 163 972 125 935 z m 296 490 l 296 817 l 544 817 b 746 656 671 817 746 760 l 746 653 b 546 490 746 554 668 490 z m 513 1164 l 440 1226 b 338 1264 404 1257 376 1264 b 297 1236 315 1264 297 1254 b 314 1203 297 1225 306 1214 l 406 1088 b 486 1047 426 1063 447 1047 l 536 1047 b 617 1088 575 1047 597 1063 l 708 1203 b 725 1236 717 1214 725 1225 b 688 1264 725 1254 710 1264 b 585 1226 649 1264 622 1257 z "},"ř":{"ha":574,"x_min":0,"x_max":0,"o":"m 313 938 l 240 1000 b 138 1038 204 1031 176 1038 b 97 1010 115 1038 97 1028 b 114 976 97 999 106 988 l 206 861 b 286 821 226 836 247 821 l 336 821 b 417 861 375 821 397 836 l 508 976 b 525 1010 517 988 525 999 b 488 1038 525 1028 510 1038 b 385 1000 449 1038 422 1031 z m 106 76 b 189 -7 106 29 143 -7 b 274 76 236 -7 274 31 l 274 293 b 475 579 274 467 356 558 b 542 660 513 586 542 615 b 458 743 542 708 511 743 b 274 582 385 743 313 674 l 274 657 b 189 742 274 704 236 742 b 106 657 142 742 106 704 z "},"Ŗ":{"ha":1004,"x_min":0,"x_max":0,"o":"m 125 78 b 211 -7 125 31 163 -7 b 296 78 258 -7 296 31 l 296 339 l 511 339 l 747 38 b 831 -7 767 11 792 -7 b 913 72 872 -7 913 25 b 885 138 913 99 901 117 l 699 372 b 919 663 829 413 919 507 l 919 665 b 839 875 919 750 890 822 b 558 972 776 936 681 972 l 211 972 b 125 886 163 972 125 935 z m 296 490 l 296 817 l 544 817 b 746 656 671 817 746 760 l 746 653 b 546 490 746 554 668 490 z m 500 -224 b 413 -312 501 -269 475 -299 b 383 -342 393 -317 383 -326 b 419 -371 383 -357 394 -371 b 539 -325 458 -371 508 -353 b 599 -175 579 -290 599 -244 l 599 -171 b 510 -74 599 -112 564 -74 b 425 -147 460 -74 425 -104 l 425 -150 b 500 -224 425 -193 458 -217 z "},"ŗ":{"ha":574,"x_min":0,"x_max":0,"o":"m 188 -231 b 100 -319 189 -276 163 -306 b 71 -349 81 -324 71 -333 b 107 -378 71 -364 82 -378 b 226 -332 146 -378 196 -360 b 286 -182 267 -297 286 -251 l 286 -178 b 197 -81 286 -119 251 -81 b 113 -154 147 -81 113 -111 l 113 -157 b 188 -231 113 -200 146 -224 z m 106 76 b 189 -7 106 29 143 -7 b 274 76 236 -7 274 31 l 274 293 b 475 579 274 467 356 558 b 542 660 513 586 542 615 b 458 743 542 708 511 743 b 274 582 385 743 313 674 l 274 657 b 189 742 274 704 236 742 b 106 657 142 742 106 704 z "},"Ś":{"ha":889,"x_min":0,"x_max":0,"o":"m 447 1060 b 546 1097 486 1060 513 1067 l 639 1186 b 663 1228 653 1199 663 1213 b 563 1282 663 1254 607 1282 b 496 1242 533 1282 511 1267 l 417 1119 b 406 1089 411 1111 406 1099 b 447 1060 406 1071 424 1060 z m 465 -14 b 813 276 669 -14 813 94 l 813 279 b 501 564 813 440 707 514 b 269 717 314 608 269 642 l 269 719 b 428 835 269 783 328 835 b 651 761 504 835 576 810 b 696 749 665 753 679 749 b 776 828 740 749 776 783 b 739 896 776 861 758 885 b 431 986 651 954 553 986 b 99 704 238 986 99 871 l 99 701 b 422 411 99 522 215 461 b 642 263 603 369 642 332 l 642 260 b 469 138 642 188 575 138 b 197 238 364 138 278 174 b 147 253 186 246 171 253 b 67 174 103 253 67 218 b 100 108 67 146 81 122 b 465 -14 208 28 333 -14 z "},"ś":{"ha":696,"x_min":0,"x_max":0,"o":"m 347 819 b 446 857 386 819 413 826 l 539 946 b 563 988 553 958 563 972 b 463 1042 563 1014 507 1042 b 396 1001 433 1042 411 1026 l 317 879 b 306 849 311 871 306 858 b 347 819 306 831 324 819 z m 357 -14 b 629 217 510 -14 629 63 l 629 219 b 401 433 629 351 508 400 b 236 538 315 461 236 483 l 236 540 b 339 613 236 582 274 613 b 511 563 390 613 451 593 b 544 554 522 557 531 554 b 614 622 583 554 614 583 b 574 686 614 651 597 674 b 343 746 503 724 421 746 b 82 522 197 746 82 661 l 82 519 b 311 304 82 379 203 335 b 475 201 397 278 475 258 l 475 199 b 361 119 475 150 433 119 b 150 190 294 119 221 143 b 114 200 140 196 128 200 b 46 132 75 200 46 169 b 78 74 46 104 60 83 b 357 -14 163 15 264 -14 z "},"Š":{"ha":889,"x_min":0,"x_max":0,"o":"m 453 1178 l 381 1240 b 278 1278 344 1271 317 1278 b 238 1250 256 1278 238 1268 b 254 1217 238 1239 246 1228 l 346 1101 b 426 1061 367 1076 388 1061 l 476 1061 b 557 1101 515 1061 538 1076 l 649 1217 b 665 1250 657 1228 665 1239 b 628 1278 665 1268 650 1278 b 525 1240 589 1278 563 1271 z m 465 -14 b 813 276 669 -14 813 94 l 813 279 b 501 564 813 440 707 514 b 269 717 314 608 269 642 l 269 719 b 428 835 269 783 328 835 b 651 761 504 835 576 810 b 696 749 665 753 679 749 b 776 828 740 749 776 783 b 739 896 776 861 758 885 b 431 986 651 954 553 986 b 99 704 238 986 99 871 l 99 701 b 422 411 99 522 215 461 b 642 263 603 369 642 332 l 642 260 b 469 138 642 188 575 138 b 197 238 364 138 278 174 b 147 253 186 246 171 253 b 67 174 103 253 67 218 b 100 108 67 146 81 122 b 465 -14 208 28 333 -14 z "},"š":{"ha":696,"x_min":0,"x_max":0,"o":"m 353 938 l 281 1000 b 178 1038 244 1031 217 1038 b 138 1010 156 1038 138 1028 b 154 976 138 999 146 988 l 246 861 b 326 821 267 836 288 821 l 376 821 b 457 861 415 821 438 836 l 549 976 b 565 1010 557 988 565 999 b 528 1038 565 1028 550 1038 b 425 1000 489 1038 463 1031 z m 357 -14 b 629 217 510 -14 629 63 l 629 219 b 401 433 629 351 508 400 b 236 538 315 461 236 483 l 236 540 b 339 613 236 582 274 613 b 511 563 390 613 451 593 b 544 554 522 557 531 554 b 614 622 583 554 614 583 b 574 686 614 651 597 674 b 343 746 503 724 421 746 b 82 522 197 746 82 661 l 82 519 b 311 304 82 379 203 335 b 475 201 397 278 475 258 l 475 199 b 361 119 475 150 433 119 b 150 190 294 119 221 143 b 114 200 140 196 128 200 b 46 132 75 200 46 169 b 78 74 46 104 60 83 b 357 -14 163 15 264 -14 z "},"Ş":{"ha":889,"x_min":0,"x_max":0,"o":"m 813 276 l 813 279 b 501 564 813 440 707 514 b 269 717 314 608 269 642 l 269 719 b 428 835 269 783 328 835 b 651 761 504 835 576 810 b 696 749 665 753 679 749 b 776 828 740 749 776 783 b 739 896 776 861 758 885 b 431 986 651 954 553 986 b 99 704 238 986 99 871 l 99 701 b 422 411 99 522 215 461 b 642 263 603 369 642 332 l 642 260 b 469 138 642 188 575 138 b 197 238 364 138 278 174 b 147 253 186 246 171 253 b 67 174 103 253 67 218 b 100 108 67 146 81 122 b 388 -8 186 43 285 4 l 306 -129 b 294 -161 299 -139 294 -150 b 392 -222 294 -190 358 -222 b 446 -182 421 -222 435 -208 l 519 -11 b 813 276 694 7 813 111 z "},"ş":{"ha":696,"x_min":0,"x_max":0,"o":"m 629 217 l 629 219 b 401 433 629 351 508 400 b 236 538 315 461 236 483 l 236 540 b 339 613 236 582 274 613 b 511 563 390 613 451 593 b 544 554 522 557 531 554 b 614 622 583 554 614 583 b 574 686 614 651 597 674 b 343 746 503 724 421 746 b 82 522 197 746 82 661 l 82 519 b 311 304 82 379 203 335 b 475 201 397 278 475 258 l 475 199 b 361 119 475 150 433 119 b 150 190 294 119 221 143 b 114 200 140 196 128 200 b 46 132 75 200 46 169 b 78 74 46 104 60 83 b 276 -7 139 32 208 4 l 193 -129 b 182 -161 186 -139 182 -150 b 279 -222 182 -190 246 -222 b 333 -182 308 -222 322 -208 l 407 -11 b 629 217 535 4 629 79 z "},"Ș":{"ha":889,"x_min":0,"x_max":0,"o":"m 439 -235 b 351 -324 440 -281 414 -310 b 322 -353 332 -328 322 -337 b 358 -382 322 -368 333 -382 b 478 -336 397 -382 447 -364 b 538 -186 518 -301 538 -256 l 538 -182 b 449 -85 538 -124 503 -85 b 364 -158 399 -85 364 -115 l 364 -161 b 439 -235 364 -204 397 -228 z m 465 -14 b 813 276 669 -14 813 94 l 813 279 b 501 564 813 440 707 514 b 269 717 314 608 269 642 l 269 719 b 428 835 269 783 328 835 b 651 761 504 835 576 810 b 696 749 665 753 679 749 b 776 828 740 749 776 783 b 739 896 776 861 758 885 b 431 986 651 954 553 986 b 99 704 238 986 99 871 l 99 701 b 422 411 99 522 215 461 b 642 263 603 369 642 332 l 642 260 b 469 138 642 188 575 138 b 197 238 364 138 278 174 b 147 253 186 246 171 253 b 67 174 103 253 67 218 b 100 108 67 146 81 122 b 465 -14 208 28 333 -14 z "},"ș":{"ha":696,"x_min":0,"x_max":0,"o":"m 340 -231 b 253 -319 342 -276 315 -306 b 224 -349 233 -324 224 -333 b 260 -378 224 -364 235 -378 b 379 -332 299 -378 349 -360 b 439 -182 419 -297 439 -251 l 439 -178 b 350 -81 439 -119 404 -81 b 265 -154 300 -81 265 -111 l 265 -157 b 340 -231 265 -200 299 -224 z m 357 -14 b 629 217 510 -14 629 63 l 629 219 b 401 433 629 351 508 400 b 236 538 315 461 236 483 l 236 540 b 339 613 236 582 274 613 b 511 563 390 613 451 593 b 544 554 522 557 531 554 b 614 622 583 554 614 583 b 574 686 614 651 597 674 b 343 746 503 724 421 746 b 82 522 197 746 82 661 l 82 519 b 311 304 82 379 203 335 b 475 201 397 278 475 258 l 475 199 b 361 119 475 150 433 119 b 150 190 294 119 221 143 b 114 200 140 196 128 200 b 46 132 75 200 46 169 b 78 74 46 104 60 83 b 357 -14 163 15 264 -14 z "},"Ť":{"ha":900,"x_min":0,"x_max":0,"o":"m 451 1164 l 379 1226 b 276 1264 343 1257 315 1264 b 236 1236 254 1264 236 1254 b 253 1203 236 1225 244 1214 l 344 1088 b 425 1047 365 1063 386 1047 l 475 1047 b 556 1088 514 1047 536 1063 l 647 1203 b 664 1236 656 1214 664 1225 b 626 1264 664 1254 649 1264 b 524 1226 588 1264 561 1257 z m 364 78 b 450 -7 364 31 403 -7 b 536 78 497 -7 536 31 l 536 814 l 774 814 b 851 893 817 814 851 850 b 774 972 851 936 817 972 l 128 972 b 49 893 83 972 49 936 b 128 814 49 850 83 814 l 364 814 z "},"ť":{"ha":571,"x_min":0,"x_max":0,"o":"m 424 850 b 460 808 422 824 438 808 b 500 843 482 808 493 821 l 551 1011 b 557 1043 556 1024 557 1035 b 514 1083 557 1069 539 1083 l 489 1083 b 428 1022 453 1083 429 1057 z m 351 -12 b 467 7 396 -12 431 -6 b 511 72 490 17 511 42 b 440 142 511 111 478 142 b 399 138 435 142 418 138 b 308 229 342 138 308 164 l 308 589 l 440 589 b 514 661 481 589 514 621 b 440 733 514 701 481 733 l 308 733 l 308 858 b 225 942 308 904 271 942 b 140 858 178 942 140 904 l 140 733 l 113 733 b 40 661 72 733 40 701 b 113 589 40 621 72 589 l 140 589 l 140 203 b 351 -12 140 42 228 -12 z "},"Ţ":{"ha":900,"x_min":0,"x_max":0,"o":"m 438 -231 b 350 -319 439 -276 413 -306 b 321 -349 331 -324 321 -333 b 357 -378 321 -364 332 -378 b 476 -332 396 -378 446 -360 b 536 -182 517 -297 536 -251 l 536 -178 b 447 -81 536 -119 501 -81 b 363 -154 397 -81 363 -111 l 363 -157 b 438 -231 363 -200 396 -224 z m 364 78 b 450 -7 364 31 403 -7 b 536 78 497 -7 536 31 l 536 814 l 774 814 b 851 893 817 814 851 850 b 774 972 851 936 817 972 l 128 972 b 49 893 83 972 49 936 b 128 814 49 850 83 814 l 364 814 z "},"ţ":{"ha":571,"x_min":0,"x_max":0,"o":"m 299 -231 b 211 -319 300 -276 274 -306 b 182 -349 192 -324 182 -333 b 218 -378 182 -364 193 -378 b 338 -332 257 -378 307 -360 b 397 -182 378 -297 397 -251 l 397 -178 b 308 -81 397 -119 363 -81 b 224 -154 258 -81 224 -111 l 224 -157 b 299 -231 224 -200 257 -224 z m 351 -12 b 467 7 396 -12 431 -6 b 511 72 490 17 511 42 b 440 142 511 111 478 142 b 399 138 435 142 418 138 b 308 229 342 138 308 164 l 308 589 l 440 589 b 514 661 481 589 514 621 b 440 733 514 701 481 733 l 308 733 l 308 858 b 225 942 308 904 271 942 b 140 858 178 942 140 904 l 140 733 l 113 733 b 40 661 72 733 40 701 b 113 589 40 621 72 589 l 140 589 l 140 203 b 351 -12 140 42 228 -12 z "},"Þ":{"ha":935,"x_min":0,"x_max":0,"o":"m 125 78 b 211 -7 125 31 163 -7 b 296 78 258 -7 296 31 l 296 161 l 489 161 b 878 493 703 161 878 274 l 878 496 b 508 821 878 692 736 821 l 296 821 l 296 894 b 211 979 296 942 258 979 b 125 894 163 979 125 942 z m 296 314 l 296 665 l 494 665 b 704 492 622 665 704 606 l 704 489 b 494 314 704 388 624 314 z "},"þ":{"ha":932,"x_min":0,"x_max":0,"o":"m 106 -146 b 189 -229 106 -193 143 -229 b 274 -146 236 -229 274 -193 l 274 114 b 524 -15 325 46 401 -15 b 864 365 697 -15 864 122 l 864 368 b 524 749 864 613 696 749 b 274 611 404 749 328 688 l 274 938 b 189 1021 274 985 236 1021 b 106 938 142 1021 106 985 z m 483 131 b 269 365 369 131 269 225 l 269 368 b 483 603 269 508 369 603 b 693 368 597 603 693 510 l 693 365 b 483 131 693 221 599 131 z "},"Ú":{"ha":1051,"x_min":0,"x_max":0,"o":"m 521 1046 b 619 1083 560 1046 586 1053 l 713 1172 b 736 1214 726 1185 736 1199 b 636 1268 736 1240 681 1268 b 569 1228 607 1268 585 1253 l 490 1106 b 479 1075 485 1097 479 1085 b 521 1046 479 1057 497 1046 z m 524 -15 b 942 421 778 -15 942 131 l 942 894 b 857 979 942 942 904 979 b 771 894 808 979 771 942 l 771 413 b 526 143 771 233 678 143 b 281 419 374 143 281 239 l 281 894 b 196 979 281 942 243 979 b 110 894 147 979 110 942 l 110 413 b 524 -15 110 131 271 -15 z "},"ú":{"ha":861,"x_min":0,"x_max":0,"o":"m 421 819 b 519 857 460 819 486 826 l 613 946 b 636 988 626 958 636 972 b 536 1042 636 1014 581 1042 b 469 1001 507 1042 485 1026 l 390 879 b 379 849 385 871 379 858 b 421 819 379 831 397 819 z m 757 657 b 672 742 757 704 718 742 b 588 657 625 742 588 704 l 588 319 b 422 139 588 206 519 139 b 265 317 322 139 265 203 l 265 657 b 181 742 265 704 228 742 b 97 657 135 742 97 704 l 97 267 b 358 -15 97 96 193 -15 b 588 114 472 -15 540 44 l 588 76 b 672 -7 588 29 626 -7 b 757 76 719 -7 757 31 z "},"Ŭ":{"ha":1051,"x_min":0,"x_max":0,"o":"m 524 -15 b 942 421 778 -15 942 131 l 942 894 b 857 979 942 942 904 979 b 771 894 808 979 771 942 l 771 413 b 526 143 771 233 678 143 b 281 419 374 143 281 239 l 281 894 b 196 979 281 942 243 979 b 110 894 147 979 110 942 l 110 413 b 524 -15 110 131 271 -15 z m 525 1044 b 738 1156 624 1044 697 1085 b 749 1199 744 1169 749 1185 b 690 1258 749 1232 724 1258 b 638 1226 661 1258 647 1243 b 525 1163 618 1189 585 1163 b 413 1226 465 1163 433 1189 b 360 1258 403 1243 389 1258 b 301 1199 326 1258 301 1232 b 313 1156 301 1185 306 1169 b 525 1044 353 1085 428 1044 z "},"ŭ":{"ha":861,"x_min":0,"x_max":0,"o":"m 757 657 b 672 742 757 704 718 742 b 588 657 625 742 588 704 l 588 319 b 422 139 588 206 519 139 b 265 317 322 139 265 203 l 265 657 b 181 742 265 704 228 742 b 97 657 135 742 97 704 l 97 267 b 358 -15 97 96 193 -15 b 588 114 472 -15 540 44 l 588 76 b 672 -7 588 29 626 -7 b 757 76 719 -7 757 31 z m 425 824 b 638 935 524 824 597 864 b 649 978 644 949 649 964 b 590 1038 649 1011 624 1038 b 538 1006 561 1038 547 1022 b 425 942 518 968 485 942 b 313 1006 365 942 333 968 b 260 1038 303 1022 289 1038 b 201 978 226 1038 201 1011 b 213 935 201 964 206 949 b 425 824 253 864 328 824 z "},"Û":{"ha":1051,"x_min":0,"x_max":0,"o":"m 524 1146 l 596 1083 b 699 1046 633 1053 660 1046 b 739 1074 721 1046 739 1056 b 722 1107 739 1083 731 1096 l 631 1222 b 550 1263 611 1247 589 1263 l 500 1263 b 419 1222 461 1263 440 1247 l 328 1107 b 311 1074 319 1096 311 1083 b 349 1046 311 1056 328 1046 b 451 1083 388 1046 415 1053 z m 524 -15 b 942 421 778 -15 942 131 l 942 894 b 857 979 942 942 904 979 b 771 894 808 979 771 942 l 771 413 b 526 143 771 233 678 143 b 281 419 374 143 281 239 l 281 894 b 196 979 281 942 243 979 b 110 894 147 979 110 942 l 110 413 b 524 -15 110 131 271 -15 z "},"û":{"ha":861,"x_min":0,"x_max":0,"o":"m 424 919 l 496 857 b 599 819 533 826 560 819 b 639 847 621 819 639 829 b 622 881 639 857 631 869 l 531 996 b 450 1036 511 1021 489 1036 l 400 1036 b 319 996 361 1036 340 1021 l 228 881 b 211 847 219 869 211 857 b 249 819 211 829 228 819 b 351 857 288 819 315 826 z m 757 657 b 672 742 757 704 718 742 b 588 657 625 742 588 704 l 588 319 b 422 139 588 206 519 139 b 265 317 322 139 265 203 l 265 657 b 181 742 265 704 228 742 b 97 657 135 742 97 704 l 97 267 b 358 -15 97 96 193 -15 b 588 114 472 -15 540 44 l 588 76 b 672 -7 588 29 626 -7 b 757 76 719 -7 757 31 z "},"Ü":{"ha":1051,"x_min":0,"x_max":0,"o":"m 664 1226 b 572 1140 613 1226 572 1190 l 572 1131 b 664 1046 572 1081 613 1046 b 754 1131 714 1046 754 1081 l 754 1140 b 664 1226 754 1190 714 1226 z m 388 1226 b 296 1140 336 1226 296 1190 l 296 1131 b 388 1046 296 1081 336 1046 b 478 1131 438 1046 478 1081 l 478 1140 b 388 1226 478 1190 438 1226 z m 524 -15 b 942 421 778 -15 942 131 l 942 894 b 857 979 942 942 904 979 b 771 894 808 979 771 942 l 771 413 b 526 143 771 233 678 143 b 281 419 374 143 281 239 l 281 894 b 196 979 281 942 243 979 b 110 894 147 979 110 942 l 110 413 b 524 -15 110 131 271 -15 z "},"ü":{"ha":861,"x_min":0,"x_max":0,"o":"m 564 1000 b 472 914 513 1000 472 964 l 472 904 b 564 819 472 854 513 819 b 654 904 614 819 654 854 l 654 914 b 564 1000 654 964 614 1000 z m 288 1000 b 196 914 236 1000 196 964 l 196 904 b 288 819 196 854 236 819 b 378 904 338 819 378 854 l 378 914 b 288 1000 378 964 338 1000 z m 757 657 b 672 742 757 704 718 742 b 588 657 625 742 588 704 l 588 319 b 422 139 588 206 519 139 b 265 317 322 139 265 203 l 265 657 b 181 742 265 704 228 742 b 97 657 135 742 97 704 l 97 267 b 358 -15 97 96 193 -15 b 588 114 472 -15 540 44 l 588 76 b 672 -7 588 29 626 -7 b 757 76 719 -7 757 31 z "},"Ù":{"ha":1051,"x_min":0,"x_max":0,"o":"m 524 -15 b 942 421 778 -15 942 131 l 942 894 b 857 979 942 942 904 979 b 771 894 808 979 771 942 l 771 413 b 526 143 771 233 678 143 b 281 419 374 143 281 239 l 281 894 b 196 979 281 942 243 979 b 110 894 147 979 110 942 l 110 413 b 524 -15 110 131 271 -15 z m 529 1046 b 572 1075 554 1046 572 1057 b 560 1106 572 1085 565 1097 l 481 1228 b 414 1268 465 1253 443 1268 b 314 1214 369 1268 314 1240 b 338 1172 314 1199 324 1185 l 432 1083 b 529 1046 464 1053 490 1046 z "},"ù":{"ha":861,"x_min":0,"x_max":0,"o":"m 757 657 b 672 742 757 704 718 742 b 588 657 625 742 588 704 l 588 319 b 422 139 588 206 519 139 b 265 317 322 139 265 203 l 265 657 b 181 742 265 704 228 742 b 97 657 135 742 97 704 l 97 267 b 358 -15 97 96 193 -15 b 588 114 472 -15 540 44 l 588 76 b 672 -7 588 29 626 -7 b 757 76 719 -7 757 31 z m 429 819 b 472 849 454 819 472 831 b 460 879 472 858 465 871 l 381 1001 b 314 1042 365 1026 343 1042 b 214 988 269 1042 214 1014 b 238 946 214 972 224 958 l 332 857 b 429 819 364 826 390 819 z "},"Ű":{"ha":1051,"x_min":0,"x_max":0,"o":"m 524 -15 b 942 421 778 -15 942 131 l 942 894 b 857 979 942 942 904 979 b 771 894 808 979 771 942 l 771 413 b 526 143 771 233 678 143 b 281 419 374 143 281 239 l 281 894 b 196 979 281 942 243 979 b 110 894 147 979 110 942 l 110 413 b 524 -15 110 131 271 -15 z m 635 1046 b 731 1083 674 1046 697 1053 l 824 1172 b 847 1215 838 1186 847 1199 b 750 1268 847 1242 793 1268 b 686 1228 719 1268 701 1254 l 606 1106 b 594 1075 600 1097 594 1085 b 635 1046 594 1057 611 1046 z m 381 1046 b 476 1083 419 1046 444 1053 l 569 1172 b 593 1215 583 1186 593 1199 b 496 1268 593 1242 539 1268 b 432 1228 467 1268 447 1254 l 351 1106 b 340 1075 346 1097 340 1085 b 381 1046 340 1057 357 1046 z "},"ű":{"ha":861,"x_min":0,"x_max":0,"o":"m 757 657 b 672 742 757 704 718 742 b 588 657 625 742 588 704 l 588 319 b 422 139 588 206 519 139 b 265 317 322 139 265 203 l 265 657 b 181 742 265 704 228 742 b 97 657 135 742 97 704 l 97 267 b 358 -15 97 96 193 -15 b 588 114 472 -15 540 44 l 588 76 b 672 -7 588 29 626 -7 b 757 76 719 -7 757 31 z m 535 819 b 631 857 574 819 597 826 l 724 946 b 747 989 738 960 747 972 b 650 1042 747 1015 693 1042 b 586 1001 619 1042 601 1028 l 506 879 b 494 849 500 871 494 858 b 535 819 494 831 511 819 z m 281 819 b 376 857 319 819 344 826 l 469 946 b 493 989 483 960 493 972 b 396 1042 493 1015 439 1042 b 332 1001 367 1042 347 1028 l 251 879 b 240 849 246 871 240 858 b 281 819 240 831 257 819 z "},"Ū":{"ha":1051,"x_min":0,"x_max":0,"o":"m 524 -15 b 942 421 778 -15 942 131 l 942 894 b 857 979 942 942 904 979 b 771 894 808 979 771 942 l 771 413 b 526 143 771 233 678 143 b 281 419 374 143 281 239 l 281 894 b 196 979 281 942 243 979 b 110 894 147 979 110 942 l 110 413 b 524 -15 110 131 271 -15 z m 710 1068 b 771 1129 743 1068 771 1096 b 710 1190 771 1163 743 1190 l 340 1190 b 279 1129 307 1190 279 1163 b 340 1068 279 1096 307 1068 z "},"ū":{"ha":861,"x_min":0,"x_max":0,"o":"m 757 657 b 672 742 757 704 718 742 b 588 657 625 742 588 704 l 588 319 b 422 139 588 206 519 139 b 265 317 322 139 265 203 l 265 657 b 181 742 265 704 228 742 b 97 657 135 742 97 704 l 97 267 b 358 -15 97 96 193 -15 b 588 114 472 -15 540 44 l 588 76 b 672 -7 588 29 626 -7 b 757 76 719 -7 757 31 z m 610 842 b 671 903 643 842 671 869 b 610 964 671 936 643 964 l 240 964 b 179 903 207 964 179 936 b 240 842 179 869 207 842 z "},"Ų":{"ha":1051,"x_min":0,"x_max":0,"o":"m 408 -114 b 588 -231 408 -197 499 -231 b 643 -187 624 -231 643 -214 b 597 -144 643 -165 628 -151 b 536 -87 558 -135 536 -121 b 569 -12 536 -64 544 -40 b 942 421 797 4 942 149 l 942 894 b 857 979 942 942 904 979 b 771 894 808 979 771 942 l 771 413 b 526 143 771 233 678 143 b 281 419 374 143 281 239 l 281 894 b 196 979 281 942 243 979 b 110 894 147 979 110 942 l 110 413 b 454 -11 110 157 242 14 b 408 -114 425 -44 408 -76 z "},"ų":{"ha":861,"x_min":0,"x_max":0,"o":"m 757 657 b 672 742 757 704 718 742 b 588 657 625 742 588 704 l 588 319 b 422 139 588 206 519 139 b 265 317 322 139 265 203 l 265 657 b 181 742 265 704 228 742 b 97 657 135 742 97 704 l 97 267 b 358 -15 97 96 193 -15 b 588 114 472 -15 540 44 l 588 108 b 614 15 588 85 597 29 b 540 -118 571 -24 540 -68 b 718 -231 540 -197 629 -231 b 774 -187 754 -231 774 -214 b 728 -144 774 -165 758 -151 b 668 -89 689 -135 668 -121 b 724 6 668 -60 683 -33 b 757 72 747 28 757 44 z "},"Ů":{"ha":1051,"x_min":0,"x_max":0,"o":"m 525 1031 b 683 1182 608 1031 683 1100 l 683 1185 b 525 1336 683 1268 608 1336 b 367 1185 442 1336 367 1268 l 367 1182 b 525 1031 367 1100 442 1031 z m 525 1097 b 439 1182 478 1097 439 1136 l 439 1185 b 525 1269 439 1231 478 1269 b 611 1185 572 1269 611 1231 l 611 1182 b 525 1097 611 1136 572 1097 z m 524 -15 b 942 421 778 -15 942 131 l 942 894 b 857 979 942 942 904 979 b 771 894 808 979 771 942 l 771 413 b 526 143 771 233 678 143 b 281 419 374 143 281 239 l 281 894 b 196 979 281 942 243 979 b 110 894 147 979 110 942 l 110 413 b 524 -15 110 131 271 -15 z "},"ů":{"ha":861,"x_min":0,"x_max":0,"o":"m 425 822 b 583 974 508 822 583 892 l 583 976 b 425 1128 583 1060 508 1128 b 267 976 342 1128 267 1060 l 267 974 b 425 822 267 892 342 822 z m 425 889 b 339 974 378 889 339 928 l 339 976 b 425 1061 339 1022 378 1061 b 511 976 472 1061 511 1022 l 511 974 b 425 889 511 928 472 889 z m 757 657 b 672 742 757 704 718 742 b 588 657 625 742 588 704 l 588 319 b 422 139 588 206 519 139 b 265 317 322 139 265 203 l 265 657 b 181 742 265 704 228 742 b 97 657 135 742 97 704 l 97 267 b 358 -15 97 96 193 -15 b 588 114 472 -15 540 44 l 588 76 b 672 -7 588 29 626 -7 b 757 76 719 -7 757 31 z "},"Ẃ":{"ha":1526,"x_min":0,"x_max":0,"o":"m 758 1046 b 857 1083 797 1046 824 1053 l 950 1172 b 974 1214 964 1185 974 1199 b 874 1268 974 1240 918 1268 b 807 1228 844 1268 822 1253 l 728 1106 b 717 1075 722 1097 717 1085 b 758 1046 717 1057 735 1046 z m 353 57 b 442 -14 369 13 400 -14 l 458 -14 b 547 57 500 -14 532 13 l 764 692 l 981 57 b 1068 -14 996 13 1026 -14 l 1085 -14 b 1174 57 1126 -14 1158 14 l 1461 863 b 1469 897 1465 872 1469 886 b 1385 979 1469 943 1431 979 b 1301 918 1343 979 1314 953 l 1078 249 l 858 914 b 772 982 846 954 815 982 l 760 982 b 674 914 717 982 688 954 l 454 249 l 231 917 b 146 979 219 953 188 979 b 58 896 99 979 58 943 b 65 863 58 885 61 872 z "},"ẃ":{"ha":1185,"x_min":0,"x_max":0,"o":"m 586 819 b 685 857 625 819 651 826 l 778 946 b 801 988 792 958 801 972 b 701 1042 801 1014 746 1042 b 635 1001 672 1042 650 1026 l 556 879 b 544 849 550 871 544 858 b 586 819 544 831 563 819 z m 351 -12 l 357 -12 b 447 60 397 -12 432 11 l 592 496 l 735 60 b 826 -12 750 11 785 -12 l 832 -12 b 925 63 872 -12 907 11 l 1125 626 b 1132 664 1128 635 1132 651 b 1053 742 1132 706 1099 742 b 971 676 1008 742 982 713 l 828 231 l 683 675 b 597 742 671 714 640 742 l 588 742 b 501 675 544 742 514 714 l 358 231 l 217 675 b 135 742 204 714 176 742 b 53 664 85 742 53 704 b 61 621 53 650 57 632 l 258 63 b 351 -12 275 11 310 -12 z "},"Ŵ":{"ha":1526,"x_min":0,"x_max":0,"o":"m 761 1146 l 833 1083 b 936 1046 871 1053 897 1046 b 976 1074 958 1046 976 1056 b 960 1107 976 1083 968 1096 l 868 1222 b 788 1263 849 1247 826 1263 l 738 1263 b 657 1222 699 1263 678 1247 l 565 1107 b 549 1074 557 1096 549 1083 b 586 1046 549 1056 565 1046 b 689 1083 625 1046 653 1053 z m 353 57 b 442 -14 369 13 400 -14 l 458 -14 b 547 57 500 -14 532 13 l 764 692 l 981 57 b 1068 -14 996 13 1026 -14 l 1085 -14 b 1174 57 1126 -14 1158 14 l 1461 863 b 1469 897 1465 872 1469 886 b 1385 979 1469 943 1431 979 b 1301 918 1343 979 1314 953 l 1078 249 l 858 914 b 772 982 846 954 815 982 l 760 982 b 674 914 717 982 688 954 l 454 249 l 231 917 b 146 979 219 953 188 979 b 58 896 99 979 58 943 b 65 863 58 885 61 872 z "},"ŵ":{"ha":1185,"x_min":0,"x_max":0,"o":"m 589 919 l 661 857 b 764 819 699 826 725 819 b 804 847 786 819 804 829 b 788 881 804 857 796 869 l 696 996 b 615 1036 676 1021 654 1036 l 565 1036 b 485 996 526 1036 506 1021 l 393 881 b 376 847 385 869 376 857 b 414 819 376 829 393 819 b 517 857 453 819 481 826 z m 351 -12 l 357 -12 b 447 60 397 -12 432 11 l 592 496 l 735 60 b 826 -12 750 11 785 -12 l 832 -12 b 925 63 872 -12 907 11 l 1125 626 b 1132 664 1128 635 1132 651 b 1053 742 1132 706 1099 742 b 971 676 1008 742 982 713 l 828 231 l 683 675 b 597 742 671 714 640 742 l 588 742 b 501 675 544 742 514 714 l 358 231 l 217 675 b 135 742 204 714 176 742 b 53 664 85 742 53 704 b 61 621 53 650 57 632 l 258 63 b 351 -12 275 11 310 -12 z "},"Ẅ":{"ha":1526,"x_min":0,"x_max":0,"o":"m 901 1226 b 810 1140 850 1226 810 1190 l 810 1131 b 901 1046 810 1081 850 1046 b 992 1131 951 1046 992 1081 l 992 1140 b 901 1226 992 1190 951 1226 z m 625 1226 b 533 1140 574 1226 533 1190 l 533 1131 b 625 1046 533 1081 574 1046 b 715 1131 675 1046 715 1081 l 715 1140 b 625 1226 715 1190 675 1226 z m 353 57 b 442 -14 369 13 400 -14 l 458 -14 b 547 57 500 -14 532 13 l 764 692 l 981 57 b 1068 -14 996 13 1026 -14 l 1085 -14 b 1174 57 1126 -14 1158 14 l 1461 863 b 1469 897 1465 872 1469 886 b 1385 979 1469 943 1431 979 b 1301 918 1343 979 1314 953 l 1078 249 l 858 914 b 772 982 846 954 815 982 l 760 982 b 674 914 717 982 688 954 l 454 249 l 231 917 b 146 979 219 953 188 979 b 58 896 99 979 58 943 b 65 863 58 885 61 872 z "},"ẅ":{"ha":1185,"x_min":0,"x_max":0,"o":"m 729 1000 b 638 914 678 1000 638 964 l 638 904 b 729 819 638 854 678 819 b 819 904 779 819 819 854 l 819 914 b 729 1000 819 964 779 1000 z m 453 1000 b 361 914 401 1000 361 964 l 361 904 b 453 819 361 854 401 819 b 543 904 503 819 543 854 l 543 914 b 453 1000 543 964 503 1000 z m 351 -12 l 357 -12 b 447 60 397 -12 432 11 l 592 496 l 735 60 b 826 -12 750 11 785 -12 l 832 -12 b 925 63 872 -12 907 11 l 1125 626 b 1132 664 1128 635 1132 651 b 1053 742 1132 706 1099 742 b 971 676 1008 742 982 713 l 828 231 l 683 675 b 597 742 671 714 640 742 l 588 742 b 501 675 544 742 514 714 l 358 231 l 217 675 b 135 742 204 714 176 742 b 53 664 85 742 53 704 b 61 621 53 650 57 632 l 258 63 b 351 -12 275 11 310 -12 z "},"Ẁ":{"ha":1526,"x_min":0,"x_max":0,"o":"m 353 57 b 442 -14 369 13 400 -14 l 458 -14 b 547 57 500 -14 532 13 l 764 692 l 981 57 b 1068 -14 996 13 1026 -14 l 1085 -14 b 1174 57 1126 -14 1158 14 l 1461 863 b 1469 897 1465 872 1469 886 b 1385 979 1469 943 1431 979 b 1301 918 1343 979 1314 953 l 1078 249 l 858 914 b 772 982 846 954 815 982 l 760 982 b 674 914 717 982 688 954 l 454 249 l 231 917 b 146 979 219 953 188 979 b 58 896 99 979 58 943 b 65 863 58 885 61 872 z m 767 1046 b 810 1075 792 1046 810 1057 b 797 1106 810 1085 803 1097 l 718 1228 b 651 1268 703 1253 681 1268 b 551 1214 607 1268 551 1240 b 575 1172 551 1199 561 1185 l 669 1083 b 767 1046 701 1053 728 1046 z "},"ẁ":{"ha":1185,"x_min":0,"x_max":0,"o":"m 351 -12 l 357 -12 b 447 60 397 -12 432 11 l 592 496 l 735 60 b 826 -12 750 11 785 -12 l 832 -12 b 925 63 872 -12 907 11 l 1125 626 b 1132 664 1128 635 1132 651 b 1053 742 1132 706 1099 742 b 971 676 1008 742 982 713 l 828 231 l 683 675 b 597 742 671 714 640 742 l 588 742 b 501 675 544 742 514 714 l 358 231 l 217 675 b 135 742 204 714 176 742 b 53 664 85 742 53 704 b 61 621 53 650 57 632 l 258 63 b 351 -12 275 11 310 -12 z m 594 819 b 638 849 619 819 638 831 b 625 879 638 858 631 871 l 546 1001 b 479 1042 531 1026 508 1042 b 379 988 435 1042 379 1014 b 403 946 379 972 389 958 l 497 857 b 594 819 529 826 556 819 z "},"Ý":{"ha":967,"x_min":0,"x_max":0,"o":"m 399 78 b 483 -7 399 31 436 -7 b 569 78 532 -7 569 31 l 569 382 l 901 836 b 925 897 914 853 925 874 b 842 981 925 943 892 981 b 760 929 806 981 781 960 l 485 538 l 214 928 b 131 979 193 958 168 979 b 44 897 82 979 44 943 b 64 838 44 874 53 854 l 399 378 z m 479 1046 b 578 1083 518 1046 544 1053 l 671 1172 b 694 1214 685 1185 694 1199 b 594 1268 694 1240 639 1268 b 528 1228 565 1268 543 1253 l 449 1106 b 438 1075 443 1097 438 1085 b 479 1046 438 1057 456 1046 z "},"ý":{"ha":815,"x_min":0,"x_max":0,"o":"m 239 -226 b 486 -21 357 -226 424 -171 l 754 622 b 761 663 757 631 761 649 b 681 742 761 707 725 742 b 600 678 638 742 614 713 l 417 190 l 219 678 b 138 742 204 717 181 742 b 54 660 90 742 54 707 b 64 619 54 649 58 632 l 336 11 l 331 -4 b 226 -82 303 -61 276 -82 b 168 -72 203 -82 188 -78 b 138 -67 160 -69 151 -67 b 69 -136 101 -67 69 -94 b 122 -206 69 -176 97 -197 b 239 -226 157 -219 192 -226 z m 404 819 b 503 857 443 819 469 826 l 596 946 b 619 988 610 958 619 972 b 519 1042 619 1014 564 1042 b 453 1001 490 1042 468 1026 l 374 879 b 363 849 368 871 363 858 b 404 819 363 831 381 819 z "},"Ŷ":{"ha":967,"x_min":0,"x_max":0,"o":"m 399 78 b 483 -7 399 31 436 -7 b 569 78 532 -7 569 31 l 569 382 l 901 836 b 925 897 914 853 925 874 b 842 981 925 943 892 981 b 760 929 806 981 781 960 l 485 538 l 214 928 b 131 979 193 958 168 979 b 44 897 82 979 44 943 b 64 838 44 874 53 854 l 399 378 z m 482 1146 l 554 1083 b 657 1046 592 1053 618 1046 b 697 1074 679 1046 697 1056 b 681 1107 697 1083 689 1096 l 589 1222 b 508 1263 569 1247 547 1263 l 458 1263 b 378 1222 419 1263 399 1247 l 286 1107 b 269 1074 278 1096 269 1083 b 307 1046 269 1056 286 1046 b 410 1083 346 1046 374 1053 z "},"ŷ":{"ha":815,"x_min":0,"x_max":0,"o":"m 239 -226 b 486 -21 357 -226 424 -171 l 754 622 b 761 663 757 631 761 649 b 681 742 761 707 725 742 b 600 678 638 742 614 713 l 417 190 l 219 678 b 138 742 204 717 181 742 b 54 660 90 742 54 707 b 64 619 54 649 58 632 l 336 11 l 331 -4 b 226 -82 303 -61 276 -82 b 168 -72 203 -82 188 -78 b 138 -67 160 -69 151 -67 b 69 -136 101 -67 69 -94 b 122 -206 69 -176 97 -197 b 239 -226 157 -219 192 -226 z m 407 919 l 479 857 b 582 819 517 826 543 819 b 622 847 604 819 622 829 b 606 881 622 857 614 869 l 514 996 b 433 1036 494 1021 472 1036 l 383 1036 b 303 996 344 1036 324 1021 l 211 881 b 194 847 203 869 194 857 b 232 819 194 829 211 819 b 335 857 271 819 299 826 z "},"Ÿ":{"ha":967,"x_min":0,"x_max":0,"o":"m 399 78 b 483 -7 399 31 436 -7 b 569 78 532 -7 569 31 l 569 382 l 901 836 b 925 897 914 853 925 874 b 842 981 925 943 892 981 b 760 929 806 981 781 960 l 485 538 l 214 928 b 131 979 193 958 168 979 b 44 897 82 979 44 943 b 64 838 44 874 53 854 l 399 378 z m 622 1226 b 531 1140 571 1226 531 1190 l 531 1131 b 622 1046 531 1081 571 1046 b 713 1131 672 1046 713 1081 l 713 1140 b 622 1226 713 1190 672 1226 z m 346 1226 b 254 1140 294 1226 254 1190 l 254 1131 b 346 1046 254 1081 294 1046 b 436 1131 396 1046 436 1081 l 436 1140 b 346 1226 436 1190 396 1226 z "},"ÿ":{"ha":815,"x_min":0,"x_max":0,"o":"m 239 -226 b 486 -21 357 -226 424 -171 l 754 622 b 761 663 757 631 761 649 b 681 742 761 707 725 742 b 600 678 638 742 614 713 l 417 190 l 219 678 b 138 742 204 717 181 742 b 54 660 90 742 54 707 b 64 619 54 649 58 632 l 336 11 l 331 -4 b 226 -82 303 -61 276 -82 b 168 -72 203 -82 188 -78 b 138 -67 160 -69 151 -67 b 69 -136 101 -67 69 -94 b 122 -206 69 -176 97 -197 b 239 -226 157 -219 192 -226 z m 547 1000 b 456 914 496 1000 456 964 l 456 904 b 547 819 456 854 496 819 b 638 904 597 819 638 854 l 638 914 b 547 1000 638 964 597 1000 z m 271 1000 b 179 914 219 1000 179 964 l 179 904 b 271 819 179 854 219 819 b 361 904 321 819 361 854 l 361 914 b 271 1000 361 964 321 1000 z "},"Ỳ":{"ha":967,"x_min":0,"x_max":0,"o":"m 399 78 b 483 -7 399 31 436 -7 b 569 78 532 -7 569 31 l 569 382 l 901 836 b 925 897 914 853 925 874 b 842 981 925 943 892 981 b 760 929 806 981 781 960 l 485 538 l 214 928 b 131 979 193 958 168 979 b 44 897 82 979 44 943 b 64 838 44 874 53 854 l 399 378 z m 488 1046 b 531 1075 513 1046 531 1057 b 518 1106 531 1085 524 1097 l 439 1228 b 372 1268 424 1253 401 1268 b 272 1214 328 1268 272 1240 b 296 1172 272 1199 282 1185 l 390 1083 b 488 1046 422 1053 449 1046 z "},"ỳ":{"ha":815,"x_min":0,"x_max":0,"o":"m 239 -226 b 486 -21 357 -226 424 -171 l 754 622 b 761 663 757 631 761 649 b 681 742 761 707 725 742 b 600 678 638 742 614 713 l 417 190 l 219 678 b 138 742 204 717 181 742 b 54 660 90 742 54 707 b 64 619 54 649 58 632 l 336 11 l 331 -4 b 226 -82 303 -61 276 -82 b 168 -72 203 -82 188 -78 b 138 -67 160 -69 151 -67 b 69 -136 101 -67 69 -94 b 122 -206 69 -176 97 -197 b 239 -226 157 -219 192 -226 z m 413 819 b 456 849 438 819 456 831 b 443 879 456 858 449 871 l 364 1001 b 297 1042 349 1026 326 1042 b 197 988 253 1042 197 1014 b 221 946 197 972 207 958 l 315 857 b 413 819 347 826 374 819 z "},"Ź":{"ha":975,"x_min":0,"x_max":0,"o":"m 492 1046 b 590 1083 531 1046 557 1053 l 683 1172 b 707 1214 697 1185 707 1199 b 607 1268 707 1240 651 1268 b 540 1228 578 1268 556 1253 l 461 1106 b 450 1075 456 1097 450 1085 b 492 1046 450 1057 468 1046 z m 161 0 l 818 0 b 894 75 860 0 894 33 b 818 151 894 117 860 151 l 313 151 l 861 814 b 892 893 881 839 892 864 l 892 897 b 815 972 892 938 857 972 l 176 972 b 101 896 136 972 101 938 b 176 821 101 854 136 821 l 664 821 l 117 158 b 85 79 96 135 85 108 l 85 75 b 161 0 85 35 121 0 z "},"ź":{"ha":778,"x_min":0,"x_max":0,"o":"m 388 819 b 486 857 426 819 453 826 l 579 946 b 603 988 593 958 603 972 b 503 1042 603 1014 547 1042 b 436 1001 474 1042 451 1026 l 357 879 b 346 849 351 871 346 858 b 388 819 346 831 364 819 z m 150 0 l 647 0 b 717 68 686 0 717 31 b 647 138 717 107 686 138 l 286 138 l 678 582 b 714 663 703 610 714 631 l 714 667 b 633 733 714 706 679 733 l 150 733 b 81 664 111 733 81 703 b 150 596 81 626 111 596 l 496 596 l 106 151 b 68 71 79 124 68 103 l 68 68 b 150 0 68 29 103 0 z "},"Ž":{"ha":975,"x_min":0,"x_max":0,"o":"m 497 1164 l 425 1226 b 322 1264 389 1257 361 1264 b 282 1236 300 1264 282 1254 b 299 1203 282 1225 290 1214 l 390 1088 b 471 1047 411 1063 432 1047 l 521 1047 b 601 1088 560 1047 582 1063 l 693 1203 b 710 1236 701 1214 710 1225 b 672 1264 710 1254 694 1264 b 569 1226 633 1264 607 1257 z m 161 0 l 818 0 b 894 75 860 0 894 33 b 818 151 894 117 860 151 l 313 151 l 861 814 b 892 893 881 839 892 864 l 892 897 b 815 972 892 938 857 972 l 176 972 b 101 896 136 972 101 938 b 176 821 101 854 136 821 l 664 821 l 117 158 b 85 79 96 135 85 108 l 85 75 b 161 0 85 35 121 0 z "},"ž":{"ha":778,"x_min":0,"x_max":0,"o":"m 393 938 l 321 1000 b 218 1038 285 1031 257 1038 b 178 1010 196 1038 178 1028 b 194 976 178 999 186 988 l 286 861 b 367 821 307 836 328 821 l 417 821 b 497 861 456 821 478 836 l 589 976 b 606 1010 597 988 606 999 b 568 1038 606 1028 590 1038 b 465 1000 529 1038 503 1031 z m 150 0 l 647 0 b 717 68 686 0 717 31 b 647 138 717 107 686 138 l 286 138 l 678 582 b 714 663 703 610 714 631 l 714 667 b 633 733 714 706 679 733 l 150 733 b 81 664 111 733 81 703 b 150 596 81 626 111 596 l 496 596 l 106 151 b 68 71 79 124 68 103 l 68 68 b 150 0 68 29 103 0 z "},"Ż":{"ha":975,"x_min":0,"x_max":0,"o":"m 161 0 l 818 0 b 894 75 860 0 894 33 b 818 151 894 117 860 151 l 313 151 l 861 814 b 892 893 881 839 892 864 l 892 897 b 815 972 892 938 857 972 l 176 972 b 101 896 136 972 101 938 b 176 821 101 854 136 821 l 664 821 l 117 158 b 85 79 96 135 85 108 l 85 75 b 161 0 85 35 121 0 z m 590 1140 b 496 1226 590 1192 547 1226 b 403 1140 444 1226 403 1192 l 403 1131 b 496 1046 403 1079 444 1046 b 590 1131 547 1046 590 1079 z "},"ż":{"ha":778,"x_min":0,"x_max":0,"o":"m 150 0 l 647 0 b 717 68 686 0 717 31 b 647 138 717 107 686 138 l 286 138 l 678 582 b 714 663 703 610 714 631 l 714 667 b 633 733 714 706 679 733 l 150 733 b 81 664 111 733 81 703 b 150 596 81 626 111 596 l 496 596 l 106 151 b 68 71 79 124 68 103 l 68 68 b 150 0 68 29 103 0 z m 486 914 b 392 1000 486 965 443 1000 b 299 914 340 1000 299 965 l 299 904 b 392 819 299 853 340 819 b 486 904 443 819 486 853 z "},"ə":{"ha":839,"x_min":0,"x_max":0,"o":"m 607 315 b 417 122 592 201 519 122 b 231 315 306 122 242 207 z m 133 653 b 111 601 121 640 111 622 b 178 533 111 563 140 533 b 221 549 197 533 208 539 b 394 613 268 588 324 613 b 606 426 503 613 588 546 l 146 426 b 67 346 103 426 67 393 b 415 -15 67 176 182 -15 b 774 367 625 -15 774 157 l 774 369 b 397 750 774 596 610 750 b 133 653 283 750 200 713 z "},"ß":{"ha":861,"x_min":0,"x_max":0,"o":"m 404 65 b 481 -4 404 25 433 -4 b 793 272 638 -1 793 92 l 793 275 b 582 522 793 413 690 486 b 736 760 663 567 736 635 l 736 763 b 436 1024 736 908 625 1024 b 106 697 233 1024 106 899 l 106 75 b 188 -7 106 29 142 -7 b 272 75 235 -7 272 29 l 272 703 b 428 881 272 811 336 881 b 568 747 513 881 568 828 l 568 744 b 440 569 568 664 513 610 b 404 500 419 556 404 533 b 465 426 404 457 433 436 b 625 279 558 403 625 358 l 625 276 b 464 132 625 192 563 147 b 404 65 428 124 404 99 z "},".":{"ha":374,"x_min":0,"x_max":0,"o":"m 89 103 l 89 89 b 188 -7 89 35 131 -7 b 285 89 243 -7 285 35 l 285 103 b 188 199 285 157 243 199 b 89 103 131 199 89 157 z "},",":{"ha":374,"x_min":0,"x_max":0,"o":"m 42 -162 b 85 -201 42 -183 56 -201 b 215 -142 124 -201 178 -178 b 283 61 258 -97 283 -33 l 283 76 b 183 199 283 151 246 199 b 89 106 126 199 89 158 l 89 94 b 168 0 89 44 128 11 b 74 -125 171 -61 138 -104 b 42 -162 56 -129 42 -143 z "},":":{"ha":388,"x_min":0,"x_max":0,"o":"m 96 644 l 96 632 b 194 535 96 576 138 535 b 292 632 250 535 292 576 l 292 644 b 194 742 292 700 250 742 b 96 644 138 742 96 700 z m 96 103 l 96 89 b 194 -7 96 35 138 -7 b 292 89 250 -7 292 35 l 292 103 b 194 199 292 157 250 199 b 96 103 138 199 96 157 z "},";":{"ha":388,"x_min":0,"x_max":0,"o":"m 96 644 l 96 632 b 194 535 96 576 138 535 b 292 632 250 535 292 576 l 292 644 b 194 742 292 700 250 742 b 96 644 138 742 96 700 z m 49 -162 b 92 -201 49 -183 63 -201 b 222 -142 131 -201 185 -178 b 290 61 265 -97 290 -33 l 290 76 b 190 199 290 151 253 199 b 96 106 133 199 96 158 l 96 94 b 175 0 96 44 135 11 b 81 -125 178 -61 144 -104 b 49 -162 63 -129 49 -143 z "},"…":{"ha":1100,"x_min":0,"x_max":0,"o":"m 819 103 l 819 89 b 915 -7 819 35 858 -7 b 1011 89 972 -7 1011 35 l 1011 103 b 915 199 1011 157 972 199 b 819 103 858 199 819 157 z m 454 103 l 454 89 b 550 -7 454 35 493 -7 b 646 89 607 -7 646 35 l 646 103 b 550 199 646 157 607 199 b 454 103 493 199 454 157 z m 89 103 l 89 89 b 185 -7 89 35 128 -7 b 281 89 242 -7 281 35 l 281 103 b 185 199 281 157 242 199 b 89 103 128 199 89 157 z "},"·":{"ha":374,"x_min":0,"x_max":0,"o":"m 89 432 l 89 419 b 188 322 89 364 132 322 b 285 419 242 322 285 364 l 285 432 b 188 528 285 486 242 528 b 89 432 132 528 89 486 z "},"•":{"ha":682,"x_min":0,"x_max":0,"o":"m 342 293 b 538 488 449 293 538 379 l 538 490 b 342 686 538 599 447 686 b 144 490 235 686 144 599 l 144 488 b 342 293 144 379 233 293 z "},"&":{"ha":967,"x_min":0,"x_max":0,"o":"m 833 -14 b 908 63 876 -14 908 19 b 882 121 908 88 899 104 l 774 229 b 879 400 811 282 847 340 b 889 438 885 411 889 425 b 815 510 889 476 856 510 b 751 469 781 510 758 485 b 671 331 726 419 700 372 l 506 499 b 718 751 633 547 718 624 l 718 754 b 460 989 718 885 614 989 b 181 744 286 989 181 875 l 181 742 b 261 539 181 671 206 610 b 54 267 128 482 54 392 l 54 264 b 372 -14 54 96 190 -14 b 672 115 492 -14 590 36 l 774 13 b 833 -14 792 -6 808 -14 z m 414 590 b 340 735 360 650 340 686 l 340 738 b 457 854 340 806 388 854 b 567 744 521 854 567 810 l 567 742 b 414 590 567 671 514 626 z m 389 128 b 226 269 294 128 226 188 l 226 272 b 357 435 226 335 265 394 l 574 214 b 389 128 518 161 457 128 z "},"!":{"ha":419,"x_min":0,"x_max":0,"o":"m 160 350 b 210 300 163 319 182 300 b 261 350 238 300 258 319 l 310 917 b 260 976 313 950 292 976 l 160 976 b 111 917 128 976 108 950 z m 111 103 l 111 89 b 210 -7 111 35 154 -7 b 308 89 267 -7 308 35 l 308 103 b 210 199 308 157 267 199 b 111 103 154 199 111 157 z "},"¡":{"ha":419,"x_min":0,"x_max":0,"o":"m 261 622 b 210 672 258 653 238 672 b 160 622 182 672 163 653 l 111 56 b 160 -4 108 22 128 -4 l 260 -4 b 310 56 292 -4 313 22 z m 308 871 l 308 883 b 210 979 308 938 267 979 b 111 883 154 979 111 938 l 111 871 b 210 774 111 815 154 774 b 308 871 267 774 308 815 z "},"?":{"ha":751,"x_min":0,"x_max":0,"o":"m 349 300 b 408 356 381 300 403 325 l 414 419 b 694 700 568 446 694 525 l 694 703 b 368 985 694 876 563 985 b 74 869 240 985 147 939 b 46 810 54 853 46 831 b 124 733 46 768 81 733 b 175 753 143 733 161 742 b 364 829 231 803 290 829 b 524 697 464 829 524 775 l 524 694 b 321 544 524 607 451 557 b 267 475 283 540 261 513 l 281 356 b 340 300 285 324 308 300 z m 242 103 l 242 89 b 340 -7 242 35 283 -7 b 439 89 397 -7 439 35 l 439 103 b 340 199 439 157 397 199 b 242 103 283 199 242 157 z "},"¿":{"ha":751,"x_min":0,"x_max":0,"o":"m 403 672 b 344 617 371 672 349 647 l 338 553 b 58 272 183 526 58 449 l 58 269 b 383 -12 58 96 189 -12 b 678 103 511 -12 604 33 b 706 163 697 119 706 142 b 628 239 706 204 671 239 b 576 219 608 239 590 231 b 388 143 521 169 461 143 b 229 275 289 143 229 197 l 229 278 b 431 428 229 365 300 415 b 485 497 468 433 490 460 l 471 617 b 411 672 467 649 443 672 z m 510 871 l 510 883 b 411 979 510 938 468 979 b 313 883 354 979 313 938 l 313 871 b 411 774 313 815 354 774 b 510 871 468 774 510 815 z "},"“":{"ha":696,"x_min":0,"x_max":0,"o":"m 649 939 b 604 978 649 961 633 978 b 474 918 565 978 511 956 b 406 715 431 875 406 810 l 406 701 b 506 579 406 626 444 579 b 600 672 563 579 600 619 l 600 683 b 521 778 600 733 561 767 b 615 901 518 839 551 882 b 649 939 635 907 649 919 z m 326 939 b 283 978 326 961 313 978 b 153 918 243 978 189 956 b 83 715 108 875 83 810 l 83 701 b 183 579 83 626 122 579 b 278 672 240 579 278 619 l 278 683 b 199 778 278 733 239 767 b 293 901 196 839 229 882 b 326 939 313 907 326 919 z "},"”":{"ha":696,"x_min":0,"x_max":0,"o":"m 49 619 b 92 581 49 597 63 581 b 222 640 131 581 185 603 b 290 843 265 683 290 749 l 290 857 b 190 979 290 932 251 979 b 96 886 133 979 96 939 l 96 875 b 175 782 96 825 135 792 b 81 657 178 719 144 676 b 49 619 63 651 49 639 z m 369 619 b 413 581 369 597 383 581 b 543 640 453 581 507 603 b 613 843 588 683 613 749 l 613 857 b 513 979 613 932 574 979 b 418 886 456 979 418 939 l 418 875 b 497 782 418 825 457 792 b 403 657 500 719 467 676 b 369 619 383 651 369 639 z "},"‘":{"ha":374,"x_min":0,"x_max":0,"o":"m 326 939 b 283 978 326 961 313 978 b 153 918 243 978 189 956 b 83 715 108 875 83 810 l 83 701 b 183 579 83 626 122 579 b 278 672 240 579 278 619 l 278 683 b 199 778 278 733 239 767 b 293 901 196 839 229 882 b 326 939 313 907 326 919 z "},"’":{"ha":374,"x_min":0,"x_max":0,"o":"m 49 619 b 92 581 49 597 63 581 b 222 640 131 581 185 603 b 290 843 265 683 290 749 l 290 857 b 190 979 290 932 251 979 b 96 886 133 979 96 939 l 96 875 b 175 782 96 825 135 792 b 81 657 178 719 144 676 b 49 619 63 651 49 639 z "},"„":{"ha":696,"x_min":0,"x_max":0,"o":"m 42 -162 b 85 -201 42 -183 56 -201 b 215 -142 124 -201 178 -178 b 283 61 258 -97 283 -33 l 283 76 b 183 199 283 151 246 199 b 89 106 126 199 89 158 l 89 94 b 168 0 89 44 128 11 b 74 -125 171 -61 138 -104 b 42 -162 56 -129 42 -143 z m 363 -162 b 406 -201 363 -183 376 -201 b 536 -142 446 -201 500 -178 b 606 61 581 -97 606 -33 l 606 76 b 506 199 606 150 567 199 b 411 106 449 199 411 158 l 411 94 b 490 0 411 44 450 11 b 396 -125 493 -61 460 -104 b 363 -162 376 -129 363 -143 z "},"‚":{"ha":374,"x_min":0,"x_max":0,"o":"m 42 -162 b 85 -201 42 -183 56 -201 b 215 -142 124 -201 178 -178 b 283 61 258 -97 283 -33 l 283 76 b 183 199 283 151 246 199 b 89 106 126 199 89 158 l 89 94 b 168 0 89 44 128 11 b 74 -125 171 -61 138 -104 b 42 -162 56 -129 42 -143 z "},"«":{"ha":842,"x_min":0,"x_max":0,"o":"m 679 58 b 749 128 718 58 747 89 b 731 174 749 146 743 158 l 582 368 l 728 558 b 747 606 739 571 747 588 b 679 675 747 643 718 675 b 617 642 654 675 631 661 l 442 415 b 421 367 429 400 421 385 b 442 318 421 349 429 335 l 621 88 b 679 58 633 71 653 58 z m 329 58 b 399 128 368 58 399 89 b 382 174 399 144 393 160 l 232 368 l 379 558 b 397 606 389 571 397 588 b 331 675 397 643 368 675 b 267 642 304 675 282 661 l 92 415 b 72 367 79 400 72 385 b 92 318 72 349 79 335 l 271 88 b 329 58 283 71 304 58 z "},"»":{"ha":842,"x_min":0,"x_max":0,"o":"m 513 675 b 443 606 474 675 443 644 b 460 558 443 588 449 574 l 610 364 l 463 175 b 444 128 453 163 444 144 b 511 58 444 90 474 58 b 575 92 538 58 560 72 l 750 317 b 771 365 763 333 771 347 b 750 415 771 385 763 399 l 571 644 b 513 675 558 661 538 675 z m 163 675 b 93 606 124 675 94 644 b 111 558 93 588 99 574 l 260 364 l 114 175 b 94 128 103 163 94 144 b 163 58 94 90 124 58 b 225 92 188 58 211 72 l 400 317 b 421 365 413 333 421 347 b 400 415 421 385 413 399 l 221 644 b 163 675 208 661 189 675 z "},"‹":{"ha":492,"x_min":0,"x_max":0,"o":"m 329 58 b 399 128 368 58 399 89 b 382 174 399 144 393 160 l 232 368 l 379 558 b 397 606 389 571 397 588 b 331 675 397 643 368 675 b 267 642 304 675 282 661 l 92 415 b 72 367 79 400 72 385 b 92 318 72 349 79 335 l 271 88 b 329 58 283 71 304 58 z "},"›":{"ha":492,"x_min":0,"x_max":0,"o":"m 163 675 b 93 606 124 675 94 644 b 111 558 93 588 99 574 l 260 364 l 114 175 b 94 128 103 163 94 144 b 163 58 94 90 124 58 b 225 92 188 58 211 72 l 400 317 b 421 365 413 333 421 347 b 400 415 421 385 413 399 l 221 644 b 163 675 208 661 189 675 z "},"-":{"ha":567,"x_min":0,"x_max":0,"o":"m 153 343 l 414 343 b 496 425 458 343 496 381 b 414 508 496 471 458 508 l 153 508 b 71 425 108 508 71 471 b 153 343 71 381 108 343 z "},"–":{"ha":733,"x_min":0,"x_max":0,"o":"m 150 346 l 583 346 b 663 425 626 346 663 382 b 583 506 663 469 626 506 l 150 506 b 71 425 107 506 71 469 b 150 346 71 382 107 346 z "},"—":{"ha":1247,"x_min":0,"x_max":0,"o":"m 150 346 l 1097 346 b 1176 425 1140 346 1176 382 b 1097 506 1176 469 1140 506 l 150 506 b 71 425 107 506 71 469 b 150 346 71 382 107 346 z "},"/":{"ha":724,"x_min":0,"x_max":0,"o":"m 0 -121 b 67 -185 0 -156 31 -185 b 126 -146 94 -185 114 -171 l 696 1018 b 703 1051 699 1026 703 1039 b 638 1115 703 1086 674 1115 b 576 1076 610 1115 589 1101 l 8 -87 b 0 -121 4 -96 0 -108 z "},"\\":{"ha":724,"x_min":0,"x_max":0,"o":"m 724 -121 b 715 -87 724 -108 719 -96 l 147 1076 b 86 1115 135 1101 114 1115 b 21 1051 50 1115 21 1086 b 28 1018 21 1039 25 1026 l 597 -146 b 657 -185 610 -171 629 -185 b 724 -121 693 -185 724 -156 z "},"|":{"ha":460,"x_min":0,"x_max":0,"o":"m 163 -118 b 229 -185 163 -156 193 -185 b 297 -118 267 -185 297 -156 l 297 1049 b 229 1115 297 1086 267 1115 b 163 1049 193 1115 163 1086 z "},"⁄":{"ha":638,"x_min":0,"x_max":0,"o":"m -56 -79 b 11 -143 -56 -115 -25 -143 b 71 -108 38 -143 60 -129 l 653 958 b 663 996 658 969 663 982 b 596 1060 663 1032 632 1060 b 536 1025 569 1060 547 1046 l -46 -42 b -56 -79 -51 -53 -56 -65 z "},"(":{"ha":613,"x_min":0,"x_max":0,"o":"m 481 -187 b 544 -119 514 -187 544 -154 b 517 -62 544 -93 533 -75 b 256 399 340 61 256 201 b 517 860 256 596 340 736 b 544 917 533 872 544 890 b 481 985 544 951 514 985 b 440 975 463 985 446 979 b 88 399 211 838 88 650 b 440 -178 88 147 211 -40 b 481 -187 446 -182 463 -187 z "},")":{"ha":613,"x_min":0,"x_max":0,"o":"m 131 -187 b 171 -178 150 -187 165 -182 b 525 399 401 -40 525 147 b 171 975 525 650 401 838 b 131 985 165 979 150 985 b 67 917 97 985 67 951 b 96 860 67 890 79 872 b 357 399 271 736 357 596 b 96 -62 357 201 271 61 b 67 -119 79 -75 67 -93 b 131 -187 67 -154 97 -187 z "},"[":{"ha":632,"x_min":0,"x_max":0,"o":"m 122 -97 b 204 -181 122 -143 158 -181 l 490 -181 b 557 -114 526 -181 557 -150 b 490 -49 557 -78 526 -49 l 283 -49 l 283 840 l 490 840 b 557 906 526 840 557 869 b 490 972 557 942 526 972 l 204 972 b 122 889 158 972 122 935 z "},"]":{"ha":632,"x_min":0,"x_max":0,"o":"m 510 889 b 426 972 510 935 472 972 l 140 972 b 75 906 104 972 75 942 b 140 840 75 869 104 840 l 349 840 l 349 -49 l 140 -49 b 75 -114 104 -49 75 -78 b 140 -181 75 -150 104 -181 l 426 -181 b 510 -97 472 -181 510 -143 z "},"{":{"ha":676,"x_min":0,"x_max":0,"o":"m 535 -187 b 611 -131 578 -197 611 -171 b 572 -74 611 -97 589 -79 b 418 106 438 -32 418 11 b 421 208 418 133 421 179 b 276 399 421 317 369 368 b 421 589 368 428 421 481 b 418 692 421 618 418 664 b 572 871 418 786 438 829 b 611 928 589 876 611 894 b 535 985 611 968 578 994 b 263 717 319 938 263 851 b 265 617 263 696 265 640 b 135 465 265 514 229 469 b 64 399 90 463 64 436 b 135 332 64 361 90 335 b 265 182 229 329 265 283 b 263 82 265 158 263 103 b 535 -187 263 -54 319 -140 z "},"}":{"ha":676,"x_min":0,"x_max":0,"o":"m 142 985 b 65 928 99 994 65 968 b 106 871 65 894 88 876 b 258 692 239 829 258 786 b 256 589 258 664 256 618 b 400 399 256 481 307 429 b 256 208 308 369 256 317 b 258 106 256 179 258 133 b 106 -74 258 11 239 -32 b 65 -131 88 -79 65 -97 b 142 -187 65 -171 99 -197 b 414 82 357 -140 414 -54 b 411 182 414 103 411 158 b 543 332 411 283 449 329 b 613 399 586 335 613 361 b 543 465 613 436 586 463 b 411 617 449 469 411 514 b 414 717 411 640 414 696 b 142 985 414 851 357 938 z "},"@":{"ha":1361,"x_min":0,"x_max":0,"o":"m 693 -225 b 1049 -128 832 -225 946 -189 b 1061 -107 1056 -125 1061 -118 b 1039 -82 1061 -94 1051 -82 b 1024 -86 1035 -82 1028 -83 b 693 -172 924 -143 826 -172 b 129 381 364 -172 129 74 b 682 936 129 686 367 936 b 1232 439 997 936 1232 694 b 1049 154 1232 249 1147 154 b 940 253 981 154 940 193 b 947 313 940 265 943 288 l 1000 610 b 933 694 1008 660 974 694 b 861 625 894 694 869 671 l 857 600 b 661 703 821 656 761 703 b 346 356 500 703 346 553 b 597 93 346 196 458 93 b 813 190 694 93 763 139 b 1018 93 844 139 910 93 b 1288 439 1161 93 1288 206 b 682 989 1288 726 1022 989 b 74 381 342 989 74 713 b 693 -225 74 49 338 -225 z m 635 214 b 489 364 549 214 489 268 b 681 583 489 489 579 583 b 826 433 764 583 826 522 b 635 214 826 314 736 214 z "},"©":{"ha":1153,"x_min":0,"x_max":0,"o":"m 575 -17 b 1079 486 857 -17 1079 213 l 1079 489 b 578 989 1079 763 860 989 b 74 486 296 989 74 760 l 74 483 b 575 -17 74 210 293 -17 z m 575 33 b 126 483 319 33 126 235 l 126 486 b 578 939 126 735 321 939 b 1026 489 833 939 1026 738 l 1026 486 b 575 33 1026 238 832 33 z m 582 221 b 776 294 671 221 725 250 b 792 329 785 301 792 314 b 743 378 792 356 769 378 b 713 365 729 378 719 371 b 585 315 675 333 638 315 b 421 492 490 315 421 396 l 421 494 b 585 671 421 592 490 671 b 704 626 632 671 672 651 b 738 613 715 618 726 613 b 788 664 765 613 788 635 b 765 706 788 682 778 697 b 585 765 721 742 669 765 b 315 493 428 765 315 642 l 315 490 b 582 221 315 340 429 221 z "},"℗":{"ha":1153,"x_min":0,"x_max":0,"o":"m 575 -17 b 1079 486 857 -17 1079 213 l 1079 489 b 578 989 1079 763 860 989 b 74 486 296 989 74 760 l 74 483 b 575 -17 74 210 293 -17 z m 575 33 b 126 483 319 33 126 235 l 126 486 b 578 939 126 735 321 939 b 1026 489 833 939 1026 738 l 1026 486 b 575 33 1026 238 832 33 z m 397 276 b 449 225 397 247 421 225 b 500 276 476 225 500 247 l 500 399 l 599 399 b 814 579 715 399 814 460 l 814 582 b 610 760 814 690 735 760 l 449 760 b 397 708 421 760 397 736 z m 500 489 l 500 668 l 601 668 b 710 581 668 668 710 638 l 710 578 b 601 489 710 525 668 489 z "},"®":{"ha":531,"x_min":0,"x_max":0,"o":"m 265 500 b 507 743 400 500 507 611 l 507 744 b 265 986 507 876 401 986 b 24 743 131 986 24 875 l 24 742 b 265 500 24 610 129 500 z m 265 526 b 51 742 143 526 51 624 l 51 743 b 265 960 51 861 144 960 b 479 744 388 960 479 863 l 479 743 b 265 526 479 625 386 526 z m 165 647 b 196 617 165 631 179 617 b 226 647 213 617 226 631 l 226 701 l 267 701 l 325 629 b 350 617 332 622 339 617 b 381 646 368 617 381 629 b 372 668 381 654 379 661 l 335 714 b 385 790 365 726 385 753 b 283 874 385 846 343 874 l 196 874 b 165 842 179 874 165 860 z m 226 751 l 226 821 l 279 821 b 322 786 306 821 322 808 b 279 751 322 765 307 751 z "},"™":{"ha":958,"x_min":0,"x_max":0,"o":"m 168 578 b 208 538 168 556 186 538 b 250 578 232 538 250 556 l 250 897 l 353 897 b 389 935 372 897 389 915 b 353 972 389 956 372 972 l 65 972 b 29 935 46 972 29 956 b 65 897 29 915 46 897 l 168 897 z m 474 576 b 514 538 474 554 492 538 b 553 576 535 538 553 554 l 553 825 l 654 671 b 689 650 664 657 674 650 b 724 671 706 650 715 658 l 825 826 l 825 576 b 864 538 825 554 843 538 b 904 576 886 538 904 554 l 904 936 b 865 976 904 958 886 976 l 856 976 b 819 956 839 976 828 969 l 689 750 l 561 956 b 524 976 554 967 542 976 l 514 976 b 474 936 492 976 474 958 z "},"℠":{"ha":979,"x_min":0,"x_max":0,"o":"m 494 576 b 533 538 494 554 513 538 b 574 576 556 538 574 554 l 574 825 l 674 671 b 710 650 683 657 693 650 b 743 671 725 650 735 658 l 846 826 l 846 576 b 885 538 846 554 863 538 b 924 576 907 538 924 554 l 924 936 b 885 976 924 958 907 976 l 875 976 b 840 956 860 976 849 969 l 710 750 l 581 956 b 544 976 574 967 561 976 l 535 976 b 494 936 513 976 494 958 z m 46 622 b 64 590 46 608 53 599 b 233 536 108 558 172 536 b 400 667 331 536 400 586 b 246 793 400 740 339 772 b 142 860 167 811 142 826 b 219 911 142 889 169 911 b 326 878 263 911 297 896 b 349 871 332 874 340 871 b 385 907 369 871 385 886 b 364 940 385 921 378 932 b 221 981 331 963 282 981 b 63 851 125 981 63 926 l 63 850 b 219 724 63 772 125 746 b 321 658 299 706 321 690 b 238 603 321 625 290 603 b 106 649 188 603 143 622 b 81 657 99 654 90 657 b 46 622 61 657 46 642 z "},"*":{"ha":597,"x_min":0,"x_max":0,"o":"m 256 575 b 299 524 251 546 271 524 b 342 576 326 524 346 547 l 328 700 l 432 624 b 465 610 444 615 454 610 b 513 656 490 610 513 631 b 481 700 513 678 497 693 l 358 753 l 481 807 b 513 850 497 814 513 828 b 467 896 513 875 492 896 b 432 882 454 896 444 892 l 328 806 l 342 931 b 299 982 346 960 326 982 b 256 929 271 982 251 958 l 269 806 l 165 882 b 132 896 153 892 144 896 b 85 850 107 896 85 875 b 117 807 85 829 100 814 l 239 753 l 117 700 b 85 657 101 693 85 678 b 131 610 85 632 106 610 b 165 624 143 610 153 615 l 269 700 z "},"†":{"ha":569,"x_min":0,"x_max":0,"o":"m 236 375 b 285 324 235 346 257 324 b 333 376 313 324 335 346 l 324 713 l 447 703 b 499 750 476 700 499 722 b 449 796 499 776 478 799 l 325 786 l 336 922 b 285 979 339 956 314 979 b 233 922 256 979 231 956 l 246 786 l 121 796 b 71 750 93 799 71 776 b 122 703 71 722 93 700 l 247 713 z "},"‡":{"ha":597,"x_min":0,"x_max":0,"o":"m 247 50 b 299 -7 244 17 269 -7 b 350 50 328 -7 353 17 l 339 186 l 463 176 b 513 222 492 174 513 196 b 461 269 513 250 490 272 l 338 260 l 349 486 l 338 713 l 461 703 b 513 750 490 700 513 722 b 463 796 513 776 492 799 l 339 786 l 350 922 b 299 979 353 956 328 979 b 247 922 269 979 244 956 l 260 786 l 135 796 b 85 750 107 799 85 776 b 136 703 85 722 107 700 l 260 713 l 249 486 l 260 260 l 136 269 b 85 222 107 272 85 250 b 135 176 85 196 107 174 l 260 186 z "},"$":{"ha":892,"x_min":0,"x_max":0,"o":"m 396 1000 l 396 971 b 104 706 222 957 104 854 b 401 419 104 549 199 472 l 401 146 b 196 239 325 160 261 192 b 150 254 183 249 167 254 b 74 178 107 254 74 221 b 111 111 74 149 88 126 b 396 3 196 51 292 14 l 396 -83 b 457 -143 396 -117 424 -143 b 517 -83 490 -143 517 -117 l 517 0 b 813 271 693 17 813 118 b 511 557 813 419 722 504 l 511 824 b 654 763 558 813 606 792 b 696 750 668 754 682 750 b 774 826 739 750 774 783 b 732 893 774 860 754 881 b 517 969 668 933 599 960 l 517 1000 b 457 1060 517 1033 490 1060 b 396 1000 424 1060 396 1033 z m 649 261 b 511 140 649 194 600 150 l 511 393 b 649 261 618 360 649 322 z m 268 715 b 401 832 268 776 313 824 l 401 586 b 268 715 294 621 268 657 z "},"£":{"ha":894,"x_min":0,"x_max":0,"o":"m 81 60 b 146 0 81 26 107 0 l 754 0 b 829 74 796 0 829 32 b 754 149 829 115 796 149 l 371 149 l 371 386 l 651 386 b 724 458 690 386 724 418 b 651 531 724 497 690 531 l 371 531 l 371 654 b 417 789 371 713 388 758 b 519 828 443 814 475 828 b 668 756 583 828 625 801 b 729 729 679 743 699 729 b 814 813 776 729 814 765 b 788 874 814 839 803 858 b 517 986 726 939 644 986 b 283 900 417 986 338 956 b 197 658 228 844 197 760 l 197 531 l 153 531 b 81 458 113 531 81 497 b 153 386 81 418 113 386 l 197 386 l 197 142 l 126 121 b 81 60 96 111 81 88 z "},"€":{"ha":1000,"x_min":0,"x_max":0,"o":"m 931 194 b 854 269 931 236 896 269 b 794 242 828 269 808 258 b 604 136 742 176 688 136 b 376 313 494 136 415 201 l 626 313 b 685 372 658 313 685 339 b 626 432 685 404 658 432 l 351 432 b 350 488 350 450 350 468 b 353 549 350 508 350 529 l 626 549 b 685 607 658 549 685 575 b 626 667 685 640 658 667 l 379 667 b 593 836 418 771 493 836 b 786 738 679 836 733 801 b 846 710 797 724 817 710 b 928 790 890 710 928 746 b 906 847 928 815 917 836 b 597 989 833 931 744 989 b 203 667 400 989 257 854 l 125 667 b 65 607 92 667 65 640 b 125 549 65 575 92 549 l 181 549 b 178 485 178 528 178 506 b 179 432 178 467 178 449 l 125 432 b 65 372 92 432 65 404 b 125 313 65 339 92 313 l 200 313 b 603 -17 253 115 397 -17 b 914 146 746 -17 839 49 b 931 194 922 156 931 174 z "},"¥":{"ha":953,"x_min":0,"x_max":0,"o":"m 558 367 l 772 367 b 833 428 806 367 833 394 b 772 490 833 463 806 490 l 604 490 l 863 840 b 883 900 875 857 883 876 b 801 979 883 949 846 979 b 724 931 765 979 740 956 l 478 569 l 235 932 b 154 979 215 961 190 979 b 69 899 106 979 69 942 b 90 840 69 878 76 860 l 346 490 l 181 490 b 119 428 147 490 119 463 b 181 367 119 394 147 367 l 394 367 l 394 265 l 181 265 b 119 203 147 265 119 238 b 181 142 119 169 147 142 l 394 142 l 394 75 b 476 -7 394 29 431 -7 b 558 75 522 -7 558 29 l 558 142 l 772 142 b 833 203 806 142 833 169 b 772 265 833 238 806 265 l 558 265 z "},"¢":{"ha":807,"x_min":0,"x_max":0,"o":"m 304 57 b 363 -15 296 17 325 -15 b 421 33 394 -15 415 6 l 436 111 l 446 111 b 715 218 564 111 650 156 b 738 269 729 231 738 249 b 669 340 738 308 706 340 b 622 324 646 340 633 332 b 458 257 576 283 524 258 l 547 710 b 617 665 572 699 594 683 b 664 649 626 657 643 649 b 739 724 706 649 739 682 b 714 781 739 751 726 769 b 582 857 676 813 633 840 l 593 915 b 536 988 603 956 572 988 b 476 939 503 988 482 967 l 464 875 l 453 875 b 72 493 233 875 72 703 l 72 490 b 319 133 72 325 174 185 z m 236 493 l 236 496 b 442 729 236 622 324 725 l 354 281 b 236 493 281 319 236 399 z "},"ƒ":{"ha":732,"x_min":0,"x_max":0,"o":"m 147 -10 b 379 199 275 -10 353 50 l 432 494 l 569 494 b 640 564 610 494 640 525 b 569 635 640 603 610 635 l 457 635 l 474 731 b 586 839 488 807 521 839 b 619 836 600 839 614 836 b 689 906 658 836 689 867 b 626 976 689 944 660 972 b 554 981 603 979 581 981 b 311 765 404 981 338 906 l 286 635 l 215 635 b 144 564 176 635 144 603 b 215 494 144 525 176 494 l 263 494 l 214 224 b 126 131 203 163 176 135 b 57 61 85 128 57 99 b 147 -10 57 18 90 -10 z "},"#":{"ha":972,"x_min":0,"x_max":0,"o":"m 158 78 b 229 -7 151 31 185 -7 b 303 53 271 -7 297 22 l 332 224 l 550 224 l 524 78 b 596 -7 517 35 550 -7 b 668 53 632 -7 663 18 l 697 224 l 801 224 b 874 296 842 224 874 257 b 801 368 874 336 842 368 l 722 368 l 764 610 l 853 610 b 925 682 892 610 925 643 b 853 754 925 722 892 754 l 789 754 l 813 894 b 742 979 819 938 786 979 b 668 919 704 979 674 956 l 640 754 l 422 754 l 447 894 b 375 979 453 938 421 979 b 303 919 339 979 308 956 l 275 754 l 169 754 b 97 682 131 754 97 721 b 169 610 97 643 131 610 l 250 610 l 208 368 l 119 368 b 47 296 79 368 47 335 b 119 224 47 256 79 224 l 183 224 z m 357 368 l 399 610 l 615 610 l 574 368 z "},"¶":{"ha":774,"x_min":0,"x_max":0,"o":"m 481 78 b 567 -7 481 31 519 -7 b 653 78 615 -7 653 31 l 653 886 b 567 972 653 935 615 972 l 432 972 b 56 657 210 972 56 854 l 56 654 b 456 339 56 447 228 339 l 481 339 z "},"§":{"ha":878,"x_min":0,"x_max":0,"o":"m 453 -14 b 726 189 622 -14 726 67 l 726 192 b 649 324 726 244 697 294 b 797 485 733 346 797 396 l 797 488 b 497 690 797 589 713 642 b 314 788 347 725 314 750 l 314 790 b 426 858 314 831 353 858 b 626 781 503 858 568 829 b 669 765 636 772 651 765 b 739 833 708 765 739 794 b 714 886 739 857 726 875 b 425 986 639 949 543 986 b 153 783 256 986 153 907 l 153 781 b 229 649 153 728 179 681 b 81 488 144 626 81 578 l 81 485 b 381 282 81 385 165 331 b 564 185 524 250 564 225 l 564 182 b 451 114 564 143 525 114 b 251 192 375 114 310 143 b 208 208 242 200 226 208 b 139 139 169 208 139 178 b 164 86 139 115 151 97 b 453 -14 239 24 335 -14 z m 539 386 b 396 411 507 386 465 393 b 232 508 276 440 232 468 l 232 511 b 339 586 232 554 276 586 b 483 561 371 586 413 579 b 646 464 601 532 646 504 l 646 461 b 539 386 646 418 601 386 z "},"ª":{"ha":542,"x_min":0,"x_max":0,"o":"m 221 560 b 349 615 279 560 319 582 l 349 604 b 394 561 349 579 371 561 b 443 607 421 561 443 582 l 443 807 b 400 931 443 858 429 903 b 265 976 371 961 326 976 b 136 953 213 976 175 968 b 110 914 121 947 110 932 b 151 874 110 892 128 874 b 172 878 157 874 164 875 b 253 893 194 886 219 893 b 350 808 315 893 350 863 l 350 801 b 244 817 319 810 289 817 b 78 688 147 817 78 774 l 78 685 b 221 560 78 603 144 560 z m 107 392 l 415 392 b 457 432 438 392 457 410 b 415 472 457 454 438 472 l 107 472 b 67 432 85 472 67 454 b 107 392 67 410 85 392 z m 246 631 b 174 689 204 631 174 653 l 174 692 b 263 754 174 731 207 754 b 350 739 299 754 326 747 l 350 714 b 246 631 350 665 306 631 z "},"º":{"ha":542,"x_min":0,"x_max":0,"o":"m 269 558 b 481 768 390 558 481 653 l 481 771 b 272 979 481 886 393 979 b 61 769 151 979 61 885 l 61 767 b 269 558 61 651 150 558 z m 104 392 l 438 392 b 478 432 460 392 478 410 b 438 472 478 454 460 472 l 104 472 b 64 432 82 472 64 454 b 104 392 64 410 82 392 z m 272 644 b 158 768 206 644 158 701 l 158 771 b 269 893 158 838 203 893 b 383 769 336 893 383 836 l 383 767 b 272 644 383 700 340 644 z "},"°":{"ha":654,"x_min":0,"x_max":0,"o":"m 328 529 b 558 754 449 529 558 633 l 558 757 b 328 981 558 878 449 981 b 96 757 206 981 96 878 l 96 754 b 328 529 96 633 206 529 z m 328 621 b 196 754 251 621 196 683 l 196 757 b 328 889 196 828 251 889 b 458 757 403 889 458 828 l 458 754 b 328 621 458 683 403 621 z "},"%":{"ha":1179,"x_min":0,"x_max":0,"o":"m 294 486 b 525 735 433 486 525 600 l 525 738 b 297 983 525 871 435 983 b 67 735 160 983 67 871 l 67 732 b 294 486 67 599 158 486 z m 214 47 b 268 -7 214 17 238 -7 b 317 18 288 -7 306 1 l 954 889 b 967 925 961 899 967 911 b 911 979 967 956 942 979 b 864 954 892 979 874 971 l 226 83 b 214 47 219 74 214 61 z m 882 -11 b 1113 238 1019 -11 1113 103 l 1113 240 b 885 486 1113 374 1021 486 b 654 238 747 486 654 374 l 654 235 b 882 -11 654 101 746 -11 z m 297 593 b 190 735 235 593 190 656 l 190 738 b 294 876 190 813 229 876 b 401 735 357 876 401 813 l 401 732 b 297 593 401 657 363 593 z m 885 96 b 778 238 822 96 778 158 l 778 240 b 882 379 778 315 817 379 b 989 238 944 379 989 315 l 989 235 b 885 96 989 160 950 96 z "},"‰":{"ha":1706,"x_min":0,"x_max":0,"o":"m 294 486 b 525 735 433 486 525 600 l 525 738 b 297 983 525 871 435 983 b 67 735 160 983 67 871 l 67 732 b 294 486 67 599 158 486 z m 214 47 b 268 -7 214 17 238 -7 b 317 18 288 -7 306 1 l 954 889 b 967 925 961 899 967 911 b 911 979 967 956 942 979 b 864 954 892 979 874 971 l 226 83 b 214 47 219 74 214 61 z m 1408 -11 b 1639 238 1546 -11 1639 103 l 1639 240 b 1411 486 1639 374 1547 486 b 1181 238 1274 486 1181 374 l 1181 235 b 1408 -11 1181 101 1272 -11 z m 882 -11 b 1113 238 1019 -11 1113 103 l 1113 240 b 885 486 1113 374 1021 486 b 654 238 747 486 654 374 l 654 235 b 882 -11 654 101 746 -11 z m 297 593 b 190 735 235 593 190 656 l 190 738 b 294 876 190 813 229 876 b 401 735 357 876 401 813 l 401 732 b 297 593 401 657 363 593 z m 1411 96 b 1304 238 1349 96 1304 158 l 1304 240 b 1408 379 1304 315 1343 379 b 1515 238 1471 379 1515 315 l 1515 235 b 1411 96 1515 160 1476 96 z m 885 96 b 778 238 822 96 778 158 l 778 240 b 882 379 778 315 817 379 b 989 238 944 379 989 315 l 989 235 b 885 96 989 160 950 96 z "},"\"":{"ha":676,"x_min":0,"x_max":0,"o":"m 392 601 b 438 549 389 569 411 549 b 488 592 464 549 478 565 l 589 900 b 594 931 592 911 594 922 b 550 976 594 960 575 976 l 494 976 b 415 899 449 976 418 943 z m 86 601 b 133 549 85 569 106 549 b 183 592 160 549 174 565 l 285 900 b 290 931 288 911 290 922 b 244 976 290 960 271 976 l 190 976 b 111 899 144 976 114 943 z "},"'":{"ha":374,"x_min":0,"x_max":0,"o":"m 86 601 b 133 549 85 569 106 549 b 185 592 160 549 175 565 l 286 900 b 292 931 289 911 292 922 b 244 976 292 960 271 976 l 190 976 b 111 899 144 976 114 943 z "},"+":{"ha":881,"x_min":0,"x_max":0,"o":"m 361 219 b 440 140 361 175 396 140 b 519 219 483 140 519 175 l 519 413 l 717 413 b 793 489 758 413 793 446 b 717 565 793 531 758 565 l 519 565 l 519 758 b 440 838 519 803 483 838 b 361 758 396 838 361 803 l 361 565 l 164 565 b 88 489 122 565 88 531 b 164 413 88 446 122 413 l 361 413 z "},"−":{"ha":881,"x_min":0,"x_max":0,"o":"m 714 410 b 793 488 758 410 793 444 b 714 567 793 532 758 567 l 165 567 b 88 488 122 567 88 532 b 165 410 88 444 122 410 z "},"÷":{"ha":881,"x_min":0,"x_max":0,"o":"m 721 417 b 793 489 761 417 793 450 b 721 561 793 528 761 561 l 160 561 b 88 489 119 561 88 528 b 160 417 88 450 119 417 z m 440 874 b 344 782 388 874 344 832 l 344 775 b 440 682 344 724 388 682 b 536 775 493 682 536 724 l 536 782 b 440 874 536 832 493 874 z m 440 296 b 344 203 388 296 344 254 l 344 196 b 440 104 344 144 388 104 b 536 196 493 104 536 144 l 536 203 b 440 296 536 254 493 296 z "},"=":{"ha":881,"x_min":0,"x_max":0,"o":"m 176 585 l 704 585 b 782 663 747 585 782 619 b 704 740 782 706 747 740 l 176 740 b 99 663 133 740 99 706 b 176 585 99 619 133 585 z m 176 238 l 704 238 b 782 315 747 238 782 272 b 704 393 782 357 747 393 l 176 393 b 99 315 133 393 99 357 b 176 238 99 272 133 238 z "},"×":{"ha":881,"x_min":0,"x_max":0,"o":"m 722 668 b 747 722 738 682 747 701 b 674 796 747 764 715 796 b 621 772 653 796 635 788 l 442 590 l 264 772 b 208 796 250 786 232 796 b 133 721 167 796 133 763 b 156 665 133 697 143 679 l 339 488 l 158 310 b 133 254 143 296 133 276 b 206 182 133 214 165 182 b 260 206 228 182 246 190 l 439 388 l 617 204 b 672 182 631 192 649 182 b 747 257 714 182 747 215 b 724 313 747 281 738 299 l 542 490 z "},"<":{"ha":881,"x_min":0,"x_max":0,"o":"m 690 133 b 764 204 732 133 764 163 b 717 275 764 236 746 261 l 260 490 l 717 704 b 764 774 746 718 764 742 b 696 844 764 814 732 846 b 653 833 679 844 667 840 l 151 588 b 85 494 110 568 85 536 l 85 483 b 151 390 85 442 110 410 l 653 144 b 690 133 664 139 678 133 z "},">":{"ha":881,"x_min":0,"x_max":0,"o":"m 190 844 b 117 774 149 844 117 815 b 164 703 117 742 135 717 l 621 488 l 164 272 b 117 204 135 260 117 236 b 185 133 117 164 149 132 b 228 144 201 133 214 138 l 728 390 b 796 483 771 410 796 442 l 796 494 b 728 588 796 536 771 568 l 228 833 b 190 844 217 839 203 844 z "},"±":{"ha":881,"x_min":0,"x_max":0,"o":"m 364 331 b 440 254 364 288 397 254 b 517 331 483 254 517 288 l 515 518 l 710 518 b 785 592 751 518 785 551 b 710 665 785 632 751 665 l 515 665 l 517 853 b 440 929 517 896 483 929 b 364 853 397 929 364 896 l 365 665 l 169 665 b 96 592 129 665 96 632 b 169 518 96 551 129 518 l 365 518 z m 167 0 l 714 0 b 785 71 753 0 785 32 b 714 143 785 111 753 143 l 167 143 b 96 71 128 143 96 111 b 167 0 96 32 128 0 z "},"_":{"ha":833,"x_min":0,"x_max":0,"o":"m -3 -222 l 836 -222 b 901 -157 872 -222 901 -193 b 836 -92 901 -121 872 -92 l -3 -92 b -68 -157 -39 -92 -68 -121 b -3 -222 -68 -193 -39 -222 z "},"^":{"ha":694,"x_min":0,"x_max":0,"o":"m 346 868 l 446 739 b 547 678 483 690 506 678 b 586 706 569 678 586 689 b 571 747 586 718 581 732 l 439 928 b 353 978 415 960 392 978 l 340 978 b 256 928 301 978 278 960 l 124 747 b 107 706 113 732 107 718 b 146 678 107 689 124 678 b 246 739 186 678 208 690 z "},"~":{"ha":688,"x_min":0,"x_max":0,"o":"m 186 343 b 251 388 203 374 218 388 b 450 332 300 388 374 332 b 592 458 525 332 563 378 b 597 490 596 468 597 482 b 546 538 597 514 574 538 b 501 508 525 538 510 524 b 436 465 485 478 469 465 b 238 519 388 465 314 519 b 96 393 163 519 125 474 b 90 363 92 385 90 369 b 142 315 90 338 114 315 b 186 343 163 315 178 328 z "},"´":{"ha":694,"x_min":0,"x_max":0,"o":"m 288 819 b 386 857 326 819 353 826 l 479 946 b 503 988 493 958 503 972 b 403 1042 503 1014 447 1042 b 336 1001 374 1042 351 1026 l 257 879 b 246 849 251 871 246 858 b 288 819 246 831 264 819 z "},"˝":{"ha":694,"x_min":0,"x_max":0,"o":"m 393 819 b 489 857 432 819 456 826 l 582 946 b 606 989 596 960 606 972 b 508 1042 606 1015 551 1042 b 444 1001 478 1042 460 1028 l 364 879 b 353 849 358 871 353 858 b 393 819 353 831 369 819 z m 139 819 b 235 857 178 819 203 826 l 328 946 b 351 989 342 960 351 972 b 254 1042 351 1015 297 1042 b 190 1001 225 1042 206 1028 l 110 879 b 99 849 104 871 99 858 b 139 819 99 831 115 819 z "},"`":{"ha":694,"x_min":0,"x_max":0,"o":"m 407 819 b 450 849 432 819 450 831 b 438 879 450 858 443 871 l 358 1001 b 292 1042 343 1026 321 1042 b 192 988 247 1042 192 1014 b 215 946 192 972 201 958 l 310 857 b 407 819 342 826 368 819 z "},"ˆ":{"ha":694,"x_min":0,"x_max":0,"o":"m 346 919 l 418 857 b 521 819 456 826 482 819 b 561 847 543 819 561 829 b 544 881 561 857 553 869 l 453 996 b 372 1036 433 1021 411 1036 l 322 1036 b 242 996 283 1036 263 1021 l 150 881 b 133 847 142 869 133 857 b 171 819 133 829 150 819 b 274 857 210 819 238 826 z "},"ˇ":{"ha":694,"x_min":0,"x_max":0,"o":"m 349 938 l 276 1000 b 174 1038 240 1031 213 1038 b 133 1010 151 1038 133 1028 b 150 976 133 999 142 988 l 242 861 b 322 821 263 836 283 821 l 372 821 b 453 861 411 821 433 836 l 544 976 b 561 1010 553 988 561 999 b 524 1038 561 1028 546 1038 b 421 1000 485 1038 458 1031 z "},"˘":{"ha":694,"x_min":0,"x_max":0,"o":"m 347 824 b 560 935 446 824 519 864 b 571 978 567 949 571 964 b 513 1038 571 1011 546 1038 b 460 1006 483 1038 469 1022 b 347 942 440 968 407 942 b 235 1006 288 942 256 968 b 182 1038 225 1022 211 1038 b 124 978 149 1038 124 1011 b 135 935 124 964 128 949 b 347 824 175 864 250 824 z "},"˜":{"ha":694,"x_min":0,"x_max":0,"o":"m 190 838 b 254 882 207 868 222 882 b 454 826 304 882 378 826 b 596 953 528 826 567 872 b 601 985 599 963 601 976 b 550 1031 601 1008 578 1031 b 504 1003 529 1031 514 1018 b 440 958 488 972 472 958 b 240 1014 390 958 317 1014 b 99 888 167 1014 128 968 b 93 856 96 878 93 864 b 144 810 93 832 117 810 b 190 838 167 810 181 822 z "},"¯":{"ha":694,"x_min":0,"x_max":0,"o":"m 532 842 b 593 903 565 842 593 869 b 532 964 593 936 565 964 l 163 964 b 101 903 129 964 101 936 b 163 842 101 869 129 842 z "},"¨":{"ha":694,"x_min":0,"x_max":0,"o":"m 486 1000 b 394 914 435 1000 394 964 l 394 904 b 486 819 394 854 435 819 b 576 904 536 819 576 854 l 576 914 b 486 1000 576 964 536 1000 z m 210 1000 b 118 914 158 1000 118 964 l 118 904 b 210 819 118 854 158 819 b 300 904 260 819 300 854 l 300 914 b 210 1000 300 964 260 1000 z "},"˙":{"ha":694,"x_min":0,"x_max":0,"o":"m 442 914 b 347 1000 442 965 399 1000 b 254 914 296 1000 254 965 l 254 904 b 347 819 254 853 296 819 b 442 904 399 819 442 853 z "},"˚":{"ha":694,"x_min":0,"x_max":0,"o":"m 347 824 b 506 975 431 824 506 893 l 506 978 b 347 1129 506 1061 431 1129 b 189 978 264 1129 189 1061 l 189 975 b 347 824 189 893 264 824 z m 347 890 b 261 975 300 890 261 929 l 261 978 b 347 1063 261 1024 300 1063 b 433 978 394 1063 433 1024 l 433 975 b 347 890 433 929 394 890 z "},"̦":{"ha":694,"x_min":0,"x_max":0,"o":"m 336 -231 b 249 -319 338 -276 311 -306 b 219 -349 229 -324 219 -333 b 256 -378 219 -364 231 -378 b 375 -332 294 -378 344 -360 b 435 -182 415 -297 435 -251 l 435 -178 b 346 -81 435 -119 400 -81 b 261 -154 296 -81 261 -111 l 261 -157 b 336 -231 261 -200 294 -224 z "},"¸":{"ha":694,"x_min":0,"x_max":0,"o":"m 433 14 l 307 14 l 208 -129 b 197 -161 201 -139 197 -150 b 294 -222 197 -190 261 -222 b 349 -182 324 -222 338 -208 z "},"˛":{"ha":694,"x_min":0,"x_max":0,"o":"m 253 -114 b 432 -231 253 -197 343 -231 b 488 -187 468 -231 488 -214 b 442 -144 488 -165 472 -151 b 381 -87 403 -135 381 -121 b 438 10 381 -58 396 -29 l 325 17 b 253 -114 281 -26 253 -67 z "}," ":{"ha":417,"x_min":0,"x_max":0,"o":""}," ":{"ha":417,"x_min":0,"x_max":0,"o":""}," ":{"ha":1389,"x_min":0,"x_max":0,"o":""}," ":{"ha":694,"x_min":0,"x_max":0,"o":""}," ":{"ha":463,"x_min":0,"x_max":0,"o":""}," ":{"ha":347,"x_min":0,"x_max":0,"o":""}," ":{"ha":185,"x_min":0,"x_max":0,"o":""}," ":{"ha":104,"x_min":0,"x_max":0,"o":""}}}
